<svg width="407" height="91" viewBox="0 0 407 91" fill="none" xmlns="http://www.w3.org/2000/svg">
<path d="M19.4903 79.5195C19.4537 79.5195 19.4537 79.4828 19.3805 79.4828C18.465 78.8224 17.2932 78.3088 16.0115 77.9419C16.0115 77.9419 10.4087 76.3642 10.2622 76.2909C10.0791 76.2175 9.93267 76.1074 9.82281 75.9973C9.74957 75.924 9.71295 75.8873 9.67633 75.8139C9.63971 75.7772 9.63971 75.7405 9.60309 75.7405C9.56647 75.6305 9.52985 75.5204 9.52985 75.4103C9.52985 74.8233 10.3355 74.3463 11.3608 74.3463C12.3495 74.3463 13.1918 74.8233 13.1918 75.4103C13.1918 75.6671 13.1918 76.034 13.1918 76.034H22.0171C22.0537 75.8506 22.0537 75.6305 22.0537 75.4103C22.0537 74.0528 21.3213 72.7687 20.0762 71.7414C19.8565 71.558 19.6002 71.3378 19.3438 71.1911C19.3072 71.1544 19.2706 71.1544 19.2706 71.1177C19.0143 70.9709 18.7579 70.7875 18.465 70.6407C18.4284 70.6407 18.3917 70.6407 18.3917 70.6041C17.7692 70.2739 17.0734 70.017 16.3411 69.7602H16.3044C15.9749 69.6501 15.6453 69.5768 15.3157 69.4667C15.2059 69.4667 15.096 69.43 14.9861 69.43C14.7298 69.3566 14.4368 69.3199 14.1805 69.2466C14.034 69.2466 13.9242 69.2099 13.7777 69.2099C13.5214 69.1732 13.2284 69.1365 12.9355 69.0998C12.8256 69.0998 12.7157 69.0998 12.5693 69.0631C12.1664 69.0631 11.7636 69.0264 11.3608 69.0264C10.6284 69.0264 9.89605 69.0631 9.20028 69.1732C8.50451 69.2466 7.84536 69.3566 7.18622 69.5401C6.56369 69.6868 5.94116 69.907 5.35525 70.1271C4.22005 70.5674 3.23132 71.1544 2.46232 71.8515C1.32712 72.8788 0.667969 74.0895 0.667969 75.4103C0.667969 75.6305 0.667969 75.8506 0.704588 76.034C0.924304 77.3915 1.83979 78.6023 3.23132 79.5562C3.23132 79.5929 3.26794 79.5929 3.30456 79.6296C4.25667 80.2533 5.39187 80.8036 6.71016 81.1705C6.71016 81.1705 12.3129 82.7481 12.4594 82.8215C12.6425 82.8949 12.7524 82.9683 12.8622 83.0783C12.9355 83.1517 13.0087 83.2251 13.0453 83.2985C13.0819 83.3352 13.0819 83.3352 13.0819 83.3718C13.1552 83.4819 13.1918 83.5553 13.1918 83.6654C13.1918 84.2891 12.3495 84.766 11.3608 84.766C10.3355 84.766 9.52985 84.2891 9.52985 83.6654C9.52985 83.4452 9.52985 83.0416 9.52985 83.0416H0.704588C0.667969 83.2618 0.667969 83.4819 0.667969 83.6654C0.667969 85.3164 1.69331 86.7839 3.3778 87.9213C3.41442 87.9213 3.41442 87.958 3.45104 87.958C3.70738 88.1414 3.96371 88.2882 4.22005 88.4349C4.25667 88.4716 4.29329 88.4716 4.3299 88.5083C4.95243 88.8018 5.61158 89.0953 6.34397 89.3155C6.38059 89.3155 6.38059 89.3522 6.41721 89.3522C6.74678 89.4255 7.07636 89.5356 7.40593 89.609C7.51579 89.6457 7.62565 89.6457 7.69889 89.6824C7.99184 89.7557 8.24818 89.7924 8.54113 89.8291C8.65099 89.8658 8.79747 89.8658 8.90732 89.9025C9.20028 89.9392 9.45662 89.9759 9.74957 89.9759C9.89605 90.0126 10.0059 90.0126 10.1158 90.0126C10.5186 90.0493 10.9214 90.0493 11.3608 90.0493C17.2565 90.0493 22.0537 87.2242 22.0537 83.6654C22.0537 82.0877 21.1016 80.6569 19.4903 79.5195Z" fill="#7C7C7C"/>
<path d="M35.2 75.6305L23.5551 69.0998V89.9759H31.3184V83.0416L35.2 85.2063L39.1183 83.0416V89.9759H46.8816V69.0998L35.2 75.6305Z" fill="#7C7C7C"/>
<path d="M63.9365 89.9392H71.6998L60.0182 69.0264L48.3733 89.9392H56.1366L57.638 87.2976L62.4351 89.9759V87.2976H57.638L60.0182 82.9683L63.9365 89.9392Z" fill="#7C7C7C"/>
<path d="M96.518 77.8685C96.518 73.0255 92.1603 69.0998 86.8139 69.0998H73.1915V90.0126H80.9548V86.6372H86.8505L88.7547 90.0126H96.518L93.3687 84.3258C95.3096 82.7114 96.518 80.4367 96.518 77.8685ZM80.9548 76.034H86.8139C87.8758 76.034 88.7547 76.8412 88.7547 77.7951C88.7547 78.749 87.8758 79.5562 86.8139 79.5562H80.9548V76.034Z" fill="#7C7C7C"/>
<path d="M105.773 76.0707V89.9759H113.573V76.0707H121.336V69.0998H98.0097V76.0707H105.773Z" fill="#7C7C7C"/>
<path d="M149.11 69.0998H135.487V89.9759H143.251V86.6372H149.11C154.456 86.6372 158.814 82.7114 158.814 77.8685C158.814 73.0255 154.456 69.0998 149.11 69.0998ZM143.251 76.034H149.11C150.172 76.034 151.051 76.8412 151.051 77.7951C151.051 78.749 150.172 79.5562 149.11 79.5562H143.251V76.034Z" fill="#7C7C7C"/>
<path d="M168.069 83.0416V69.0998H160.305V89.9759H179.75V83.0416H168.069Z" fill="#7C7C7C"/>
<path d="M196.825 89.9392H204.588L192.906 69.0264L181.261 89.9392H189.025L190.526 87.2976L195.323 89.9759V87.2976H190.526L192.906 82.9683L196.825 89.9392Z" fill="#7C7C7C"/>
<path d="M223.184 69.0998H215.421L211.502 76.0707L207.621 69.0998H199.857L207.621 83.0416V89.9759H215.421V83.0416L223.184 69.0998Z" fill="#7C7C7C"/>
<path d="M232.439 76.0707H240.239L234.013 79.5562H240.239V76.0707H244.12V69.0998H224.675V89.9759H244.12V83.0416H232.439V76.0707Z" fill="#7C7C7C"/>
<path d="M268.958 77.8685C268.958 73.0255 264.6 69.0998 259.254 69.0998H245.631V90.0126H253.395V86.6372H259.29L261.195 90.0126H268.958L265.809 84.3258C267.75 82.7114 268.958 80.4367 268.958 77.8685ZM253.395 76.034H259.254C260.316 76.034 261.195 76.8412 261.195 77.7951C261.195 78.749 260.316 79.5562 259.254 79.5562H253.395V76.034Z" fill="#7C7C7C"/>
<path d="M289.272 79.5195C289.235 79.5195 289.235 79.4828 289.162 79.4828C288.247 78.8224 287.075 78.3088 285.793 77.9419C285.793 77.9419 280.19 76.3642 280.044 76.2909C279.861 76.2175 279.714 76.1074 279.604 75.9973C279.531 75.924 279.495 75.8873 279.458 75.8139C279.421 75.7772 279.421 75.7405 279.385 75.7405C279.348 75.6305 279.312 75.5204 279.312 75.4103C279.312 74.8233 280.117 74.3463 281.142 74.3463C282.131 74.3463 282.973 74.8233 282.973 75.4103C282.973 75.6671 282.973 76.034 282.973 76.034H291.799C291.835 75.8506 291.835 75.6305 291.835 75.4103C291.835 74.0528 291.103 72.7687 289.858 71.7414C289.638 71.558 289.382 71.3378 289.126 71.1911C289.089 71.1544 289.052 71.1544 289.052 71.1177C288.796 70.9709 288.54 70.7875 288.247 70.6407C288.21 70.6407 288.173 70.6407 288.173 70.6041C287.551 70.2739 286.855 70.017 286.123 69.7602H286.086C285.757 69.6501 285.427 69.5768 285.097 69.4667C284.988 69.4667 284.878 69.43 284.768 69.43C284.512 69.3566 284.219 69.3199 283.962 69.2466C283.816 69.2466 283.706 69.2099 283.559 69.2099C283.303 69.1732 283.01 69.1365 282.717 69.0998C282.607 69.0998 282.497 69.0998 282.351 69.0631C281.948 69.0631 281.545 69.0264 281.142 69.0264C280.41 69.0264 279.678 69.0631 278.982 69.1732C278.286 69.2466 277.627 69.3566 276.968 69.5401C276.345 69.6868 275.723 69.907 275.137 70.1271C274.002 70.5674 273.013 71.1544 272.244 71.8515C271.109 72.8788 270.45 74.0895 270.45 75.4103C270.45 75.6305 270.45 75.8506 270.486 76.034C270.706 77.3915 271.621 78.6023 273.013 79.5562C273.013 79.5929 273.05 79.5929 273.086 79.6296C274.038 80.2533 275.174 80.8036 276.492 81.1705C276.492 81.1705 282.095 82.7481 282.241 82.8215C282.424 82.8949 282.534 82.9683 282.644 83.0783C282.717 83.1517 282.79 83.2251 282.827 83.2985C282.864 83.3352 282.864 83.3352 282.864 83.3718C282.937 83.4819 282.973 83.5553 282.973 83.6654C282.973 84.2891 282.131 84.766 281.142 84.766C280.117 84.766 279.312 84.2891 279.312 83.6654C279.312 83.4452 279.312 83.0416 279.312 83.0416H270.486C270.45 83.2618 270.45 83.4819 270.45 83.6654C270.45 85.3164 271.475 86.7839 273.159 87.9213C273.196 87.9213 273.196 87.958 273.233 87.958C273.489 88.1414 273.745 88.2882 274.002 88.4349C274.038 88.4716 274.075 88.4716 274.112 88.5083C274.734 88.8018 275.393 89.0953 276.126 89.3155C276.162 89.3155 276.162 89.3522 276.199 89.3522C276.528 89.4255 276.858 89.5356 277.188 89.609C277.297 89.6457 277.407 89.6457 277.481 89.6824C277.774 89.7557 278.03 89.7924 278.323 89.8291C278.433 89.8658 278.579 89.8658 278.689 89.9025C278.982 89.9392 279.238 89.9759 279.531 89.9759C279.678 90.0126 279.788 90.0126 279.897 90.0126C280.3 90.0493 280.703 90.0493 281.142 90.0493C287.038 90.0493 291.835 87.2242 291.835 83.6654C291.835 82.0877 290.883 80.6569 289.272 79.5195Z" fill="#7C7C7C"/>
<path d="M313.759 76.0707V89.9759H321.559V76.0707H329.323V69.0998H305.996V76.0707H313.759Z" fill="#7C7C7C"/>
<path d="M338.578 76.0707H346.378L340.152 79.5562H346.378V76.0707H350.259V69.0998H330.814V89.9759H350.259V83.0416H338.578V76.0707Z" fill="#7C7C7C"/>
<path d="M367.334 89.9392H375.097L363.415 69.0264L351.77 89.9392H359.534L361.035 87.2976L365.832 89.9759V87.2976H361.035L363.415 82.9683L367.334 89.9392Z" fill="#7C7C7C"/>
<path d="M388.234 75.6305L376.589 69.0998V89.9759H384.352V83.0416L388.234 85.2063L392.152 83.0416V89.9759H399.915V69.0998L388.234 75.6305Z" fill="#7C7C7C"/>
<path d="M46.1958 22.2012C48.5927 19.9598 50.1108 16.8379 50.1108 13.4759C50.1108 6.59167 43.8788 1.0683 36.2886 1.0683C29.5773 1.0683 1.53352 1.0683 1.53352 1.0683V46.6161C1.53352 46.6161 30.1366 46.6161 37.4871 46.6161C45.7164 46.6161 52.4278 40.6124 52.4278 33.1679C52.4278 28.6051 49.951 24.6027 46.1958 22.2012ZM18.4716 11.6347H29.9768C32.0541 11.6347 33.8118 13.2357 33.8118 15.0768C33.8118 16.998 32.0541 18.599 29.9768 18.599H18.4716V11.6347ZM31.5747 36.0496H18.4716V29.1654H31.5747C33.652 29.1654 35.4098 30.6864 35.4098 32.6075C35.4098 34.5287 33.652 36.0496 31.5747 36.0496Z" fill="#FCAE00"/>
<path d="M72.6204 16.2776H98.1075V1.0683H55.6823V46.6161H98.1075V31.4869H89.6385V23.8822H76.056L89.6385 31.4869H72.6204V16.2776Z" fill="#FCAE00"/>
<path d="M118.343 16.2776H143.83V1.0683H101.404V46.6161H143.83V31.4869H135.361V23.8822H121.778L135.361 31.4869H118.343V16.2776Z" fill="#FCAE00"/>
<path d="M219.41 22.2012C221.806 19.9598 223.324 16.8379 223.324 13.4759C223.324 6.59167 217.093 1.0683 209.502 1.0683C202.791 1.0683 174.747 1.0683 174.747 1.0683V46.6161C174.747 46.6161 203.35 46.6161 210.701 46.6161C218.93 46.6161 225.641 40.6124 225.641 33.1679C225.641 28.6051 223.165 24.6027 219.41 22.2012ZM191.685 11.6347H203.191C205.268 11.6347 207.026 13.2357 207.026 15.0768C207.026 16.998 205.268 18.599 203.191 18.599H191.685V11.6347ZM204.788 36.0496H191.685V29.1654H204.788C206.866 29.1654 208.623 30.6864 208.623 32.6075C208.623 34.5287 206.866 36.0496 204.788 36.0496Z" fill="#FCAE00"/>
<path d="M245.834 46.6161V1.0683H228.896V46.6161H245.834Z" fill="#FCAE00"/>
<path d="M264.365 27.8847L297.841 46.6161V1.0683H282.501V19.7997L249.104 1.0683V46.6161H264.365V27.8847Z" fill="#FCAE00"/>
<path d="M336.541 23.8822V27.9647C334.863 30.126 332.067 31.4869 328.791 31.4869C323.677 31.4869 319.603 28.1248 319.603 23.8822C319.603 19.6396 323.677 16.1975 328.791 16.1975C332.067 16.1975 334.863 17.6384 336.541 19.7197L352.041 11.4747C347.167 5.15079 338.538 0.908203 328.791 0.908203C313.53 0.908203 301.146 11.2345 301.146 23.8822C301.146 36.5299 313.53 46.7762 328.791 46.7762C338.538 46.7762 347.167 42.6137 352.041 36.2898V23.8822H336.541Z" fill="#FCAE00"/>
<path d="M380.702 0.908203C366.641 0.908203 355.295 11.1545 355.295 23.8822C355.295 36.5299 366.641 46.7762 380.702 46.7762C394.844 46.7762 406.189 36.5299 406.189 23.8822C406.189 11.1545 394.844 0.908203 380.702 0.908203ZM380.702 31.4869C376.068 31.4869 372.233 28.0448 372.233 23.8822C372.233 19.6396 376.068 16.1975 380.702 16.1975C385.416 16.1975 389.251 19.6396 389.251 23.8822C389.251 28.0448 385.416 31.4869 380.702 31.4869Z" fill="#FCAE00"/>
</svg>
