<svg width="166" height="38" viewBox="0 0 166 38" fill="none" xmlns="http://www.w3.org/2000/svg">
<path fill-rule="evenodd" clip-rule="evenodd" d="M22.0708 28.9156C21.8361 28.9156 21.6484 28.837 21.5076 28.6797C21.3903 28.5224 21.3551 28.3314 21.402 28.1067L24.9218 12.1989C24.9687 11.9743 25.0861 11.7833 25.2738 11.626C25.485 11.4687 25.7079 11.3901 25.9425 11.3901H28.864C29.1221 11.3901 29.3098 11.4687 29.4271 11.626C29.5445 11.7833 29.5796 11.9743 29.5327 12.1989L26.0129 28.1067C25.966 28.3314 25.8487 28.5224 25.661 28.6797C25.4732 28.837 25.2503 28.9156 24.9922 28.9156H22.0708ZM26.4353 8.49162C26.2007 8.49162 26.0129 8.41298 25.8721 8.2557C25.7548 8.09842 25.7196 7.90744 25.7665 7.68275L26.3297 5.25614C26.3766 5.03145 26.494 4.84047 26.6817 4.68319C26.8694 4.52591 27.0923 4.44727 27.3505 4.44727H30.5535C30.7881 4.44727 30.9758 4.52591 31.1166 4.68319C31.2574 4.84047 31.3043 5.03145 31.2574 5.25614L30.6943 7.68275C30.6473 7.90744 30.5183 8.09842 30.3071 8.2557C30.1194 8.41298 29.9082 8.49162 29.6735 8.49162H26.4353ZM0.724071 28.9156C0.465953 28.9156 0.266498 28.837 0.125707 28.6797C0.00838043 28.5224 -0.0268174 28.3314 0.0201131 28.1067L4.91262 6.16612C4.95955 5.91896 5.07688 5.71674 5.2646 5.55946C5.45232 5.40218 5.67524 5.32354 5.93336 5.32354H15.8592C17.5956 5.32354 19.027 5.6044 20.1533 6.16612C21.3031 6.70536 22.1127 7.45806 22.582 8.42421C23.0513 9.39037 23.1451 10.5138 22.8635 11.7945C22.6524 12.6933 22.3121 13.4684 21.8428 14.12C21.397 14.7491 20.9042 15.2659 20.3645 15.6704C19.8248 16.0523 19.3086 16.3444 18.8158 16.5466C19.6371 16.996 20.2941 17.6813 20.7869 18.6025C21.3031 19.5237 21.4204 20.6359 21.1388 21.9391C20.8338 23.2872 20.2941 24.4893 19.5197 25.5453C18.7454 26.6013 17.7012 27.4327 16.3871 28.0393C15.0731 28.6235 13.454 28.9156 11.5298 28.9156H0.724071ZM5.51098 25.3431H11.389C12.6092 25.3431 13.6417 25.0173 14.4864 24.3657C15.3312 23.6917 15.8592 22.8828 16.0704 21.9391C16.2815 20.9505 16.1642 20.1304 15.7184 19.4788C15.2725 18.8272 14.3457 18.5014 12.9377 18.5014H7.05969L5.51098 25.3431ZM7.83405 14.9963H13.2545C14.4513 14.9963 15.4485 14.7154 16.2463 14.1537C17.0442 13.5695 17.5604 12.8168 17.795 11.8956C18.0062 10.9519 17.8889 10.2105 17.4431 9.67122C16.9972 9.13198 16.1642 8.86235 14.944 8.86235H9.20676L7.83405 14.9963ZM28.3244 28.6797C28.4652 28.837 28.653 28.9156 28.8876 28.9156H31.985C32.2197 28.9156 32.4309 28.837 32.6186 28.6797C32.8063 28.5224 32.9236 28.3314 32.9706 28.1067L35.012 18.8384C35.3171 17.5352 35.9272 16.5129 36.8423 15.7715C37.7809 15.03 38.919 14.6593 40.2565 14.6593C41.6175 14.6593 42.474 15.0188 42.826 15.7378C43.2014 16.4343 43.2366 17.4678 42.9316 18.8384L40.8901 28.1067C40.8432 28.3314 40.8784 28.5224 40.9957 28.6797C41.1365 28.837 41.3242 28.9156 41.5588 28.9156H44.6563C44.9144 28.9156 45.1373 28.837 45.325 28.6797C45.5127 28.5224 45.6301 28.3314 45.677 28.1067L47.7889 18.6362C48.1409 17.0634 48.1526 15.7153 47.8241 14.5919C47.519 13.4684 46.8855 12.6034 45.9234 11.9967C44.9613 11.3676 43.6825 11.053 42.0868 11.053C40.7962 11.053 39.6347 11.3002 38.6022 11.7945C37.5932 12.2664 36.7133 12.8618 35.9624 13.5808L36.2792 12.1989C36.3261 11.9743 36.2909 11.7833 36.1736 11.626C36.0562 11.4687 35.8803 11.3901 35.6456 11.3901H32.7594C32.5247 11.3901 32.3018 11.4687 32.0906 11.626C31.9029 11.7833 31.7856 11.9743 31.7386 12.1989L28.2189 28.1067C28.1719 28.3314 28.2071 28.5224 28.3244 28.6797ZM54.2661 36.3303C52.647 36.3303 51.3212 36.1168 50.2888 35.6899C49.2797 35.263 48.4937 34.7462 47.9305 34.1396C47.3673 33.5329 47.0036 32.9263 46.8394 32.3196C46.6516 31.7354 46.593 31.2748 46.6634 30.9378C46.7103 30.7131 46.8159 30.5109 46.9802 30.3311C47.1444 30.1739 47.3439 30.0952 47.5785 30.0952H50.7463C50.981 30.0952 51.157 30.1402 51.2743 30.23C51.3916 30.3424 51.462 30.5334 51.4855 30.803C51.5324 31.0951 51.6263 31.4096 51.7671 31.7467C51.9313 32.0837 52.2246 32.3646 52.647 32.5892C53.0694 32.8364 53.7029 32.96 54.5477 32.96C55.3455 32.96 56.0847 32.8364 56.7652 32.5892C57.4691 32.3421 58.0675 31.9264 58.5603 31.3422C59.0765 30.758 59.4519 29.9492 59.6866 28.9156L60.1794 26.6238C59.4754 27.2754 58.6893 27.8034 57.8211 28.2079C56.9529 28.6123 55.8852 28.8145 54.6181 28.8145C53.3275 28.8145 52.2481 28.6235 51.3799 28.2416C50.5117 27.8371 49.8312 27.2866 49.3384 26.5901C48.8691 25.8711 48.5641 25.0285 48.4233 24.0624C48.3059 23.0962 48.3411 22.029 48.5289 20.8606C48.5758 20.5236 48.6227 20.2203 48.6697 19.9506C48.74 19.681 48.8222 19.3777 48.916 19.0406C49.2445 17.9172 49.6552 16.8724 50.148 15.9063C50.6642 14.9401 51.286 14.0975 52.0134 13.3786C52.7409 12.6371 53.5974 12.0641 54.5829 11.6597C55.5684 11.2553 56.7065 11.053 57.9971 11.053C59.3346 11.053 60.4375 11.3002 61.3057 11.7945C62.1974 12.2664 62.8544 12.8618 63.2768 13.5808L63.5584 12.2326C63.6053 11.9855 63.7226 11.7833 63.9103 11.626C64.1215 11.4687 64.3562 11.3901 64.6143 11.3901H67.4301C67.6882 11.3901 67.876 11.4687 67.9933 11.626C68.1341 11.7833 68.181 11.9855 68.1341 12.2326L64.5439 28.4775C64.2858 29.6908 63.8986 30.7805 63.3824 31.7467C62.8896 32.7128 62.2326 33.5329 61.4113 34.207C60.6135 34.9035 59.6279 35.4315 58.4547 35.791C57.2814 36.1505 55.8852 36.3303 54.2661 36.3303ZM56.1668 25.242C57.1289 25.242 57.9619 25.0398 58.6658 24.6353C59.3698 24.2309 59.9564 23.7029 60.4257 23.0513C60.8951 22.3997 61.2236 21.7369 61.4113 21.0628C61.4817 20.7707 61.5638 20.4 61.6577 19.9506C61.7515 19.5013 61.8219 19.1418 61.8689 18.8721C61.9862 18.1756 61.9745 17.5128 61.8337 16.8837C61.7163 16.2321 61.4113 15.7041 60.9185 15.2996C60.4492 14.8727 59.7335 14.6593 58.7714 14.6593C57.8563 14.6593 57.0585 14.8727 56.378 15.2996C55.6975 15.7041 55.1343 16.2433 54.6885 16.9174C54.2661 17.5914 53.9376 18.3329 53.7029 19.1418L53.4918 19.9506C53.4214 20.2203 53.3627 20.5011 53.3158 20.7932C53.1984 21.5796 53.175 22.3211 53.2454 23.0176C53.3158 23.6917 53.5739 24.2309 54.0197 24.6353C54.489 25.0398 55.2047 25.242 56.1668 25.242ZM137.587 28.9158C135.991 28.9158 134.748 28.6799 133.856 28.208C132.964 27.7362 132.389 27.0397 132.131 26.1185C131.873 25.1748 131.897 24.0064 132.202 22.6133L133.926 14.9628H131.146C130.911 14.9628 130.723 14.8841 130.583 14.7268C130.465 14.5696 130.43 14.3673 130.477 14.1202L130.899 12.1991C130.946 11.9744 131.064 11.7835 131.251 11.6262C131.463 11.4689 131.697 11.3902 131.955 11.3902H134.701L135.968 5.79555C136.015 5.57087 136.132 5.37989 136.32 5.22261C136.508 5.06532 136.719 4.98668 136.953 4.98668H139.805C140.063 4.98668 140.25 5.06532 140.368 5.22261C140.508 5.37989 140.555 5.57087 140.508 5.79555L139.241 11.3902H143.641C143.876 11.3902 144.052 11.4689 144.169 11.6262C144.31 11.7835 144.357 11.9744 144.31 12.1991L143.887 14.1202C143.841 14.3673 143.711 14.5696 143.5 14.7268C143.313 14.8841 143.101 14.9628 142.867 14.9628H138.467L136.848 22.2763C136.707 22.883 136.625 23.411 136.602 23.8604C136.602 24.2873 136.731 24.6243 136.989 24.8714C137.247 25.0961 137.704 25.2085 138.361 25.2085H140.896C141.154 25.2085 141.341 25.2871 141.459 25.4444C141.576 25.6017 141.611 25.7927 141.564 26.0173L141.107 28.1069C141.06 28.3316 140.943 28.5226 140.755 28.6799C140.567 28.8372 140.344 28.9158 140.086 28.9158H137.587ZM90.4293 28.6799C90.5701 28.8372 90.7696 28.9158 91.0277 28.9158H101.833C103.758 28.9158 105.377 28.6237 106.691 28.0395C108.005 27.4329 109.049 26.6015 109.823 25.5455C110.598 24.4895 111.137 23.2874 111.442 21.9393C111.724 20.6361 111.607 19.5239 111.09 18.6027C110.598 17.6815 109.941 16.9962 109.119 16.5468C109.612 16.3446 110.128 16.0525 110.668 15.6705C111.208 15.2661 111.701 14.7493 112.146 14.1202C112.616 13.4686 112.956 12.6934 113.167 11.7947C113.449 10.514 113.355 9.39054 112.886 8.42439C112.416 7.45824 111.607 6.70554 110.457 6.16629C109.331 5.60457 107.899 5.32371 106.163 5.32371H96.237C95.9789 5.32371 95.7559 5.40235 95.5682 5.55963C95.3805 5.71691 95.2632 5.91913 95.2162 6.16629L90.3237 28.1069C90.2768 28.3316 90.312 28.5226 90.4293 28.6799ZM101.693 25.3433H95.8146L97.3633 18.5016H103.241C104.649 18.5016 105.576 18.8274 106.022 19.479C106.468 20.1306 106.585 20.9507 106.374 21.9393C106.163 22.883 105.635 23.6918 104.79 24.3659C103.945 25.0175 102.913 25.3433 101.693 25.3433ZM103.558 14.9965H98.1377L99.5104 8.86253H105.248C106.468 8.86253 107.301 9.13215 107.747 9.6714C108.193 10.2106 108.31 10.9521 108.099 11.8958C107.864 12.817 107.348 13.5697 106.55 14.1539C105.752 14.7156 104.755 14.9965 103.558 14.9965ZM115.507 28.2754C116.657 28.927 118.088 29.2528 119.801 29.2528C121.115 29.2528 122.312 29.0956 123.391 28.781C124.494 28.444 125.445 28.0283 126.242 27.534C127.04 27.0397 127.674 26.5341 128.143 26.0173C128.612 25.5006 128.906 25.0624 129.023 24.7029C129.07 24.5007 129.035 24.3322 128.917 24.1974C128.8 24.0626 128.636 23.9952 128.425 23.9952H125.362C125.104 23.9952 124.905 24.0289 124.764 24.0963C124.623 24.1412 124.412 24.2985 124.13 24.5681C123.966 24.7254 123.72 24.9276 123.391 25.1748C123.086 25.4219 122.687 25.6466 122.195 25.8488C121.702 26.0286 121.127 26.1185 120.47 26.1185C119.672 26.1185 119.027 25.9162 118.534 25.5118C118.065 25.1074 117.76 24.5794 117.619 23.9278C117.478 23.2537 117.466 22.5235 117.584 21.7371C117.607 21.6921 117.619 21.636 117.619 21.5686L117.654 21.4674H129.34C129.598 21.4674 129.821 21.3888 130.009 21.2315C130.22 21.0742 130.349 20.8833 130.396 20.6586L130.572 19.9508C130.924 18.1983 130.912 16.6591 130.536 15.3335C130.184 13.9854 129.457 12.9406 128.354 12.1991C127.251 11.4352 125.75 11.0532 123.849 11.0532C122.136 11.0532 120.564 11.3902 119.132 12.0643C117.724 12.7159 116.528 13.6596 115.542 14.8954C114.557 16.1087 113.829 17.5691 113.36 19.2767C113.29 19.479 113.219 19.7598 113.149 20.1193L112.973 20.9619C112.668 22.7145 112.726 24.2086 113.149 25.4444C113.595 26.6802 114.381 27.6239 115.507 28.2754ZM126.066 18.6364H118.288L118.323 18.5353C118.534 17.659 118.863 16.8951 119.308 16.2435C119.754 15.5694 120.306 15.0526 120.963 14.6931C121.62 14.3112 122.359 14.1202 123.18 14.1202C124.001 14.1202 124.658 14.3112 125.151 14.6931C125.667 15.0526 126.008 15.5694 126.172 16.2435C126.36 16.8951 126.336 17.659 126.102 18.5353L126.066 18.6364ZM79.4205 9.47175L79.3745 9.05583C79.343 9.05583 79.3151 9.05233 79.2801 9.03834C78.6542 9.04883 78.0352 9.1048 77.4232 9.22375C74.9929 9.69602 72.9228 10.8225 71.2967 12.6941C69.251 15.0519 68.4747 17.7946 68.9888 20.8766C69.2965 22.7342 70.1287 24.3609 71.3946 25.7498C73.4263 27.9782 75.986 29.0941 78.9759 29.2621C79.8921 29.3145 80.8012 29.2341 81.6999 29.0417C84.1618 28.5134 86.2319 27.31 87.8195 25.3509C89.533 23.2415 90.2568 20.8136 89.9806 18.1025C89.8827 17.1229 89.6274 16.1819 89.2217 15.2828C88.1377 12.876 86.3718 11.1408 83.9834 10.0284C83.8876 9.98171 83.7879 9.93891 83.6872 9.89568L83.6858 9.89507L83.6852 9.89481L83.6846 9.89455C83.6502 9.87979 83.6157 9.86498 83.5813 9.84994C83.3994 10.1648 83.2211 10.4726 83.0392 10.784C83.055 10.791 83.0672 10.7971 83.0777 10.8024C83.0882 10.8076 83.0969 10.812 83.1057 10.8155C84.6583 11.4627 85.9836 12.4212 87.0117 13.7541C88.6727 15.909 89.2812 18.3263 88.7217 21.0026C88.386 22.5978 87.6481 23.9936 86.5256 25.176C84.7772 27.0161 82.6231 27.9992 80.0984 28.1881C79.1682 28.258 78.245 28.1846 77.3323 27.9817C75.1643 27.4989 73.3424 26.4354 71.9436 24.7003C70.3246 22.6922 69.6811 20.3938 70.0658 17.8366C70.3176 16.1714 71.003 14.6951 72.1115 13.4217C73.3843 11.9594 74.9684 10.9939 76.8288 10.4691C77.6645 10.2348 78.5213 10.1263 79.3885 10.1088C79.415 10.1088 79.4415 10.1063 79.4722 10.1035L79.4899 10.1018C79.4668 9.88981 79.4437 9.68158 79.4207 9.47336L79.4205 9.47175ZM75.9992 26.4959C76.0755 26.347 76.1509 26.2005 76.2255 26.0554C76.3561 25.8016 76.4844 25.5523 76.6112 25.3029C76.7654 25.0031 76.9197 24.7024 77.0739 24.4017C77.2274 24.1025 77.3809 23.8032 77.5344 23.5048C77.6972 23.1866 77.8606 22.869 78.0241 22.5512L78.0244 22.5507L78.0245 22.5504L78.0246 22.5501C78.2438 22.1242 78.4632 21.6979 78.6814 21.2694C78.7093 21.2169 78.7373 21.1994 78.7968 21.2134C78.9296 21.2449 79.0625 21.2694 79.1989 21.2904C79.2513 21.2974 79.2723 21.3184 79.2758 21.3708C79.2877 21.5936 79.3027 21.8165 79.3178 22.0382L79.3178 22.0387L79.3178 22.0392L79.3178 22.0396L79.3179 22.0401L79.3179 22.0405L79.3179 22.0408L79.318 22.0426L79.3285 22.1977L79.3388 22.3539C79.3528 22.5743 79.3659 22.7955 79.379 23.0168C79.3921 23.2381 79.4052 23.4593 79.4192 23.6797C79.4314 23.8933 79.4446 24.107 79.4577 24.3206C79.4708 24.5338 79.4839 24.7469 79.4961 24.9601L79.5011 25.037L79.5012 25.0397C79.5275 25.4501 79.5536 25.8577 79.5766 26.2685C79.594 26.5378 79.608 26.8072 79.622 27.0801C79.622 27.0976 79.594 27.1325 79.5731 27.136C79.5241 27.1465 79.4752 27.1465 79.4262 27.143C79.2749 27.1352 79.1233 27.1298 78.9717 27.1244L78.9715 27.1244C78.5838 27.1107 78.1962 27.0969 77.8141 27.0416C77.5101 26.9974 77.2118 26.903 76.9137 26.8086C76.8106 26.7759 76.7075 26.7433 76.6042 26.7127C76.4551 26.6716 76.3098 26.6153 76.1613 26.5578L76.0944 26.532L76.0558 26.5172L75.9992 26.4959ZM73.3893 21.4529C72.8144 21.6375 72.2388 21.8223 71.6628 22.0074C71.9356 22.9275 73.0791 24.5996 73.6666 24.9425C74.3933 24.1727 75.12 23.4019 75.8457 22.6322L75.8508 22.6269L75.8935 22.5815C76.5172 21.9201 77.14 21.2595 77.7614 20.6011C77.6565 20.4437 77.5551 20.2967 77.4502 20.1463C76.1072 20.5803 74.7556 21.0142 73.4003 21.4494L73.3915 21.4522L73.3893 21.4529ZM87.7867 18.9877C87.9126 19.7294 87.5734 21.461 87.1118 22.4441C87.0331 22.4073 86.9543 22.3714 86.8756 22.3356C86.797 22.2997 86.7183 22.2639 86.6397 22.2272C85.8092 21.8389 84.9796 21.4506 84.1499 21.0622C83.3203 20.6739 82.4906 20.2856 81.6601 19.8973C81.5902 19.8623 81.5657 19.8308 81.5902 19.7539C81.6217 19.6384 81.6462 19.523 81.6636 19.404C81.6741 19.3446 81.6986 19.3201 81.7581 19.3166C82.0938 19.2991 82.426 19.2816 82.7617 19.2606C83.0047 19.2466 83.2469 19.2335 83.489 19.2204C83.7312 19.2073 83.9733 19.1941 84.2164 19.1802C84.4524 19.1679 84.6876 19.1548 84.9227 19.1417C85.1579 19.1286 85.3931 19.1154 85.6291 19.1032L87.0838 19.0192C87.3181 19.0122 87.5524 19.0017 87.7867 18.9877ZM77.2706 18.5705L77.29 18.4704C75.4646 17.6169 73.6217 16.7563 71.7754 15.8957C71.3522 17.0116 70.9956 18.1346 71.0935 19.3485C71.1027 19.3485 71.111 19.3495 71.1188 19.3504C71.1257 19.3512 71.1323 19.352 71.1389 19.352C71.2966 19.3435 71.4551 19.3342 71.614 19.3249C71.7829 19.315 71.9522 19.3051 72.1216 19.296L73.5868 19.2121C74.0483 19.1841 74.5098 19.1596 74.9713 19.1351L74.9715 19.1351C75.2163 19.1211 75.462 19.108 75.7077 19.0949C75.9533 19.0818 76.1989 19.0686 76.4437 19.0547C76.5525 19.0496 76.6622 19.0436 76.7722 19.0377L76.7725 19.0377L76.7727 19.0377L76.7729 19.0376L76.7731 19.0376L76.7738 19.0376C76.8896 19.0313 77.0059 19.025 77.1221 19.0197C77.1781 19.0162 77.199 18.9952 77.206 18.9357C77.2227 18.8164 77.2459 18.6972 77.2705 18.5709L77.2705 18.5708L77.2706 18.5705ZM82.4198 26.593C81.9728 25.3565 81.5259 24.1245 81.081 22.8983L81.0782 22.8906C80.8558 22.2774 80.6338 21.6655 80.4126 21.0552C80.478 21.0145 80.5428 20.9738 80.608 20.9328C80.6996 20.8752 80.7921 20.8171 80.8881 20.7578C82.3988 22.0522 83.9199 23.3571 85.4516 24.6725C84.6053 25.575 83.5947 26.2047 82.4198 26.593ZM84.3607 17.2738L84.3634 17.273C85.3147 16.9591 86.2687 16.6445 87.2243 16.3298C86.7837 15.1964 86.0983 14.2518 85.2101 13.4402C84.059 14.6621 82.9104 15.879 81.7684 17.0889L81.7462 17.1125L81.1047 17.7921L81.1346 17.8346C81.2319 17.9727 81.3242 18.1037 81.4194 18.2434C82.3966 17.9217 83.3773 17.5982 84.3607 17.2738ZM73.4406 13.6669C73.9931 12.9952 75.6192 11.9702 76.4724 11.7533C76.814 12.698 77.1565 13.6418 77.4985 14.5842L77.5053 14.603L77.509 14.6129C77.8322 15.5035 78.155 16.3929 78.4761 17.2807L78.433 17.3078C78.2882 17.3991 78.1504 17.486 78.004 17.5815C76.4899 16.2836 74.9687 14.9788 73.4406 13.6669ZM80.573 7.98257C80.3422 7.93709 80.1429 8.10501 80.1464 8.36039C80.1464 8.36738 80.1499 8.39187 80.1534 8.41986C80.1691 8.58428 80.1857 8.74958 80.2023 8.91487C80.2189 9.08017 80.2355 9.24546 80.2513 9.40988L80.3142 10.0746L80.3772 10.7392L80.3874 10.8465C80.4225 11.2136 80.4578 11.5834 80.4961 11.9531C80.51 12.1106 80.524 12.268 80.5485 12.4219C80.573 12.5584 80.6884 12.6598 80.8143 12.6773C80.9646 12.6983 81.0556 12.6493 81.136 12.5094L81.2063 12.3853L81.2072 12.3837C81.2617 12.2876 81.3168 12.1903 81.3703 12.0931C81.6728 11.5579 81.9744 11.0226 82.276 10.4874C82.5776 9.95214 82.8792 9.41689 83.1817 8.88164C83.2411 8.78018 83.2376 8.68223 83.1782 8.58428C83.1222 8.48983 83.0243 8.45834 82.9229 8.43735C82.1396 8.28343 81.3563 8.133 80.573 7.98257ZM79.2501 11.2084H79.5333C79.5823 11.2084 79.5963 11.2259 79.5997 11.2749C79.6108 11.3729 79.6217 11.4708 79.6325 11.5688C79.6663 11.8729 79.6999 12.1766 79.7396 12.4783C79.8096 13.0171 80.3026 13.4439 80.8446 13.4474C81.3377 13.4509 81.6979 13.227 81.9462 12.8037C82.0522 12.62 82.1592 12.4373 82.2672 12.253C82.3588 12.0967 82.4511 11.9391 82.5441 11.7787C82.5884 11.7964 82.6321 11.8135 82.6762 11.8308L82.6769 11.831C82.737 11.8546 82.7979 11.8784 82.8623 11.9046C82.8396 11.9483 82.8178 11.9921 82.7959 12.0358C82.774 12.0795 82.7522 12.1233 82.7295 12.167C82.3833 12.8384 82.0387 13.5097 81.6936 14.1822C81.5262 14.5083 81.3587 14.8348 81.1908 15.1615C81.0789 15.3796 80.9667 15.5976 80.8544 15.8157C80.6298 16.2518 80.4052 16.688 80.1837 17.1241C80.1558 17.1836 80.1243 17.1975 80.0613 17.1801C79.932 17.1486 79.7991 17.1241 79.6697 17.1031C79.6137 17.0961 79.5893 17.0716 79.5858 17.0156C79.5751 16.8048 79.5627 16.5939 79.5503 16.3835L79.5502 16.3823C79.5382 16.1777 79.5262 15.9735 79.5158 15.7702C79.5014 15.5344 79.488 15.2985 79.4745 15.0622L79.474 15.0546C79.4614 14.8342 79.4488 14.6135 79.4354 14.3919C79.4235 14.1781 79.4108 13.9643 79.3981 13.75L79.3981 13.7494C79.3846 13.5222 79.3711 13.2946 79.3585 13.066L79.2745 11.6807C79.2675 11.5268 79.2606 11.3729 79.2501 11.2084ZM78.6627 18.0654C78.2641 18.3243 78.0647 18.6986 78.0403 19.2338C78.0461 19.259 78.0516 19.2892 78.0577 19.3228C78.0738 19.4107 78.0942 19.5219 78.1347 19.6257C78.369 20.2589 79.0544 20.6087 79.7537 20.4687C80.7189 20.2763 81.1595 19.1744 80.586 18.3978C80.1489 17.81 79.2852 17.6561 78.6627 18.0654Z" fill="url(#paint0_linear_143_220)"/>
<defs>
<linearGradient id="paint0_linear_143_220" x1="72.1637" y1="4.44727" x2="72.1637" y2="36.3303" gradientUnits="userSpaceOnUse">
<stop stop-color="#FE8900"/>
<stop offset="1" stop-color="#FDD800" stop-opacity="0.6"/>
</linearGradient>
</defs>
</svg>
