<svg width="90" height="90" viewBox="0 0 90 90" fill="none" xmlns="http://www.w3.org/2000/svg">
<path fill-rule="evenodd" clip-rule="evenodd" d="M48.1937 18.6092L46.9235 19.6399L45.7114 20.7431L44.5066 21.8826L43.3235 23.0802L42.2058 24.3286L41.0663 25.6133L39.9485 26.9415L38.8816 28.3205L37.8364 29.7286L36.8203 31.1802L35.8187 32.6318L34.8679 34.1342L33.9534 35.6512L33.0606 37.2044L32.2114 38.7721L31.4058 40.3617L30.68 41.9729L29.9542 43.5842L29.2284 45.1955L28.5897 46.8358L27.9945 48.4617L27.4356 50.102L26.9348 51.7423L26.4848 53.3681L26.0711 54.9939L25.7227 56.5979L25.4179 58.1947L25.1784 59.7915L24.9824 61.3375L24.859 62.8834L24.7937 64.4221V65.8738L24.859 67.3254L24.9752 68.7117L25.1566 70.0326L25.3961 71.2665L25.6937 72.4568L26.0348 73.5746L26.4413 74.6197L26.884 75.5923L27.4066 76.4996L27.9582 77.327L28.5606 78.0963L29.2211 78.7859L29.9469 79.41L30.6727 79.9399L31.4566 80.4117L32.2985 80.7963L33.1768 81.1229L34.0695 81.3407L35.0131 81.5076L36.0074 81.5875H37.0235L38.076 81.5221L39.1501 81.3334L40.2679 81.1012L41.4074 80.76L42.5687 80.3246L43.7518 79.8165L44.9711 79.2286L46.205 78.5028L47.4679 77.777L48.738 76.8915L50.0372 75.9625L51.3147 74.9246L52.5993 73.8213L53.8405 72.6746L55.0598 71.4552L56.2864 70.185L57.4768 68.8858L58.6308 67.4996L59.7485 66.048L60.8518 64.5963L61.9332 63.1012L62.9639 61.577L63.9582 60.002L64.9235 58.4125L65.8526 56.8157L66.7526 55.1609L67.5872 53.506L68.3784 51.8294L69.1042 50.1455L69.83 48.4544L70.4977 46.7487L71.1074 45.0504L71.6663 43.3447L72.1671 41.6536L72.6243 39.9625L73.0163 38.2859L73.3719 36.6237L73.6332 34.9762L73.8582 33.3576L74.0251 31.7536L74.105 30.1858L74.1485 28.6471L74.105 27.1375L74.0106 25.6859L73.8509 24.2996L73.6187 22.9931L73.3284 21.7665L72.98 20.6125L72.5953 19.5165L72.1308 18.5149L71.6227 17.5786L71.0566 16.7149L70.4469 15.9383L69.7937 15.2125L69.0679 14.5883L68.3421 14.0367L67.5509 13.5504L66.7308 13.1512L65.8671 12.8463L64.9671 12.5923L63.98 12.5052L63.0219 12.4326H62.0276L60.9897 12.4979L59.9372 12.6504L58.8558 12.8826L57.738 13.1947L56.6058 13.5867L55.459 14.0657L54.2832 14.6173L53.0856 15.256L51.888 15.9818L50.6614 16.7802L49.4203 17.6512L48.1937 18.6092Z" fill="#515151"/>
<path fill-rule="evenodd" clip-rule="evenodd" d="M24.3799 76.6379L32.7121 81.1596L33.0315 81.2685L33.9533 81.5008L34.8968 81.6532L35.8912 81.733H36.9L37.9525 81.6241L39.0339 81.4862L39.6218 81.3411L40.1517 81.2032L41.2839 80.8693L41.6323 80.7532L42.4597 80.4556L43.65 79.9403L44.8694 79.3379L46.1033 78.6629L47.3517 77.8717L48.6218 76.9935L49.921 76.05L51.2275 75.0193L52.4904 73.9161L53.7678 72.7766L54.9871 71.5427L56.192 70.2725L57.3823 68.9516L58.5436 67.5653L59.6686 66.1137L60.7791 64.6621L61.8388 63.1669L62.8912 61.6282L63.8783 60.0532L64.8581 58.4782L65.7871 56.8451L66.6654 55.2048L67.5146 53.5282L68.3275 51.8734L69.0533 50.1677L69.7791 48.4621L70.4468 46.7564L71.0638 45.0435L71.6299 43.3524L72.138 41.654L72.588 39.9556L72.9871 38.2717L73.3355 36.6169L73.6113 34.9548L73.8363 33.329L73.996 31.7395L74.0904 30.1572V28.6113V28.4734L74.0541 27.1451V26.4774L73.9888 25.6863L73.8218 24.3145L73.6113 22.9935L73.3283 21.7669L72.9799 20.6056L72.5807 19.5169L72.1234 18.5008L71.6081 17.5863L71.0565 16.7371L70.4396 15.9459L69.7936 15.2201L69.0678 14.5887L68.342 14.0371L67.8629 13.754L60.6049 9.63867L61.396 10.1105L62.1218 10.6621L62.8476 11.3008L63.5081 12.0266L64.1033 12.8105L64.6621 13.6742L65.1702 14.6032L65.6347 15.6121L66.0267 16.6935L66.3678 17.8548L66.6581 19.0959L66.8904 20.4096L67.0428 21.7887L67.1371 23.2403L67.1807 24.7572L67.1444 26.2959L67.05 27.8709L66.8976 29.4822L66.6581 31.1008L66.3823 32.7484L66.0484 34.4177L65.642 36.1016L65.1847 37.7927L64.6839 39.4984L64.1105 41.204L63.4936 42.9096L62.8331 44.6008L62.1073 46.3064L61.3452 48.0048L60.5396 49.6814L59.6976 51.3435L58.8194 52.9911L57.9049 54.6024L56.925 56.1919L55.9307 57.7596L54.8928 59.2983L53.8186 60.7717L52.7009 62.2233L51.5759 63.6241L50.4 65.0104L49.2097 66.3241L48.0121 67.6233L46.7928 68.8354L45.5299 70.004L44.2525 71.0927L42.975 72.1233L41.6759 73.0959L40.3984 73.9524L39.15 74.7363L37.9089 75.4185L36.6896 76.0137L35.5065 76.529L34.3307 76.95L33.1912 77.2911L32.0879 77.5379L31.0065 77.7048L29.9541 77.8064H28.9234L27.9436 77.7411L27 77.5669L26.0855 77.3346L25.2073 77.0225L24.3799 76.6379Z" fill="url(#paint0_linear_142_887)"/>
<path d="M36.9365 82.1033H35.884L34.8679 82.0234L33.8953 81.871L32.5961 81.5081L24.2058 76.9573C24.164 76.9352 24.1271 76.9051 24.0971 76.8685C24.0671 76.832 24.0447 76.7899 24.0312 76.7446C24.0177 76.6994 24.0133 76.6518 24.0184 76.6049C24.0234 76.5579 24.0378 76.5124 24.0606 76.471C24.1042 76.3874 24.1781 76.3236 24.2671 76.2926C24.3561 76.2616 24.4536 76.2657 24.5397 76.3041L25.3671 76.7033L26.2018 77.0009L27.0873 77.2259L28.009 77.3928L28.9526 77.4509H29.9397L30.9631 77.3565L32.03 77.1896L33.1042 76.9428L34.2219 76.6089L35.376 76.1952L36.5373 75.6872L37.7421 75.0993L38.9687 74.4242L40.1953 73.6476L41.4655 72.8057L42.7502 71.8404L44.0203 70.817L45.2832 69.7355L46.5389 68.5743L47.751 67.3767L48.9558 66.1065L50.1389 64.7928L51.3002 63.421L52.4252 62.0202L53.5357 60.5686L54.5953 59.117L55.626 57.5855L57.6002 54.4428L58.5219 52.8243L59.3929 51.1912L61.0332 47.8597L61.759 46.1759L62.4848 44.4775L63.1381 42.7936L63.755 41.0952L64.3284 39.3968L64.8219 37.7057L65.2792 36.0218L65.6856 34.3452L66.0123 32.6904L66.5203 29.446L66.6727 27.8493L66.7671 26.296L66.8034 24.7646L66.7598 23.2694L66.6655 21.8178L66.5131 20.4533L66.2808 19.1686L65.9977 17.942L65.6639 16.8025L65.2792 15.7428L64.8292 14.763L64.3284 13.8557L63.784 13.021L63.2034 12.2952L62.5719 11.613L61.8824 10.996L61.1566 10.4662L60.3945 10.0162C60.3134 9.96653 60.2549 9.88697 60.2319 9.79466C60.2088 9.70234 60.2229 9.60467 60.2711 9.52265C60.3197 9.44044 60.3982 9.38017 60.4902 9.35447C60.5822 9.32877 60.6805 9.33963 60.7647 9.38475L68.5236 13.7904L69.2929 14.3638L70.0187 15.017L70.6865 15.7428L71.3252 16.5557L71.8913 17.4339L72.4211 18.392L72.8929 19.4299L73.2994 20.5404L73.6477 21.7307L73.9453 22.9791L74.1631 24.3218L74.3953 26.4993V27.1743L74.4389 28.6912V30.2589L74.3445 31.8557L74.1848 33.4597L73.9744 35.0057L73.6986 36.6751L73.3502 38.3517L72.951 40.0864L72.4937 41.7993L71.9856 43.5049L70.7953 46.9307L70.1276 48.6509L68.676 52.0694L67.0066 55.4226L66.1211 57.0702L65.1848 58.7105L63.1961 61.8605L62.1437 63.4065L61.0768 64.9017L59.9663 66.3533L58.834 67.8049L57.6655 69.1912L56.4679 70.5267L55.2703 71.8041L54.0437 73.038L51.4889 75.3025L50.1461 76.3767L47.5623 78.2057L46.2994 79.0041L45.0437 79.6936L43.8171 80.3033L42.605 80.8259L41.4002 81.2541L39.1211 81.8783L36.9365 82.1033ZM27.8276 78.0896L32.9082 80.8404L33.1695 80.9202L34.0695 81.1525L34.9695 81.2904L35.9421 81.3702H36.9219L39.0123 81.1307L41.5381 80.4049L42.3582 80.1073L43.534 79.5993L44.7316 79.0041L45.951 78.3363L47.1848 77.5525L49.7324 75.7525L51.0244 74.7291L53.5502 72.4936L54.755 71.2815L55.9526 70.0186L57.1357 68.6976L58.2897 67.3259L59.4074 65.9178L60.5106 64.4662L62.6155 61.4468L64.5679 58.3041L65.4969 56.6855L66.3679 55.0597L68.0227 51.7355L69.4744 48.346L70.1348 46.6476L71.3179 43.2581L71.8187 41.5743L72.2687 39.8831L72.6606 38.2138L73.009 36.5662L73.2776 34.9186L73.5098 33.3001L73.6623 31.7323L73.7566 30.1573V28.6259L73.6115 25.7226L73.4518 24.3654L73.2413 23.0589L72.9582 21.8541L72.6171 20.7146L72.2252 19.6476L71.7824 18.6533L71.2744 17.746L70.7373 16.9186L70.1421 16.1565L69.5107 15.4743L68.8357 14.8718L68.1098 14.3347L67.6671 14.0735L63.8494 11.896L64.3574 12.5565L64.9308 13.4347L65.4534 14.3928L65.9252 15.4235L66.3316 16.5339L66.68 17.717L66.9703 18.9799L67.2098 20.3081L67.3695 21.7162L67.4639 23.1678L67.5074 24.6993L67.4711 26.2597L67.3768 27.842L67.2171 29.4678L66.7018 32.7557L66.3679 34.4396L65.9542 36.138L65.5042 37.8363L64.9961 39.5493L64.4227 41.2694L63.7986 42.9823L63.1381 44.6807L62.4123 46.3936L61.6865 48.1065L60.0316 51.4597L59.1534 53.1509L58.2244 54.7912L56.2356 57.963L55.1977 59.5089L54.1163 61.0186L52.9986 62.4702L51.8663 63.8855L50.6832 65.2718L49.4639 66.5928L48.2445 67.8775L47.0106 69.0896L45.7405 70.2726L44.4558 71.3686L43.1711 72.4065L41.8574 73.3864L40.5655 74.2501L39.3098 75.0412L38.0469 75.767L36.8131 76.3694L35.6155 76.892L34.4179 77.3202L33.2566 77.6686L32.1316 77.9226L31.0284 78.0968L29.9469 78.1984H28.9018L27.8276 78.0896Z" fill="url(#paint1_linear_142_887)"/>
<path fill-rule="evenodd" clip-rule="evenodd" d="M65.5258 15.3658L72.4863 19.3069L72.1161 18.4868L71.6008 17.5867L71.0492 16.7376L70.4323 15.9464L69.7863 15.2206L69.0605 14.5892L68.3347 14.0376L67.8702 13.769L60.7573 9.74805L60.9823 9.87869L61.2 10.0166L61.4177 10.1545L61.6282 10.3069L61.8315 10.4521L62.0492 10.6118L62.2379 10.7859L62.4484 10.9529L62.6444 11.1271L62.8331 11.323L63.0145 11.5118L63.2105 11.7077L63.3919 11.9182L63.5589 12.1069L63.7403 12.3319L63.9073 12.5496L64.0815 12.7819L64.2339 13.0069L64.3935 13.2609L64.546 13.5005L64.6984 13.7617L64.8508 14.0085L64.996 14.2626L65.1266 14.5456L65.2573 14.8214L65.3952 15.09L65.5113 15.3876L65.5258 15.3658ZM37.5532 75.6077L44.6444 79.4545L44.8694 79.3384L46.1032 78.6634L47.3516 77.8722L48.6218 76.9795L49.921 76.0432L51.2274 75.0271L52.4831 73.9238L53.7677 72.7843L54.9871 71.5505L55.4081 71.0932L48.375 67.2464L48.0411 67.5803L47.729 67.9214L47.4024 68.248L47.0613 68.5601L46.7274 68.8867L46.3935 69.2206L46.0452 69.5182L45.7185 69.8376L45.3702 70.1351L45.0363 70.4327L44.7024 70.7303L44.3468 71.0061L44.0129 71.3037L43.6573 71.5722L43.3161 71.8408L42.9677 72.1021L42.6194 72.3851L42.271 72.6319L41.9153 72.9005L41.5742 73.14L41.2331 73.3722L40.8847 73.6045L40.5435 73.8222L40.2242 74.0472L39.8831 74.265L39.5274 74.4537L39.1935 74.6642L38.8669 74.8746L38.5403 75.0488L38.2137 75.2375L37.8726 75.3972L37.5532 75.5859V75.6077ZM61.3887 47.8964L68.3637 51.7577L69.0895 50.1972L69.8153 48.4916L70.4831 46.7859L71.0927 45.073L71.6661 43.3819L72.1742 41.6835L72.6242 39.9851L73.0234 38.3085L73.3645 36.6464V36.5811L66.4113 32.6835L66.3315 33.1408L66.2371 33.6198L66.1427 34.0771L66.0339 34.5561L65.925 35.0206L65.8089 35.4924L65.6782 35.9714L65.5694 36.4432L65.4387 36.915L65.3081 37.394L65.1702 37.873L65.0323 38.3448L64.8944 38.8093L64.7492 39.3029L64.604 39.7819L64.4371 40.2609L64.2919 40.7255L64.1105 41.2117L63.9508 41.698L63.7839 42.1771L63.6024 42.6488L63.4282 43.1351L63.2323 43.6142L63.0508 44.0859L62.8621 44.565L62.6661 45.0368L62.4629 45.5158L62.2597 45.9948L62.0637 46.4738L61.8532 46.9384L61.6573 47.4246L61.3887 47.8964Z" fill="#515151"/>
<path d="M44.6445 79.8168C44.586 79.8172 44.5285 79.8022 44.4776 79.7733L37.3792 75.9265C37.3224 75.8946 37.2751 75.8482 37.242 75.7922C37.2088 75.7361 37.1911 75.6723 37.1905 75.6072C37.1893 75.5435 37.2056 75.4808 37.2376 75.4258C37.2696 75.3708 37.3161 75.3255 37.3719 75.2951L41.7268 72.6241L45.501 69.583L48.1284 67.0063C48.1853 66.9514 48.2582 66.9162 48.3366 66.9057C48.415 66.8953 48.4946 66.9102 48.5639 66.9483L55.5969 70.7951C55.6435 70.8238 55.6836 70.8619 55.7148 70.9068C55.746 70.9518 55.7677 71.0027 55.7784 71.0563C55.7884 71.1104 55.7858 71.1661 55.7707 71.219C55.7556 71.2719 55.7284 71.3206 55.6913 71.3612L55.2703 71.8184L54.0365 73.0596L51.4816 75.3241L50.1606 76.3475L47.5768 78.191L46.3139 78.9894L44.8623 79.7951C44.7939 79.8255 44.7176 79.8332 44.6445 79.8168ZM38.301 75.5926L44.6518 79.0475L45.9292 78.3217L47.1631 77.5451L49.7106 75.7233L51.0026 74.7217L53.5284 72.4862L54.8276 71.1725L48.4405 67.6741L46.6477 69.4596L42.8445 72.6459L40.0719 74.5475L38.301 75.5926ZM68.3348 52.1201C68.2717 52.1204 68.2095 52.1054 68.1534 52.0765L61.1856 48.208C61.1033 48.1632 61.0415 48.0884 61.0131 47.9991C60.9847 47.9098 60.9919 47.813 61.0332 47.7289L61.2655 47.2644L63.8857 40.6015L65.1558 36.3483L65.9905 32.6249C66.0007 32.5673 66.0245 32.5129 66.0598 32.4662C66.0951 32.4195 66.141 32.3819 66.1937 32.3564C66.2453 32.3296 66.3026 32.3157 66.3607 32.3157C66.4188 32.3157 66.476 32.3296 66.5276 32.3564L73.4808 36.2467C73.5373 36.2784 73.584 36.3248 73.616 36.3811C73.6479 36.4374 73.6639 36.5013 73.6623 36.566C73.6659 36.6119 73.6659 36.658 73.6623 36.7039L73.3139 38.366L72.9365 40.0862L72.4865 41.7918L71.9784 43.4975L70.7881 46.9233L70.1203 48.6434L69.3945 50.3491L68.6687 51.9241C68.648 51.9701 68.618 52.0113 68.5805 52.045C68.543 52.0788 68.4989 52.1043 68.451 52.1201H68.3348ZM61.8389 47.7652L68.1607 51.2709L68.705 50.0733L69.4308 48.3749L70.0913 46.6765L71.2744 43.287L71.7752 41.6031L72.2179 39.912L72.6171 38.2426L72.9219 36.791L66.6292 33.2709L65.6058 37.5096L63.7115 43.316L61.8389 47.7652ZM72.4574 19.691C72.3939 19.6878 72.3319 19.6704 72.276 19.6402L65.4316 15.7136C65.3831 15.6984 65.3389 15.6722 65.3023 15.6369C65.2658 15.6016 65.238 15.5583 65.2211 15.5104L64.7131 14.4072L63.4647 12.5055L62.3977 11.337L61.2219 10.408L60.5905 10.0233C60.5083 9.97469 60.448 9.89622 60.4223 9.80424C60.3966 9.71226 60.4075 9.61391 60.4526 9.52974C60.4754 9.48772 60.5062 9.45062 60.5434 9.42056C60.5806 9.3905 60.6233 9.36809 60.6692 9.3546C60.7151 9.34111 60.7631 9.3368 60.8107 9.34195C60.8582 9.3471 60.9042 9.3616 60.9461 9.38459L61.2002 9.52974L68.5308 13.6814L69.3074 14.262L70.0332 14.908L70.7082 15.6338L71.3469 16.4467L71.9131 17.3249L72.4429 18.283L72.8276 19.1249C72.8592 19.1941 72.8679 19.2716 72.8522 19.3461C72.8365 19.4206 72.7974 19.488 72.7405 19.5386C72.7089 19.5761 72.6702 19.607 72.6266 19.6294C72.583 19.6519 72.5353 19.6654 72.4865 19.6693L72.4574 19.691ZM65.78 15.133L71.6373 18.4426L71.2526 17.7168L70.7155 16.8894L70.1494 16.1346L69.5179 15.4523L68.8429 14.8499L68.1171 14.3128L63.8857 11.9249L64.5389 12.7886L65.3082 14.066L65.78 15.133Z" fill="url(#paint2_linear_142_887)"/>
<path fill-rule="evenodd" clip-rule="evenodd" d="M41.2186 14.6246L39.963 15.6625L38.7364 16.773L37.546 17.9198L36.3993 19.1174L35.2452 20.373L34.1202 21.6722L33.0025 23.0004L31.9283 24.3867L30.8759 25.7875L29.867 27.2392L28.8726 28.6908L27.9073 30.2077L26.9638 31.7609L26.071 33.3141L25.2291 34.8891L24.4017 36.4569L23.6251 38.0609L22.8993 39.6795L22.1735 41.3125L21.5202 42.9456L20.9106 44.5714L20.3589 46.2117L19.8436 47.8448L19.4009 49.4851L18.9726 51.1037L18.6243 52.7077L18.3267 54.319L18.0654 55.894L17.8767 57.4617L17.7388 59.0077L17.6589 60.5391V61.9908V63.4424L17.7678 64.8214L17.9347 66.1279L18.1597 67.3835L18.4501 68.5593L18.7767 69.6698L19.1759 70.7077L19.6259 71.6803L20.1339 72.5803L20.6638 73.415L21.2662 74.1771L21.9122 74.9029L22.638 75.5125L23.3638 76.0279L24.1476 76.5069L24.9678 76.8843L25.8315 77.1964L26.7243 77.4287L27.6823 77.5883L28.6549 77.6392H29.6565L30.6944 77.5375L31.7614 77.3633L32.8718 77.1093L33.9896 76.7537L35.1581 76.3327L36.3485 75.8174L37.5678 75.2222L38.7872 74.4964L40.0356 73.7125L41.3057 72.8416L42.5977 71.898L43.8751 70.8456L45.1525 69.7351L46.3864 68.5883L47.6202 67.3617L48.8396 66.0916L50.0081 64.7706L51.1694 63.3771L52.2944 61.9762L53.3977 60.5246L54.4719 59.015L55.5025 57.469L56.5114 55.9158L57.4622 54.3045L58.4057 52.6859L59.2912 51.0529L60.1331 49.3835L60.9533 47.7069L61.6791 46.0158L62.4049 44.3101L63.0654 42.619L63.6896 40.9061L64.263 39.2004L64.771 37.5093L65.221 35.8182L65.6275 34.1416L65.9759 32.4722L66.2589 30.8319L66.4839 29.2133L66.6654 27.6021L66.7525 26.0343L66.796 24.4883V22.9859L66.709 21.5343L66.5565 20.148L66.3315 18.8488L66.0702 17.6222L65.7291 16.4682L65.359 15.4085L64.9162 14.3924L64.4154 13.4633L63.8638 12.6141L63.2614 11.8303L62.6227 11.1408L61.8969 10.5093L61.171 9.97222L60.4452 9.50043L59.6323 9.10124L58.7759 8.78915L57.8831 8.54962L56.9468 8.39721L55.9743 8.31738H54.9799L53.9565 8.39721L52.9114 8.55689L51.8154 8.80366L50.7267 9.11575L49.6017 9.51496L48.4622 9.99399L47.2791 10.5601L46.1106 11.1988L44.8985 11.9246L43.6573 12.7593L42.4235 13.6448L41.2186 14.6246Z" fill="url(#paint3_linear_142_887)"/>
<path d="M28.6914 78.0314L27.7043 77.9806L26.6954 77.8136L25.7736 77.5741L24.8881 77.2548L24.0317 76.8701L23.2115 76.3693L22.4857 75.8394L21.7599 75.2007L21.0849 74.4749L20.468 73.6838L19.9164 72.8201L19.3938 71.9056L18.9293 70.904L18.5301 69.837L18.1889 68.7048L17.8986 67.5072L17.6664 66.237L17.4994 64.9088L17.3833 63.5153V62.0274V60.5394L17.4631 58.9935L17.601 57.433L17.797 55.858L18.3486 52.6499L18.7043 51.0314L19.5825 47.758L20.6567 44.4628L21.9268 41.1822L23.3785 37.9161L24.1551 36.3048L25.8244 33.1257L27.6389 30.0265L28.6115 28.5096L29.6059 27.058L30.622 25.6064L32.7631 22.8048L35.0131 20.1556L36.1744 18.8927L37.3648 17.6878L38.5623 16.5338L39.8035 15.4161L41.0664 14.3636L42.3002 13.3911L43.5414 12.4983L44.7752 11.6781L45.9946 10.9523L47.1777 10.3064L48.3752 9.73299L49.5293 9.24672L50.6761 8.84027L51.7938 8.51364L52.9043 8.26687L53.9785 8.10719L55.0236 8.02734H56.0253L57.0269 8.10719L57.9922 8.26687L58.9212 8.51364L59.8067 8.833L60.6559 9.24672L61.447 9.73299L62.2164 10.2919L62.9422 10.9451L63.6027 11.6709L64.2269 12.4765L64.8003 13.3548L65.3156 14.3128L65.7728 15.3507L66.172 16.454L66.5204 17.6298L66.789 18.8854L67.014 20.1919L67.1736 21.5999L67.2607 23.0515V24.5685L67.2172 26.129L67.1301 27.7112L66.9486 29.337L66.7236 30.9701L66.4333 32.6249L66.0849 34.3015L65.6785 35.9854L65.2212 37.6911L64.7132 39.3967L64.1398 41.1096L63.5083 42.8298L62.8406 44.5354L62.1148 46.2483L61.389 47.9467L59.6253 51.2564L58.7325 52.904L56.8309 56.1411L54.7769 59.262L53.7027 60.779L52.5922 62.2306L50.2986 65.0395L49.1156 66.3677L47.918 67.6669L46.6841 68.908L45.4357 70.062L44.1438 71.1798L42.8664 72.2395L41.5527 73.1903L40.2825 74.0685L39.0196 74.8596L37.7857 75.5854L36.5446 76.1951L35.3398 76.7177L34.1494 77.1459L33.0172 77.5088L31.8777 77.7628L30.7962 77.9515L29.7293 78.0459L28.6914 78.0314ZM41.4438 14.8862L40.1954 15.9241L38.976 17.0274L37.8002 18.1669L36.6172 19.3572L35.4704 20.6056L33.2422 23.2257L31.1301 25.9911L30.1285 27.4427L29.1414 28.8943L28.176 30.404L26.3833 33.4741L24.7285 36.6241L23.9518 38.2209L22.5438 41.4507L21.2881 44.6951L20.2285 47.954L19.3648 51.1983L19.0091 52.7806L18.4648 55.9524L18.2543 57.5056L18.1236 59.037L18.0438 60.554V62.0056V63.4572L18.1527 64.8145L18.3196 66.1064L18.5446 67.3403L18.8204 68.4943L19.147 69.583L19.5389 70.6064L19.9744 71.5499L20.468 72.4282L20.9906 73.2411L21.5712 73.9669L22.2027 74.6346L22.8704 75.2225L23.5962 75.7161L24.3583 76.1806L25.1422 76.5362L25.9769 76.8265L26.8406 77.0588L27.7623 77.2112L28.6914 77.2548H29.6785L30.6873 77.1532L31.7252 76.979L32.814 76.7395L33.9027 76.3838L35.0567 75.9701L36.2252 75.462L37.4301 74.8741L38.6277 74.1919L39.8833 73.4733L41.1317 72.6096L42.4164 71.6733L43.6793 70.6354L44.9494 69.5322L46.1761 68.3854L47.4027 67.1661L48.6148 65.9032L49.7761 64.5967L52.0478 61.8169L53.1438 60.3653L54.2107 58.8628L56.243 55.7709L58.1301 52.5628L59.0156 50.937L60.6632 47.6056L61.389 45.929L62.1148 44.2306L62.7753 42.5467L63.3922 40.8411L63.9583 39.1427L64.4664 37.4661L64.9164 35.7822L65.3156 34.1128L65.664 32.458L65.947 30.8322L66.1575 29.1991L66.3317 27.5951L66.4188 26.0491L66.4624 24.5104V23.0588L66.3825 21.6072L66.2228 20.2427L66.0051 18.958L65.7438 17.7532L65.4099 16.6209L65.0253 15.5612L64.5898 14.5669L64.1035 13.6669L63.5664 12.8395L62.9785 12.1136L62.3615 11.4459L61.6938 10.8362L60.968 10.3209L60.2422 9.8709L59.4583 9.48622L58.6382 9.18864L57.7744 8.96364L56.8744 8.81123L55.9309 8.73864H54.9873L53.993 8.81849L52.9769 8.97091L51.9027 9.21041L50.8357 9.52253L49.7253 9.91445L48.6075 10.3862L47.4462 10.9451L46.2922 11.5765L45.0946 12.3024L43.8898 13.1007L42.6631 13.9572L41.4438 14.8862Z" fill="url(#paint4_linear_142_887)"/>
<path fill-rule="evenodd" clip-rule="evenodd" d="M41.5162 22.5721L40.6163 23.2979L39.7308 24.1181L38.8671 24.9455L38.0179 25.8092L37.1832 26.7092L36.3993 27.6164L35.5937 28.589L34.8316 29.5906L34.055 30.5995L33.3292 31.6447L32.6033 32.7116L31.8775 33.7858L31.2025 34.8963L30.5711 36.014L29.9542 37.1535L29.3662 38.3003L28.8146 39.4543L28.2848 40.6302L27.784 41.7987L27.3195 42.9818L26.8767 44.1648L26.4921 45.3261L26.1146 46.5164L25.7953 47.6995L25.4977 48.8753L25.2292 50.0221L25.0259 51.1834L24.8517 52.3229L24.7138 53.4261L24.6267 54.5584L24.5759 55.6471V56.7285L24.6122 57.7519L24.6921 58.739L24.8154 59.6898L24.9824 60.5971L25.2001 61.4318L25.4469 62.2301L25.7445 62.956L26.0711 63.6818L26.434 64.3205L26.8259 64.9156L27.2687 65.46L27.7404 65.9535L28.234 66.389L28.7711 66.7592L29.3372 67.0931L29.9324 67.3616L30.5566 67.5721L31.2025 67.71L31.8848 67.8406H32.6106H33.3364L34.0622 67.7463L34.8388 67.6301L35.63 67.4342L36.4429 67.1729L37.2775 66.8753L38.1122 66.5124L38.9904 66.0624L39.8687 65.5689L40.7759 65.0027L41.6687 64.3785L42.5904 63.6527L43.5195 62.9269L44.4122 62.1431L45.305 61.3084L46.1904 60.4374L47.0469 59.5156L47.8961 58.5866L48.709 57.5922L49.5219 56.5834L50.2985 55.5455L51.0679 54.4713L51.7937 53.3826L52.5195 52.2576L53.2453 51.1326L53.8985 49.964L54.5445 48.7955L55.1469 47.6124L55.7203 46.4293L56.2719 45.2173L56.7872 44.0051L57.2517 42.8003L57.6945 41.5737L58.1009 40.3616L58.4711 39.1568L58.7977 37.9447L59.0735 36.7398L59.3348 35.5568L59.538 34.3737L59.6977 33.2124L59.8283 32.0656L59.8864 30.9624L59.9372 29.8519V28.7632L59.8792 27.7253L59.7558 26.7382L59.6106 25.7947L59.4219 24.9164L59.1751 24.0818L58.8993 23.3124L58.5872 22.5866L58.1735 21.9406L57.7888 21.3237L57.3679 20.7503L56.9033 20.2495L56.4098 19.7922L55.8872 19.3858L55.3356 19.0447L54.7477 18.7543L54.1235 18.5148L53.4993 18.3479L52.8243 18.2172L52.1493 18.1592H51.4235L50.6977 18.21L49.9719 18.3043L49.2025 18.4713L48.4114 18.6963L47.5912 18.9793L46.7638 19.306L45.9364 19.7197L45.08 20.1769L44.209 20.6777L43.338 21.2584L42.4453 21.8971L41.5162 22.5721Z" fill="#515151"/>
<path fill-rule="evenodd" clip-rule="evenodd" d="M41.0517 22.3115L40.1662 23.0373L39.2952 23.8284L38.417 24.6559L37.5751 25.5268L36.7476 26.4268L35.9275 27.3486L35.1363 28.3139L34.3525 29.3155L33.6267 30.3317L32.9009 31.3696L32.1751 32.4365L31.4855 33.5179L30.8105 34.6357L30.1791 35.7462L29.5694 36.8857L28.9815 38.0325L28.4081 39.1938L27.8783 40.355L27.392 41.5309L26.913 42.7139L26.4847 43.8897L26.0783 45.0655L25.7009 46.2341L25.3815 47.4171L25.0984 48.5857L24.8226 49.747L24.5976 50.901L24.4307 52.0405L24.2855 53.151L24.1839 54.2687L24.1404 55.3429V56.4244L24.1839 57.4696L24.2638 58.4567L24.3872 59.4002L24.5468 60.2784L24.7501 61.1349L24.9896 61.9188L25.2726 62.6446L25.6065 63.3704L25.9622 64.0091L26.3541 64.6042L26.7823 65.1486L27.2468 65.6204L27.7404 66.0486L28.2702 66.426L28.8363 66.7526L29.417 67.0139L30.0339 67.2389L30.6726 67.3913L31.3476 67.4784H32.0734H32.7993L33.5251 67.4131L34.3017 67.2825L35.0928 67.0792L35.8984 66.8252L36.7259 66.5349L37.5678 66.1502L38.4315 65.6929L39.2952 65.2067L40.188 64.6405L41.0952 64.0163L42.0025 63.3268L42.9243 62.601L43.8315 61.8099L44.7097 60.9752L45.588 60.1115L46.4444 59.1897L47.2936 58.2389L48.1065 57.2591L48.9122 56.2502L49.6888 55.205L50.4509 54.1309L51.1767 53.0276L51.9025 51.9026L52.6283 50.7776L53.296 49.6163L53.9347 48.4478L54.5226 47.2647L55.1033 46.0744L55.6476 44.8768L56.163 43.6647L56.642 42.4381L57.0775 41.2333L57.4839 40.0212L57.8613 38.8091L58.1807 37.597L58.4783 36.4067L58.7251 35.2236L58.9283 34.0478L59.1097 32.8865L59.2331 31.747L59.3202 30.6292V29.5188V28.4446L59.2622 27.4067L59.1751 26.4123L59.0226 25.4833L58.8339 24.6123L58.6017 23.7776L58.3331 22.9938L58.0283 22.2679L57.6654 21.6002L57.2952 20.9833L56.867 20.4244L56.417 19.9163L55.9234 19.4591L55.4009 19.0744L54.8565 18.7188L54.2831 18.4429L53.6807 18.2034L53.042 18.0438L52.3815 17.9204L51.721 17.8623H50.9952L50.2694 17.9204L49.5436 18.0365L48.7743 18.1962L47.9831 18.4284L47.1847 18.7115L46.3646 19.0381L45.5299 19.4518L44.6807 19.9091L43.8243 20.4244L42.946 21.005L42.0605 21.6365L41.0517 22.3115Z" fill="#515151"/>
<path d="M32.0445 67.8769H31.3187L30.5929 67.7826L29.9179 67.6302L29.2574 67.3907L28.6622 67.1221L28.0598 66.7737L27.501 66.3818L26.9856 65.9318L26.4921 65.4382L26.0421 64.8648L25.6284 64.2407L25.2655 63.5874L24.9171 62.8616L24.6195 62.1358L24.3727 61.3229L24.1695 60.4519L24.0026 59.552L23.8719 58.5939L23.7993 57.5778L23.7485 56.5253L23.8139 54.3479L24.0606 52.0907L24.2348 50.9366L24.4598 49.7681L25.0187 47.4237L25.3453 46.2334L26.1364 43.86L26.5719 42.677L27.5372 40.3108L28.0743 39.135L29.2429 36.8124L30.484 34.5479L31.863 32.3342L32.5889 31.2673L34.0913 29.1915L34.8751 28.1826L35.6808 27.21L37.3356 25.3737L38.1848 24.4955L39.9485 22.8624L40.8485 22.1003L41.7413 21.3745L42.6413 20.7286L44.3977 19.6181L46.1106 18.7326L46.9598 18.3915L47.7727 18.1084L48.5784 17.8689L49.3695 17.702L50.1388 17.5858L50.8646 17.5205H51.5905L52.3163 17.5786L53.0421 17.7092L53.7025 17.8761L54.3485 18.1229L54.9509 18.4132L55.5388 18.7907L56.0759 19.1899L56.5985 19.6689L57.0703 20.206L57.513 20.7866L57.9122 21.4326L58.2824 22.1149L58.6017 22.8407L58.8848 23.6463L59.1243 24.5028L59.3058 25.3955L59.4654 26.3391L59.6179 28.4149V29.5036V30.614L59.5308 31.7608L59.4074 32.9076L59.0154 35.2665L58.7687 36.4713L58.1445 38.8882L57.3534 41.3342L56.9179 42.5463L56.4388 43.7802L55.3719 46.2044L54.1888 48.5923L53.5501 49.7753L52.1856 52.0761L50.734 54.3189L49.1808 56.4528L47.5477 58.456L45.8348 60.3431L44.0638 62.056L43.1421 62.8616L41.2985 64.3132L40.3695 64.9519L39.4695 65.5253L37.713 66.4761L36.8566 66.8753L35.18 67.4342L34.3671 67.6374L33.5614 67.7753L32.8356 67.8479L32.0445 67.8769ZM41.313 22.5939L39.5348 24.1181L38.6638 24.9382L37.0163 26.6947L36.2034 27.6165L35.4122 28.5673L33.8953 30.5632L33.1695 31.6011L31.7905 33.735L30.4913 35.9487L29.3082 38.2205L28.7348 39.3745L28.2122 40.5286L27.2542 42.8657L26.4268 45.2028L26.0493 46.364L25.4469 48.6939L25.1784 49.8479L24.9606 50.9874L24.6485 53.2157L24.5469 54.3261L24.4816 56.4528L24.605 58.4487L24.7284 59.3705L24.8881 60.2342L25.084 61.0689L25.3163 61.831L25.5921 62.5568L25.9114 63.2245L26.2598 63.8342L26.6372 64.4149L27.0437 64.9302L27.4864 65.3729L27.9582 65.7794L28.459 66.135L28.9961 66.4471L29.5405 66.6866L30.1356 66.9044L30.7308 67.0423L31.3695 67.1221H32.0372L33.438 67.0277L34.1638 66.8971L34.9332 66.7084L36.53 66.1713L37.3429 65.8011L39.0485 64.8721L39.9195 64.3132L40.8195 63.6963L42.6195 62.2447L43.5195 61.4608L45.2614 59.777L46.9453 57.9261L48.5566 55.952L50.088 53.8471L51.5396 51.6697L52.8896 49.3907L53.5211 48.2294L54.6824 45.8705L55.7348 43.4753L56.2138 42.2632L57.0413 39.8608L57.4187 38.6632L58.0284 36.2753L58.2751 35.1068L58.6598 32.7842L58.7832 31.6665L58.863 30.556V29.4673V28.4076L58.7179 26.4044L58.5654 25.4971L58.384 24.6407L58.159 23.835L57.8904 23.1092L57.6001 22.3834L57.2517 21.7374L56.8888 21.1423L56.4824 20.6124L56.0542 20.1261L55.5824 19.6979L54.5663 18.9721L54.0292 18.7181L53.4558 18.4931L52.8534 18.3407L52.2219 18.2245L51.5905 18.1665H50.8646L50.1751 18.2245L49.4493 18.3407L48.7235 18.4931L47.9977 18.7181L47.2211 18.9939L46.4155 19.3133L44.7606 20.1697L43.055 21.2512L42.184 21.8753L41.313 22.5939Z" fill="url(#paint5_linear_142_887)"/>
<path fill-rule="evenodd" clip-rule="evenodd" d="M43.7226 23.4581L44.0129 20.9105L43.8242 21.0121L43.65 21.121L43.4686 21.2444L43.2871 21.3678L43.1057 21.4839L42.9242 21.6L42.7355 21.7379L42.554 21.8686L42.3726 21.992L42.1984 22.1299L42.0097 22.2605L41.8282 22.3984L41.6395 22.5363L41.4799 22.667L41.2911 22.8194L41.1097 22.9573L40.921 23.1097L40.7468 23.2694L40.5653 23.4073L40.3766 23.5742L40.1952 23.7339L40.021 23.8936L39.8323 24.0533L39.6508 24.2202L39.4694 24.3799L39.2879 24.5541L39.0992 24.7355L38.925 24.8952L38.7508 25.0767L38.5766 25.2508L38.3879 25.4323L38.2137 25.6065L38.5911 27.6097L38.7436 27.45L38.9032 27.2904L39.0557 27.1452L39.2153 26.9928L39.3678 26.8404L39.5274 26.6879L39.6944 26.5428L39.8468 26.3976L40.0065 26.2525L40.1734 26.1L40.3621 25.9549L40.5218 25.817L40.6887 25.6718L40.8557 25.5412L41.0153 25.4105L41.175 25.2726L41.3347 25.142L41.5089 25.0041L41.6686 24.8807L41.8282 24.7646L41.9952 24.6412L42.1476 24.525L42.3218 24.4017L42.4742 24.2855L42.6266 24.1767L42.7936 24.0605L42.946 23.9589L43.1057 23.85L43.2726 23.7557L43.4178 23.6396L43.5992 23.5597L43.7589 23.4509L43.7226 23.4581ZM36.1089 30.3896L35.3831 28.7492L35.0492 29.1702L34.7081 29.6057L34.3887 30.0339L34.0621 30.4767L33.7355 30.9267L33.4161 31.3839L33.0968 31.8339L32.7702 32.3057L32.625 32.538L32.4799 32.7629L32.3202 33.0025L32.1678 33.2347L32.0153 33.4742L31.8629 33.721L31.7178 33.9533L31.5653 34.2L31.4274 34.4396L31.275 34.6863L31.1444 34.9258L30.992 35.1799L30.854 35.4121L30.7234 35.6589L30.5782 35.9129L30.4403 36.1597L31.754 36.9291L31.9936 36.5008L32.2331 36.0654L32.4871 35.6371L32.7411 35.2089L33.0097 34.7952L33.271 34.3815L33.5323 33.9605L33.8081 33.5468L34.0984 33.1404L34.3815 32.7339L34.6718 32.3347L34.9694 31.9428L35.2597 31.5436L35.5573 31.1662L35.8549 30.7742L36.1452 30.4041L36.1089 30.3896ZM29.9903 40.4855L28.4226 40.1879L28.3137 40.442L28.1976 40.696L28.0815 40.9573L27.9726 41.2186L27.871 41.4654L27.7694 41.7267L27.6605 41.9879L27.5734 42.242L27.4645 42.5033L27.3702 42.7573L27.2613 43.0186L27.167 43.2726L27.0726 43.5339L26.9782 43.788L26.8984 44.0492L26.804 44.3323L26.7097 44.5791L26.6299 44.8404L26.5428 45.0944L26.4629 45.3484L26.3758 45.6097L26.296 45.8565L26.2307 46.1105L26.1581 46.3718L26.0782 46.6331L26.0129 46.8799L25.9403 47.1339L25.875 47.3807L25.7952 47.6492L25.7444 47.9033L25.6791 48.15L25.621 48.4041L27.5008 47.6783L27.6242 47.2428L27.7331 46.7855L27.8492 46.3428L27.9944 45.8855L28.1178 45.4283L28.2629 44.9783L28.4153 44.5355L28.5678 44.0783L28.7129 43.621L28.8871 43.1638L29.0613 42.721L29.2355 42.2638L29.4024 41.821L29.5984 41.3638L29.7871 40.9138L29.9831 40.471L29.9903 40.4855ZM26.8839 51.1259L24.9024 52.3162V52.5557V52.7952L24.8589 53.0275V53.2525V53.492V53.7097V53.9565V54.1742V54.3992V55.3283V55.5315V56.6129V56.8307V57.0267V57.2517V57.4476V57.6436V57.8758V58.05V58.2533V58.4492V58.6525V58.8339V59.0226V59.2113L26.8549 57.2154L26.8113 57.0557V56.8888V56.7291V56.5621V56.3952V56.221V56.0396V55.6839V55.4952V55.1613V54.9436V53.0129V52.8025V52.4105V52.2V51.9896V51.7863V51.5831V51.3726V51.1549L26.8839 51.1259ZM27.6097 59.5888L25.7299 61.9549L25.8605 62.2525L25.9911 62.5355L26.1436 62.8259L26.3032 63.1017L26.4629 63.3847L26.6299 63.6388L26.8186 63.9L27 64.125L27.0871 64.2412L27.1887 64.3646L27.2831 64.4589L27.3847 64.5605L27.4863 64.6694L27.5879 64.7783L27.6895 64.8871L27.7984 64.967L27.9073 65.0686L28.0234 65.1557L28.1323 65.2428L28.2411 65.3444L28.3645 65.4242L28.4807 65.4968L28.5968 65.5694L28.7057 65.6492L30.2516 62.8694L30.0339 62.7388L29.867 62.5863L29.6782 62.4484L29.4823 62.2888L29.2863 62.1L29.1121 61.9258L28.9307 61.7299L28.7782 61.5484L28.6041 61.3162L28.4516 61.1275L28.2992 60.8807L28.154 60.6484L28.0234 60.3944L27.8855 60.1549L27.7621 59.8936L27.6097 59.5888ZM32.1024 63.5952L30.8178 66.4984L30.9629 66.542H31.1153H31.2605H31.3984H31.5508H32.7847H32.9444H33.271H33.4307L33.5903 66.5057H33.7573L33.9242 66.4621H34.0984L34.2508 66.4041H34.425L34.5919 66.3533L34.7661 66.3097L34.9403 66.2734L35.1073 66.2299L35.2815 66.1718L35.4484 66.121L35.6226 66.0629L35.7968 66.0121L35.9782 65.9468L36.6315 63.1307L36.3194 63.2468L36.0218 63.3412L35.7315 63.421L35.4339 63.4936L35.1363 63.5517L34.846 63.5952L34.5484 63.6315L34.2581 63.675H33.9605H33.692H33.1258H32.8645H32.6032L32.3492 63.6388L32.0952 63.588L32.1024 63.5952ZM39.1645 61.9839L38.8742 64.6549L39.0484 64.5315L39.2371 64.4226L39.4186 64.3138L39.6073 64.1976L39.8032 64.0888L39.9774 63.9654L40.1734 63.842L40.3621 63.7113L40.5363 63.5807L40.725 63.45L40.9137 63.3267L41.1024 63.1888L41.2839 63.0581L41.4726 62.8984L41.6613 62.7605L41.8573 62.6226L42.046 62.4702L42.2274 62.325L42.4016 62.1726L42.5903 62.0057L42.7863 61.8533L42.975 61.7009L43.1492 61.5412L43.3452 61.367L43.5266 61.1928L43.7153 61.0331L43.904 60.8517L44.0928 60.692L44.2597 60.5105L44.4557 60.3291L44.6444 60.1549L44.8258 59.9662L44.4194 57.8831L44.2597 58.0428L44.1 58.188L43.9403 58.3476L43.7879 58.4855L43.621 58.6452L43.4613 58.7904L43.3089 58.921L43.1637 59.0807L42.9968 59.2186L42.8371 59.3565L42.6629 59.4944L42.5105 59.625L42.3508 59.7629L42.1911 59.9009L42.0315 60.0315L41.8573 60.1621L41.6903 60.3073L41.5161 60.4307L41.3565 60.5613L41.1895 60.6847L41.0008 60.7936L40.8339 60.9242L40.6742 61.0476L40.4928 61.1637L40.3331 61.2726L40.1661 61.3815L39.9992 61.4904L39.8395 61.5992L39.6726 61.7009L39.4984 61.8025L39.3387 61.8896L39.179 61.9984L39.1645 61.9839ZM46.9452 55.0888L47.671 56.7944L48.0049 56.3517L48.346 55.9162L48.7089 55.4589L49.0428 55.0089L49.3694 54.5517L49.7178 54.1089L50.0444 53.6371L50.3637 53.1581L50.5234 52.9113L50.6903 52.6718L50.9153 52.425L51.0678 52.1928L51.2202 51.9388L51.3726 51.692L51.5178 51.4379L51.6774 51.1984L51.8299 50.9517L51.9678 50.6904L52.1129 50.4436L52.2653 50.1896L52.4105 49.9355L52.5629 49.6888L52.6936 49.4492L52.8387 49.1734L51.4742 48.3896L51.2347 48.8396L50.9807 49.2823L50.7121 49.725L50.4508 50.1605L50.1895 50.596L49.9137 51.0097L49.6452 51.4379L49.3549 51.8734L49.0573 52.2799L48.767 52.7009L48.4694 53.1073L48.179 53.5138L47.8815 53.9129L47.5839 54.2904L47.2936 54.6968L47.0032 55.0815L46.9452 55.0888ZM53.2742 44.717L54.8782 45.0146L55.0016 44.7533L55.125 44.4847L55.2194 44.2162L55.3282 43.9549L55.4444 43.6791L55.5532 43.4178L55.6549 43.1565L55.7637 42.8879L55.8581 42.6267L55.9669 42.3654L56.0613 42.0968L56.1557 41.8283L56.2573 41.5597L56.3516 41.2984L56.4532 41.0299L56.5258 40.7686L56.6274 40.5073L56.7145 40.2315L56.7944 39.9775L56.8742 39.7162L56.9468 39.4476L57.0266 39.1863L57.1065 38.925L57.1936 38.6637L57.2589 38.4025L57.3315 38.1412L57.4476 37.9089L57.5202 37.6549L57.5855 37.3863L57.6508 37.1323L57.7016 36.8783L57.7669 36.6242L55.8363 37.35L55.7274 37.8146L55.604 38.2718L55.5024 38.7363L55.3645 39.2008L55.2194 39.6799L55.0887 40.1299L54.9363 40.6017L54.7839 41.0662L54.6169 41.5307L54.4573 41.9952L54.2686 42.467L54.0944 42.9242L53.9129 43.3815L53.7315 43.8605L53.5355 44.3105L53.3323 44.7823L53.2742 44.717ZM56.3807 33.7791L58.4129 32.596V32.3492V32.1097V31.8775V31.6452V31.4129V30.9412V30.7162V28.096V27.8783V27.6823V27.4718V27.2759V27.0726V26.8767V26.6807L58.3766 26.4702V26.296L58.3258 26.1L58.2895 25.9041L58.2532 25.7226L56.2863 27.7476L56.3299 27.9V28.067V28.2412V28.4008V28.5823V28.742V28.9162V29.0976V29.2718V29.446V29.6347V29.8089V31.1517V31.3694V32.3783V32.5742V32.9952V33.1984V33.4162V33.6267L56.2936 33.8299L56.3807 33.7791ZM55.4444 25.3089L57.3315 23.0009L57.1863 22.7033L57.0339 22.4057L56.8669 22.1154L56.7145 21.8541L56.5331 21.5928L56.3661 21.346L56.1702 21.121L55.9742 20.8888L55.8653 20.7799L55.771 20.6783L55.6621 20.5694L55.5605 20.4678L55.4589 20.3734L55.3428 20.2718L55.2339 20.1847L55.1178 20.0976L55.0161 20.0396L54.8928 19.9525L54.7694 19.8726L54.6605 19.7928L54.5371 19.7129L54.4065 19.6476L54.3048 19.5678L54.1597 19.5025L52.6645 22.2242L52.8895 22.3404L53.0928 22.4783L53.3032 22.6162L53.5065 22.7686L53.6952 22.9355L53.8839 23.1097L54.0653 23.2767L54.254 23.4726L54.421 23.6613L54.5807 23.8718L54.7403 24.0968L54.8928 24.3218L55.0452 24.5541L55.1903 24.8009L55.3137 25.0549L55.4444 25.3234V25.3089ZM50.7629 21.5855L52.0113 18.7549H51.8661H51.7282H50.6686H50.5016H50.1895H50.0371H49.8847H49.7105H49.5508H49.3911H49.2169H49.0573L48.8903 18.7984L48.7307 18.8347H48.5565L48.3895 18.871L48.2153 18.9146L48.0484 18.9654L47.8815 19.0234H47.7073L47.5331 19.0888L47.3589 19.1396L47.1919 19.2121L47.0178 19.2702L46.8363 19.3355L46.2121 22.0573L46.5097 21.9267L46.829 21.8323L47.1194 21.7307L47.417 21.6509L47.7073 21.5783L48.0049 21.5057L48.2952 21.4549L48.5928 21.4113L48.8613 21.375H49.1516H49.4274H50.2331L50.5016 21.4113L50.7629 21.5855Z" fill="url(#paint6_linear_142_887)"/>
<path fill-rule="evenodd" clip-rule="evenodd" d="M41.1315 26.0488L40.4057 26.6585L39.6799 27.3044L38.9541 27.9722L38.2718 28.698L37.6041 29.4238L36.9363 30.1496L36.2831 30.948L35.6516 31.7464L35.0347 32.5811L34.4395 33.4375L33.8589 34.3157L33.3 35.1867L32.7484 36.094L32.2258 37.0085L31.7395 37.9302L31.2533 38.8665L30.796 39.8173L30.3678 40.7681L29.9541 41.719L29.5694 42.6843L29.221 43.6496L28.8871 44.6149L28.5823 45.5657L28.3065 46.5165L28.067 47.4746L27.871 48.4181L27.6895 49.3762L27.5371 50.298L27.4283 51.227L27.3412 52.1198L27.2976 53.0125V53.8762L27.3339 54.7254L27.392 55.5238L27.4863 56.2931L27.617 57.019L27.7766 57.6939L27.9726 58.3399L28.1904 58.9423L28.4662 59.5085L28.7565 60.0238L29.0758 60.4883L29.4242 60.9238L29.7944 61.323L30.1936 61.6569L30.6218 61.9762L31.0718 62.2302L31.5508 62.4407L32.0516 62.6004L32.5742 62.7165L33.1113 62.7964H33.6774H34.2581L34.8678 62.731L35.4702 62.6294L36.1162 62.4625L36.7766 62.2448L37.4371 61.9762L38.1194 61.6714L38.8452 61.3302L39.571 60.9165L40.2968 60.4302L41.0226 59.9222L41.7484 59.3706L42.4742 58.7536L43.2 58.1077L43.9258 57.4399L44.6516 56.7141L45.3774 55.9883L46.0524 55.2117L46.7202 54.4206L47.3734 53.5859L48.0049 52.7439L48.6145 51.873L49.2024 50.9802L49.7976 50.0802L50.3492 49.1512L50.8863 48.2149L51.3944 47.2569L51.8879 46.2988L52.3597 45.3407L52.7952 44.3536L53.2162 43.3738L53.6081 42.3939L53.9637 41.4069L54.2903 40.4198L54.5952 39.4399L54.871 38.4673L55.1033 37.4948L55.3137 36.5367L55.4879 35.5859L55.6331 34.6496L55.7347 33.7133L55.8073 32.8133L55.8508 31.9133V31.0351L55.8145 30.2004L55.7347 29.3948L55.6113 28.669L55.4734 27.9431L55.292 27.2754L55.0742 26.6439L54.8274 26.056L54.5444 25.5189L54.2395 25.0036L53.9057 24.5609L53.5428 24.1327L53.1581 23.777L52.7371 23.4504L52.2944 23.1746L51.8299 22.9351L51.3436 22.7536L50.8283 22.6085L50.3057 22.5069L49.7541 22.4561H49.1807L48.6 22.4996L47.9976 22.5867L47.2863 22.6665L46.6404 22.8552L45.9871 23.0802L45.3266 23.356L44.6516 23.6899L43.9694 24.0528L43.2436 24.481L42.5178 24.9528L41.792 25.4754L41.1315 26.0488Z" fill="url(#paint7_linear_142_887)"/>
<path d="M33.6994 63.1665H33.0897L32.5163 63.0866L31.9719 62.9632L31.4421 62.7963L30.9268 62.5713L30.4405 62.2955L29.976 61.9616L29.5623 61.606L29.1413 61.1342L28.7711 60.6697L28.4373 60.1834L27.8421 59.0584L27.4066 57.7592L27.109 56.3076L27.0074 55.5165L26.9639 53.8761V53.0052L27.0074 52.0979L27.2034 50.2471L27.3558 49.3108L27.7477 47.4165L28.2703 45.4786L28.909 43.5479L29.6348 41.6028L30.484 39.6794L31.9356 36.856L33.0171 35.0124L34.1639 33.2487L35.3905 31.5503L36.6824 29.9391L38.0252 28.4294L38.751 27.7036L40.2026 26.3753L40.9284 25.7584L41.6542 25.1923L43.1058 24.1762L43.8316 23.7407L45.2179 23.0149L45.8929 22.7318L46.5679 22.4995L47.2356 22.3036L47.8744 22.1657L48.5058 22.0713L49.1082 22.0205H49.7106L50.2913 22.0713L50.8574 22.1802L51.4018 22.3326L51.9171 22.5213L52.4179 22.7826L52.8824 23.0657L53.3324 23.4141L53.7461 23.7987L54.4719 24.7133L54.7985 25.2576L55.0889 25.8092L55.3502 26.4334L55.5752 27.0866L55.7711 27.7761L56.0324 29.2858L56.1123 30.1132L56.1703 31.8552L56.0542 33.6915L55.9453 34.6423L55.626 36.5512L55.1832 38.5036L54.5953 40.4778L53.9058 42.4665L53.0929 44.4407L52.6574 45.4278L51.6413 47.3947L50.5889 49.3036L50.0445 50.2471L48.2373 52.9326L46.9381 54.602L45.5881 56.1842L44.1364 57.6358L42.6848 58.9713L41.959 59.5955L40.5074 60.6769L39.7816 61.1632L39.0558 61.5915L37.6042 62.2519L36.9292 62.5278L36.2469 62.7528L35.5792 62.9342L34.3163 63.1084L33.6994 63.1665ZM41.3566 26.3318L40.6308 26.9415L39.2155 28.2334L37.8873 29.685L37.2195 30.4108L35.9566 31.9931L34.7518 33.6624L33.6195 35.4044L32.5526 37.1826L31.101 39.9624L30.2663 41.8568L29.5405 43.7657L28.9018 45.6745L28.401 47.5544L28.0163 49.4197L27.8639 50.327L27.6679 52.127V52.9979V53.8761L27.7623 55.4874L27.8566 56.2132L28.1397 57.5632L28.5389 58.7681L29.0832 59.7987L29.3808 60.2342L29.7147 60.6479L30.0703 61.0181L30.4332 61.3302L30.8469 61.635L31.2606 61.8673L31.7034 62.0632L32.1679 62.2011L32.6614 62.3173L33.1695 62.3899H33.7066L34.8316 62.2882L35.4195 62.1939L36.0364 62.027L36.6752 61.8237L37.9743 61.2576L38.7002 60.9237L39.426 60.5245L40.8776 59.5447L41.6034 59.0003L42.3292 58.3979L43.7808 57.0915L45.1744 55.6399L46.4953 54.0939L47.7727 52.4318L48.3824 51.5753L49.551 49.7899L50.6252 47.9391L51.6268 46.0374L52.0913 45.0866L52.9405 43.1415L53.6663 41.1891L54.2905 39.2366L54.5663 38.2786L55.0018 36.3697L55.3139 34.5044L55.4881 32.6899L55.5316 31.8044L55.4808 30.1205L55.401 29.3366L55.1469 27.885L54.7623 26.6366L54.5227 26.0705L53.9566 25.0689L53.2961 24.2487L52.9405 23.9149L52.5413 23.61L51.6921 23.1382L51.2494 22.9713L50.7631 22.8334L50.2623 22.7391L49.7542 22.6955H49.2098L48.6582 22.7391L48.0776 22.8262L47.4824 22.9568L46.8582 23.1382L46.2268 23.3633L45.5881 23.6245L44.2598 24.3068L43.534 24.7205L42.126 25.7003L41.3566 26.3318Z" fill="url(#paint8_linear_142_887)"/>
<path fill-rule="evenodd" clip-rule="evenodd" d="M36.0147 19.4802L36.0946 23.3342V23.5665L36.1381 23.7697L36.1962 23.9511L36.2615 24.1181L36.3486 24.2487L36.4575 24.3503L36.5736 24.4447L36.7187 24.5028L36.8639 24.539H37.1833L37.372 24.481L37.5679 24.4084L37.7639 24.314L37.9599 24.1834L38.1558 24.0382L44.5502 18.8923L44.7607 18.7108L44.9566 18.5003L45.1526 18.2971L45.3341 18.0576L45.5155 17.8181L45.6825 17.564L45.8421 17.3028L45.9728 17.0269L46.1179 16.7584L46.2195 16.4899L46.3139 16.1923L46.401 15.931L46.4518 15.6479L46.5607 15.4084V15.1616V14.9076L46.4518 11.0536L46.1325 11.235L45.8131 11.431L45.4937 11.6197L45.1671 11.8156L44.8405 12.0189L44.5429 12.2366L44.2091 12.4471L43.8897 12.6648L43.5486 12.8898L43.222 13.1148L42.8954 13.3689L42.5615 13.6011L42.2276 13.8552L41.901 14.1165L41.5599 14.3705L41.226 14.6463L40.8776 14.9221L40.551 15.1907L40.2026 15.4737L39.8833 15.7713L39.5566 16.0689L39.23 16.3592L38.8962 16.6568L38.5768 16.9544L38.2575 17.2519L37.9308 17.5495L37.6115 17.8399L37.2921 18.1665L36.9728 18.4858L36.6534 18.8052L36.3341 19.1681L36.022 19.5019L36.0147 19.4802ZM18.726 52.4245L21.6946 52.0907H21.876L22.0647 52.0253L22.2679 51.9455L22.4639 51.8294L22.6526 51.6842L22.8413 51.5173L23.0518 51.3358L23.226 51.1399L23.4147 50.9221L23.5816 50.6971L23.7631 50.4503L23.9155 50.1963L24.0607 49.9205L24.1986 49.6229L24.3365 49.3253L24.4381 49.035L27.4938 40.0858L27.5736 39.7882L27.6462 39.5124L27.697 39.2366V38.9826V38.7431V38.5253V38.3149L27.6534 38.1189L27.5881 37.9592L27.5083 37.814L27.4139 37.6834L27.2905 37.589L27.1671 37.5092L27.022 37.4657H26.8696H26.6808L23.7776 37.8358L23.5526 38.3076L23.3421 38.7794L23.1317 39.2149L22.9284 39.6649L22.7325 40.1148L22.5365 40.5721L22.3405 41.0221L22.1591 41.4794L21.9704 41.9439L21.7889 42.4084L21.6147 42.8657L21.426 43.3374L21.2518 43.7874L21.0921 44.252L20.9325 44.702L20.7583 45.1592L20.6058 45.6382L20.4607 46.0955L20.3155 46.5455L20.1704 46.9955L20.0179 47.4673L19.88 47.9318L19.7494 48.389L19.6115 48.8536L19.4808 49.3036L19.3647 49.7608L19.2486 50.2253L19.1397 50.6753L19.0308 51.1326L18.9075 51.5899L18.8131 52.0253L18.7188 52.4826L18.726 52.4245ZM24.155 76.5286L27.247 71.9052L27.4357 71.6221L27.5881 71.3245L27.726 71.0342L27.8494 70.7657L27.9583 70.4681L28.0526 70.1705L28.1252 69.8947L28.1905 69.6261V69.3576V69.1036V68.8713V68.6318L28.1397 68.4358L28.0962 68.2399L28.0091 68.0657L27.9147 67.9205L24.6196 63.8995L24.5107 63.7761L24.38 63.6745H24.2276L24.0752 63.6382H23.9155H23.7413L23.5526 63.6891L23.3639 63.7761L23.1752 63.8705L22.9792 63.9939L22.7905 64.1463L22.5946 64.3133L22.3986 64.5092L22.2026 64.727L22.0212 64.9592L21.8252 65.2278L18.8204 69.7278L18.9292 70.0181L19.0381 70.3157L19.147 70.5987L19.2704 70.8891L19.3865 71.1649L19.5171 71.4479L19.6478 71.702L19.7784 71.985L19.9091 72.2318L20.0615 72.4713L20.2067 72.7181L20.3518 72.9503L20.5042 73.1899L20.6567 73.4221L20.8308 73.6326L20.9905 73.8649L21.172 74.0608L21.3317 74.2786L21.5276 74.4673L21.6873 74.6778L21.876 74.8592L22.0575 75.0407L22.2607 75.2221L22.4567 75.3818L22.6526 75.556L22.8631 75.7084L23.0518 75.8608L23.2696 76.006L23.4728 76.1439L23.6905 76.2745L23.9083 76.4052L24.1333 76.5286H24.155ZM48.005 67.0931L47.8962 62.6511V62.3899L47.8599 62.1576L47.7946 61.9762L47.7075 61.7874L47.6131 61.6641L47.5115 61.5407L47.3881 61.4536L47.2429 61.381H47.0833L46.9308 61.3374H46.7494L46.5679 61.3883L46.372 61.4463L46.1615 61.5552L45.9583 61.6713L45.7405 61.831L39.2083 66.9552L38.9978 67.1221L38.78 67.3181L38.5986 67.514L38.4026 67.7899L38.2284 68.0149L38.0615 68.2689L37.8946 68.5447L37.7566 68.8205L37.6187 69.0963L37.5171 69.3866L37.4155 69.6697L37.3284 69.9673L37.2631 70.2431L37.2123 70.5116V70.7874V71.0487L37.2921 75.4907L37.6333 75.331L37.9526 75.1423L38.2865 74.9681L38.6131 74.7794L38.9542 74.5907L39.2808 74.3874L39.622 74.177L39.9558 73.9665L40.2897 73.7415L40.6236 73.4947L40.972 73.277L41.3204 73.0447L41.647 72.8052L42.0099 72.5366L42.3437 72.2754L42.6921 72.0286L43.0405 71.731L43.3816 71.4552L43.7373 71.1794L44.0639 70.8818L44.4195 70.5842L44.7534 70.2866L45.08 69.9963L45.4284 69.6987L45.7696 69.4011L46.1034 69.0818L46.4228 68.7697L46.7566 68.4358L47.0905 68.1092L47.4244 67.7753L47.751 67.456L48.0704 67.1294L48.005 67.0931ZM66.0268 32.5157L62.7462 32.9366H62.5429L62.3397 33.0165L62.1365 33.1108L61.926 33.2269L61.7228 33.3649L61.5268 33.5463L61.3236 33.7278L61.1204 33.931L60.9316 34.156L60.7575 34.4028L60.576 34.664L60.4091 34.9253L60.2494 35.2157L60.1042 35.4915L59.9881 35.789L59.8792 36.0866L56.7873 45.3116L56.7002 45.6092L56.6276 45.9068L56.5768 46.1753V46.4439V46.6907V46.9302V47.1479L56.6276 47.3511L56.7002 47.5253L56.7873 47.6705L56.8962 47.8011L57.0123 47.9173L57.1575 47.9899L57.3026 48.0407H57.4841H57.68L61.0115 47.6632L61.2292 47.1842L61.4397 46.7197L61.6647 46.2407L61.8679 45.7689L62.0639 45.2971L62.2671 44.8181L62.4558 44.3318L62.6445 43.8673L62.8405 43.381L63.022 42.8947L63.2107 42.4157L63.3776 41.9439L63.5445 41.4648L63.726 40.9858L63.8784 40.514L64.0454 40.0278L64.205 39.5415L64.3502 39.077L64.4954 38.5907L64.6405 38.1189L64.7784 37.6399L64.9091 37.1753L65.047 36.6963L65.1776 36.2173L65.2937 35.7455L65.4171 35.281L65.5333 34.8092L65.6349 34.3374L65.7365 33.8657L65.8381 33.3939L65.9325 32.9294L66.0268 32.4576V32.5157ZM59.4437 9.1084L56.5405 13.4632L56.3663 13.7318L56.2066 14.0003L56.0687 14.2907L55.9454 14.5665L55.8437 14.864L55.7421 15.1326L55.6695 15.4084L55.6115 15.6842V15.9382V16.185V16.41V16.635L55.655 16.831L55.7204 17.0052L55.8002 17.1794L55.9018 17.31L59.4002 21.164L59.5236 21.2802L59.6542 21.36L59.8066 21.4108H59.9808H60.1405H60.3292L60.5107 21.36L60.7139 21.2802L60.9099 21.1713L61.1204 21.0407L61.3163 20.8737L61.5195 20.7068L61.7228 20.489L61.9187 20.2786L62.1147 20.0318L62.2962 19.7705L65.3155 15.2705L65.1994 14.9729L65.0833 14.6971L64.9381 14.4213L64.8002 14.131L64.6623 13.8769L64.5244 13.6084L64.3792 13.3689L64.2123 13.1294L64.0526 12.8898L63.8857 12.6648L63.726 12.4326L63.5663 12.2076L63.3849 11.9971L63.2179 11.7939L63.0365 11.5906L62.855 11.3947L62.6808 11.206L62.4849 11.0173L62.2889 10.8431L62.0857 10.6761L61.9042 10.5092L61.6865 10.3495L61.4905 10.1898L61.28 10.0447L61.0695 9.89953L60.8445 9.77613L60.6195 9.64549L60.4018 9.52211L60.1768 9.40598L59.9445 9.30436L59.7268 9.19549L59.4437 9.1084Z" fill="#515151"/>
<path d="M24.1623 76.8704C24.0711 76.8711 23.983 76.8374 23.9155 76.7761L22.8849 76.1301L21.8833 75.2809L21.5059 74.918L19.9599 72.8785L18.98 71.0059L18.5228 69.8156C18.505 69.7626 18.4996 69.7062 18.5072 69.6508C18.5147 69.5954 18.535 69.5425 18.5663 69.4962L21.9558 64.4809L22.6018 63.8422L23.0228 63.5301L23.4365 63.3341H23.5091L23.9155 63.2616H24.1913L24.5107 63.3414C24.556 63.3501 24.5985 63.3701 24.6341 63.3995L24.7647 63.4938L24.8373 63.5591L28.3575 67.914L28.4591 68.1099C28.462 68.1341 28.462 68.1584 28.4591 68.1825L28.5534 68.589V69.1406L28.5026 69.7067L28.2558 70.6067L27.8639 71.5212L27.7042 71.8261L24.4526 76.6962C24.4298 76.7494 24.395 76.7966 24.351 76.8341C24.2921 76.8617 24.2272 76.8742 24.1623 76.8704ZM19.2631 69.743L19.88 71.2672L20.9978 73.1906L22.0139 74.4317L23.7123 75.818L24.0534 76.014L27.2687 71.1511L27.6244 70.3237L27.8349 69.5253L27.8857 69.0535L27.8276 68.4946L27.7188 68.2188L27.6462 68.0954L24.2567 63.9946L23.9518 63.9511L23.7196 64.0019L23.2042 64.2704L22.6962 64.735L22.1518 65.4099L19.2631 69.743ZM37.2413 75.7817C37.1743 75.7802 37.1089 75.7601 37.0526 75.7237C36.9998 75.694 36.9558 75.6508 36.9252 75.5985C36.8945 75.5462 36.8784 75.4867 36.8784 75.4261L36.7986 70.7156L36.8784 70.1059L37.0381 69.4962L37.2486 68.9011L37.7204 68.0156L38.2792 67.2317L38.7147 66.789L38.9542 66.6003L45.726 61.3091L46.176 61.0551H46.2486L46.6333 60.9462H46.7276H46.9091H47.0107L47.5187 61.1132L47.5913 61.1567L47.8671 61.4108L47.9833 61.5704L48.1792 62.0277L48.2591 62.6229L48.3679 66.9777C48.3867 67.0416 48.3886 67.1094 48.3733 67.1743C48.3581 67.2392 48.3262 67.299 48.2808 67.3478L45.6244 69.9317L41.48 73.2632L39.0921 74.8309L37.3937 75.7454C37.3462 75.7685 37.2942 75.7809 37.2413 75.7817ZM46.4881 61.7083L45.9292 62.0567L39.005 67.5148L38.4897 68.1607L37.9091 69.1841L37.5462 70.5051V70.7519V70.9769L37.6187 74.8309L40.0575 73.3793L43.4833 70.8317L47.6639 66.9341L47.5042 62.1874L47.2865 61.8608L47.1849 61.7591L46.7567 61.6503L46.4881 61.7083ZM18.7333 52.7737C18.6407 52.7738 18.5515 52.7386 18.4841 52.6752C18.4166 52.6118 18.3759 52.5249 18.3704 52.4325C18.3593 52.3872 18.3593 52.3399 18.3704 52.2946L19.0962 49.1446L20.3808 44.9785L22.7688 38.9979L23.4147 37.6043C23.4421 37.5502 23.4821 37.5034 23.5314 37.4681C23.5807 37.4327 23.6377 37.4097 23.6978 37.4011L26.8478 37.0309H26.9639L27.2833 37.1107C27.3177 37.1177 27.35 37.1326 27.3776 37.1543L27.6462 37.343C27.6739 37.3634 27.6984 37.3879 27.7188 37.4156L27.922 37.7422L28.0671 38.1777C28.0707 38.2066 28.0707 38.2359 28.0671 38.2648V39.2156L27.8494 40.1374L24.4018 50.0229L24.0825 50.5817L23.3567 51.5253L22.7252 52.0624L22.2389 52.3091L21.7889 52.4325L18.8349 52.7664L18.7333 52.7737ZM24.0317 38.0978L22.1373 42.4527L20.2429 47.9543L19.1905 51.9825L21.9558 51.6269L22.2897 51.4599L22.9502 50.843L23.4728 50.1753L24.0026 49.1228L24.097 48.8543L27.2978 39.3608L27.3776 38.6349L27.3196 38.1196L27.1744 37.8511L27.0438 37.7567L26.855 37.7132H26.7026L24.0317 38.0978ZM57.4986 48.4261L57.2591 48.3898L56.8671 48.2374L56.78 48.1793L56.5187 47.8817L56.3083 47.4825L56.2066 46.9672V46.4374L56.2865 45.8349L56.4534 45.2035L59.7849 35.347L60.2784 34.4616L60.8663 33.6922L61.4978 33.0898L61.9696 32.7849L62.4268 32.589H62.4994L62.7026 32.5527L65.9978 32.139H66.0558C66.1094 32.1387 66.1623 32.151 66.2102 32.175C66.2581 32.1989 66.2997 32.2339 66.3316 32.2769C66.3674 32.3167 66.3932 32.3644 66.4071 32.4161C66.4209 32.4678 66.4225 32.5221 66.4115 32.5745L65.4316 36.8132L64.0962 41.1245L62.0204 46.4083L61.3671 47.86C61.3417 47.9176 61.3015 47.9675 61.2504 48.0045C61.1994 48.0414 61.1395 48.0642 61.0768 48.0704L57.4986 48.4261ZM57.23 47.6059L57.4405 47.693H57.5567H57.6946L60.7792 47.3374L62.8841 42.3003L64.7131 36.61L65.5913 32.8938L62.6373 33.2712L62.1002 33.5325L61.5631 33.9898L61.2002 34.3817L60.4308 35.6446L60.2204 36.1962L56.976 45.9801L56.9179 46.4664L56.9542 47.0906L57.0486 47.3664L57.23 47.6059ZM37.205 24.9027H36.8058H36.6607L36.4502 24.8228C36.421 24.8103 36.3941 24.7931 36.3704 24.772L36.1236 24.5616L36.0728 24.4962L35.9784 24.3656L35.9349 24.2785L35.7607 23.6906V23.4075L35.6736 19.5317C35.6745 19.4373 35.7107 19.3467 35.7752 19.2777L38.6784 16.418L42.3655 13.3479L46.2994 10.7712C46.355 10.7407 46.4174 10.7248 46.4808 10.7248C46.5443 10.7248 46.6067 10.7407 46.6623 10.7712C46.7161 10.8023 46.761 10.8466 46.7928 10.9C46.8246 10.9534 46.8421 11.014 46.8437 11.0761L46.9526 15.1987L46.822 16.0479L46.5099 16.9551L45.8784 18.0728L45.501 18.5737L44.8405 19.2269L38.0179 24.6777L37.5534 24.8809L37.3429 24.9462L37.205 24.9027ZM36.9002 24.1769H37.1252L37.5897 23.9882L37.9236 23.7487L44.5139 18.4358L45.2397 17.6011L45.8058 16.5922L46.0671 15.8156L46.176 15.0898V14.872L46.0889 11.6422L43.4107 13.3769L40.4131 15.7212L36.9075 19.0382L36.3849 19.6188L36.5155 23.6978L36.6462 24.0099L36.9002 24.1769ZM59.9373 21.789L59.5018 21.7019L59.4147 21.6583L59.1099 21.4261L55.4808 17.3979C55.4599 17.3767 55.4427 17.3522 55.43 17.3253L55.2776 16.9551L55.2196 16.7083V16.1785L55.2631 15.6414L55.4083 15.0317L55.8873 13.8414L56.2502 13.2607L59.1534 8.90592C59.1983 8.83546 59.2665 8.78302 59.3461 8.7578C59.4257 8.73259 59.5117 8.73621 59.5889 8.76801L60.7575 9.33414L61.6647 9.90027L62.8913 10.9454L63.8058 11.9761L64.8002 13.4277L65.6131 15.1406C65.643 15.1925 65.6588 15.2513 65.6588 15.3112C65.6588 15.371 65.643 15.4299 65.6131 15.4817L62.2018 20.5116L61.5558 21.1575L61.1058 21.4841L60.6413 21.7091L60.2058 21.8108L59.9373 21.789ZM59.7486 21.0196L59.9954 21.0704L60.2131 21.0341L60.547 20.9253L60.8808 20.7148L61.6066 19.989L61.9478 19.5245L64.851 15.1696L64.1252 13.718L63.2542 12.3898L62.0276 11.0833L60.8518 10.1833L59.6107 9.5301L56.5187 14.1825L56.0905 15.2567L55.9744 15.7575L55.9381 16.2075V16.5995L56.0833 16.9841L56.1631 17.0785L59.7486 21.0196Z" fill="url(#paint9_linear_142_887)"/>
<path fill-rule="evenodd" clip-rule="evenodd" d="M41.1315 26.0496L40.4057 26.6593L39.6799 27.3053L38.9541 27.973L38.2718 28.6988L37.6041 29.4246L36.9363 30.1504L36.2831 30.9488L35.6516 31.7472L35.0347 32.5819L34.4395 33.4383L33.8589 34.3166L33.3 35.1875L32.7484 36.0948L32.2258 37.0093L31.7395 37.9311L31.2533 38.8674L30.796 39.8182L30.3678 40.769L29.9541 41.7198L29.5694 42.6851L29.221 43.6504L28.8871 44.6158L28.5823 45.5666L28.3065 46.5174L28.067 47.4754L27.871 48.419L27.6895 49.377L27.5371 50.2988L27.4283 51.2279L27.3412 52.1206L27.2976 53.0133V53.877L27.3339 54.7262L27.392 55.5246L27.4863 56.294L27.617 57.0198L27.7766 57.6948L27.9726 58.3407L28.1904 58.9432L28.4662 59.5093L28.7565 60.0246L29.0758 60.4891L29.4242 60.9246L29.7944 61.3238L30.1936 61.6577L30.6218 61.977L31.0718 62.2311L31.1879 62.2674L30.825 62.0278L30.4331 61.6867L30.0557 61.2803L29.7145 60.8666L29.3879 60.3803L29.1049 59.8722L28.8363 59.2988L28.6113 58.7037L28.4226 58.0649L28.2557 57.3899L28.125 56.6641L28.0162 55.9383L27.9581 55.1472V54.298V53.4343L28.0162 52.5416L28.0887 51.6488L28.1976 50.7416L28.35 49.8125L28.5242 48.8762L28.7492 47.9327L28.9887 46.9746L29.2645 46.0166L29.5549 45.0585L29.8742 44.0932L30.2371 43.1424L30.6291 42.177L31.0283 41.219L31.4637 40.2682L31.921 39.3174L32.4073 38.3883L32.9008 37.4666L33.4234 36.552L33.9678 35.6375L34.5339 34.7593L35.1073 33.8883L35.6952 33.0319L36.3266 32.1972L36.9508 31.3988L37.5968 30.6077L38.2718 29.8819L38.9541 29.1561L39.6291 28.4303L40.3549 27.748L41.0807 27.1093L41.8065 26.4996L42.5323 25.9262L43.2581 25.4182L43.9839 24.9391L44.7097 24.5182L45.3992 24.148L46.125 23.8287L46.7783 23.5383L47.4315 23.3061L48.0702 23.1246L48.6871 22.9867L49.2895 22.9069L49.8847 22.8561H50.4508L50.9952 22.9141L51.5323 23.0012L52.0403 23.1464L52.5194 23.3424L52.6645 23.4004L52.3524 23.2117L51.8879 22.9722L51.4016 22.7907L50.8863 22.6456L50.3637 22.544L49.8121 22.4932H49.2387L48.6581 22.5367L48.0557 22.6238L47.2863 22.6674L46.6404 22.8561L45.9871 23.0811L45.3266 23.3569L44.6516 23.6908L43.9694 24.0537L43.2436 24.4819L42.5178 24.9536L41.792 25.4762L41.1315 26.0496Z" fill="#515151"/>
<path fill-rule="evenodd" clip-rule="evenodd" d="M54.2615 28.8287C54.0654 29.0483 53.9259 29.3124 53.8551 29.5981C52.1198 26.2157 49.4559 23.3983 46.176 21.4763C46.793 21.382 46.9889 21.4763 47.8526 21.3965C50.5203 23.3608 52.7109 25.9012 54.2615 28.8287Z" fill="#515151"/>
<path fill-rule="evenodd" clip-rule="evenodd" d="M54.2615 28.8294C53.7897 29.8165 53.2889 30.9198 52.8099 31.798C50.9881 29.8746 49.0357 28.2198 46.6914 27.4431C46.2531 25.1436 45.1089 23.0378 43.418 21.4189C44.7752 21.4189 46.372 21.4189 47.8599 21.4189C50.5224 23.3779 52.7103 25.9105 54.2615 28.8294Z" fill="url(#paint10_linear_142_887)"/>
<path d="M52.8025 32.1605C52.7532 32.1607 52.7045 32.1505 52.6594 32.1304C52.6144 32.1104 52.5741 32.0811 52.5412 32.0443C50.3638 29.7508 48.5275 28.4153 46.5678 27.7548C46.5082 27.7367 46.4545 27.7029 46.4124 27.6569C46.3702 27.611 46.3412 27.5545 46.3283 27.4935C45.9044 25.2651 44.7986 23.2234 43.1638 21.6508C43.1111 21.6021 43.074 21.5389 43.0572 21.4691C43.0404 21.3994 43.0447 21.3262 43.0694 21.2588C43.0963 21.1918 43.1423 21.134 43.2016 21.0928C43.261 21.0515 43.3311 21.0285 43.4033 21.0266C44.3469 21.0266 45.3993 21.0266 46.4517 21.0266H47.8525C47.9315 21.0236 48.0088 21.0494 48.0703 21.0992C50.7948 23.0872 53.0291 25.6715 54.6025 28.6548C54.626 28.7061 54.6382 28.7618 54.6382 28.8181C54.6382 28.8745 54.626 28.9302 54.6025 28.9814L54.2686 29.7072C53.8985 30.4911 53.5428 31.3113 53.1364 31.9935C53.1076 32.0431 53.0677 32.0852 53.0198 32.1167C52.972 32.1482 52.9175 32.1681 52.8606 32.175L52.8025 32.1605ZM46.9961 27.1379C49.1782 28.0456 51.1316 29.4264 52.7154 31.1806C53.013 30.6145 53.3106 29.9903 53.6009 29.3734L53.8549 28.8363C52.359 26.0529 50.2643 23.636 47.7219 21.7597H46.4517C45.7259 21.7597 44.9638 21.7597 44.2743 21.7597C45.6335 23.2854 46.5715 25.1391 46.9961 27.1379Z" fill="url(#paint11_linear_142_887)"/>
<path fill-rule="evenodd" clip-rule="evenodd" d="M28.2049 37.8002C29.4315 35.4123 30.2661 33.2059 32.5597 30.3389L29.8016 24.2421C27.7839 23.7631 25.3887 24.0534 22.5944 25.1494C21.3975 26.0786 20.4103 27.2501 19.6974 28.5871C18.9845 29.9242 18.5619 31.3967 18.4573 32.9083C18.8784 35.1345 19.8799 37.2101 21.3605 38.9252L28.2049 37.8002Z" fill="#515151"/>
<path fill-rule="evenodd" clip-rule="evenodd" d="M31.1735 18.7619C31.808 18.6157 32.4662 18.6048 33.1052 18.7299C33.7442 18.8549 34.3498 19.1131 34.8824 19.4877C33.5396 19.8071 30.034 23.1167 29.8017 24.2127C27.6751 23.6393 25.2074 24.1474 22.5945 25.12C22.795 23.9634 23.2955 22.8797 24.0461 21.9772C26.143 20.3716 28.5821 19.2713 31.1735 18.7619Z" fill="url(#paint12_linear_142_887)"/>
<path d="M22.6091 25.5124C22.5214 25.5133 22.4363 25.4824 22.3696 25.4253C22.3203 25.385 22.2833 25.3316 22.2628 25.2714C22.2423 25.2111 22.2391 25.1462 22.2535 25.0842C22.4758 23.8637 23.0138 22.7226 23.814 21.7745L23.872 21.7165C26.0086 20.0763 28.4908 18.9444 31.1301 18.4068C31.812 18.2591 32.5172 18.2551 33.2008 18.3951C33.8844 18.535 34.5313 18.8159 35.1003 19.2197C35.1566 19.26 35.2001 19.3156 35.2259 19.3799C35.2516 19.4442 35.2584 19.5146 35.2454 19.5826C35.2331 19.6508 35.2011 19.714 35.1534 19.7642C35.1057 19.8145 35.0443 19.8498 34.9769 19.8657C33.7067 20.1778 30.3535 23.4076 30.143 24.3221C30.1324 24.3701 30.1121 24.4155 30.0834 24.4554C30.0547 24.4953 30.0182 24.529 29.9761 24.5544C29.9341 24.5801 29.8872 24.5966 29.8384 24.6028C29.7896 24.6091 29.7401 24.6049 29.693 24.5907C27.8857 24.1044 25.6648 24.3947 22.7035 25.4907L22.6091 25.5124ZM24.3438 22.2681C23.7761 22.9446 23.3581 23.7337 23.1172 24.5834C25.7591 23.6761 27.8349 23.4294 29.5986 23.814C30.2156 22.5729 32.6107 20.3011 34.1349 19.4592C33.2443 19.0367 32.2393 18.9194 31.2753 19.1253C28.7434 19.6279 26.3601 20.7029 24.3075 22.2681H24.3438Z" fill="url(#paint13_linear_142_887)"/>
<path fill-rule="evenodd" clip-rule="evenodd" d="M20.3808 46.5746C19.5491 46.6206 18.7281 46.3701 18.0636 45.8678C17.3991 45.3655 16.9343 44.6438 16.7518 43.831C16.1876 41.1361 16.0019 38.3756 16.2002 35.6294C16.717 34.5853 17.461 33.6702 18.3776 32.9512C18.8937 35.2329 19.935 37.3627 21.4187 39.1713C20.2067 41.4721 20.2575 44.0125 20.3808 46.5746Z" fill="url(#paint14_linear_142_887)"/>
<path d="M20.3808 46.9379C18.2687 46.8363 16.9477 45.8274 16.4469 43.9258C15.8706 41.1957 15.6801 38.3983 15.8808 35.6153C15.8867 35.5569 15.9039 35.5002 15.9316 35.4484L16.0767 35.2089C16.5937 34.2142 17.3221 33.3447 18.2106 32.6613C18.2585 32.6246 18.3149 32.6007 18.3746 32.5918C18.4343 32.5829 18.4952 32.5893 18.5517 32.6105C18.6083 32.6285 18.6592 32.6606 18.6999 32.7037C18.7405 32.7469 18.7695 32.7998 18.784 32.8573C19.2734 35.087 20.2887 37.1674 21.7453 38.925C21.7952 38.9804 21.8269 39.0498 21.836 39.1238C21.8451 39.1979 21.8312 39.2729 21.7961 39.3387C20.613 41.5161 20.6275 43.8968 20.7582 46.5532C20.7619 46.6038 20.7547 46.6546 20.7372 46.7021C20.7197 46.7497 20.6922 46.793 20.6566 46.829C20.6201 46.8645 20.5769 46.8924 20.5296 46.9111C20.4822 46.9298 20.4317 46.9389 20.3808 46.9379ZM16.5848 35.7315C16.4008 38.4175 16.5864 41.1161 17.1364 43.7516C17.2743 44.4247 17.6366 45.0311 18.164 45.4715C18.6914 45.9119 19.3527 46.1602 20.0396 46.1758C19.9235 43.65 19.9671 41.371 21.0558 39.2153C19.7317 37.5614 18.7765 35.6436 18.2542 33.5903C17.6297 34.1571 17.1111 34.8305 16.7227 35.579L16.5848 35.7315Z" fill="url(#paint15_linear_142_887)"/>
<path fill-rule="evenodd" clip-rule="evenodd" d="M28.2048 37.8002C29.301 35.122 30.7668 32.6105 32.5597 30.339C35.5397 30.331 38.4946 30.885 41.2693 31.972C41.8138 34.8895 42.1269 37.8455 42.2056 40.8123C39.7368 42.4736 37.0023 43.7009 34.1202 44.4414C31.7049 42.6666 29.6895 40.4039 28.2048 37.8002Z" fill="url(#paint16_linear_142_887)"/>
<path d="M34.1202 44.8256C34.0384 44.8246 33.9593 44.7965 33.8952 44.7457C31.4396 42.9345 29.3921 40.6274 27.8855 37.974C27.8606 37.9244 27.8477 37.8697 27.8477 37.8143C27.8477 37.7588 27.8606 37.7042 27.8855 37.6546C28.9763 34.9469 30.4422 32.4059 32.2404 30.1062C32.273 30.0663 32.3139 30.0339 32.3603 30.0114C32.4066 29.9888 32.4573 29.9766 32.5089 29.9756C35.533 29.9725 38.531 30.5337 41.3492 31.6304C41.4086 31.6522 41.4613 31.6891 41.502 31.7375C41.5428 31.7858 41.5702 31.844 41.5815 31.9062C42.13 34.8306 42.4456 37.794 42.525 40.7683C42.5255 40.8302 42.5104 40.8911 42.4813 40.9456C42.4521 41.0001 42.4098 41.0465 42.3581 41.0804C39.8808 42.7827 37.1283 44.0448 34.2218 44.8111L34.1202 44.8256ZM28.6113 37.7853C30.0348 40.2313 31.9353 42.3663 34.2 44.0635C36.9115 43.3329 39.4822 42.1554 41.8065 40.5796C41.7252 37.7812 41.4292 34.9932 40.921 32.2401C38.2987 31.2398 35.5187 30.7162 32.7121 30.6941C31.0319 32.8623 29.6525 35.2476 28.6113 37.7853Z" fill="url(#paint17_linear_142_887)"/>
<path fill-rule="evenodd" clip-rule="evenodd" d="M32.8066 30.8037C34.0913 30.8037 30.8759 33.7069 28.5679 37.6916C29.7375 35.2546 31.1581 32.9461 32.8066 30.8037Z" fill="#515151"/>
<path fill-rule="evenodd" clip-rule="evenodd" d="M29.0252 23.3931C29.5986 23.9229 26.3833 23.589 23.2188 24.4963C24.8954 23.4439 27.8204 23.3495 29.0252 23.3931Z" fill="url(#paint18_linear_142_887)"/>
<path fill-rule="evenodd" clip-rule="evenodd" d="M32.9954 52.374C34.8403 54.1356 37.0508 55.4689 39.4696 56.2789L37.2051 59.3127C33.958 59.4192 30.7299 58.7786 27.7696 57.4402L26.0349 53.3321C28.3973 53.527 30.7736 53.1999 32.9954 52.374Z" fill="url(#paint19_linear_142_887)"/>
<path d="M37.205 59.683C33.9287 59.7767 30.6743 59.1214 27.6897 57.7669C27.6471 57.7497 27.6085 57.7242 27.5761 57.6917C27.5437 57.6593 27.5181 57.6207 27.501 57.5782L25.7663 53.4701C25.7358 53.4158 25.7197 53.3546 25.7197 53.2923C25.7197 53.23 25.7358 53.1687 25.7663 53.1145C25.8036 53.0641 25.8532 53.0243 25.9105 52.9989C25.9677 52.9734 26.0306 52.9632 26.0929 52.9693C28.3916 53.1613 30.7043 52.8415 32.8647 52.033C32.9297 52.008 33.0005 52.0022 33.0687 52.0164C33.1369 52.0305 33.1996 52.064 33.2493 52.1128C35.0516 53.842 37.216 55.1485 39.5856 55.9378C39.639 55.9577 39.6871 55.9897 39.7262 56.0313C39.7652 56.0728 39.7941 56.1228 39.8106 56.1774C39.8264 56.2314 39.8294 56.2885 39.8193 56.3439C39.8092 56.3993 39.7864 56.4516 39.7526 56.4967L37.488 59.5306C37.4566 59.5769 37.4144 59.6149 37.3651 59.6414C37.3159 59.6679 37.2609 59.6822 37.205 59.683ZM28.0816 57.1717C30.894 58.4195 33.9476 59.0292 37.0235 58.9572L38.8888 56.4604C36.6685 55.6545 34.6342 54.4077 32.9082 52.7951C30.8981 53.5202 28.7645 53.8409 26.63 53.7386L28.0816 57.1717Z" fill="url(#paint20_linear_142_887)"/>
<path fill-rule="evenodd" clip-rule="evenodd" d="M28.1107 56.7793C28.0018 57.7446 33.5905 58.8261 36.7768 58.8696C36.5736 58.3253 29.7655 56.7793 28.1107 56.7793Z" fill="#515151"/>
<path d="M67.326 23.2328L67.2462 21.7812L67.0793 20.3877L66.8615 19.0885L66.5857 17.8474L66.2446 16.6788L65.8454 15.5901L65.3881 14.5595L64.8728 13.6086L64.3139 12.7449L63.6898 11.9466L63.0293 11.2207L62.3035 10.5748L61.5414 10.0232L60.7502 9.54414L59.9083 9.13042L59.0228 8.81107L58.101 8.57154L57.1357 8.41186L56.1414 8.33203H55.147C52.8134 8.39466 50.5188 8.94605 48.4115 9.95059C46.7722 10.7599 45.2016 11.7017 43.7156 12.7667L42.4744 13.6522L41.2478 14.6175L40.0285 15.6845L37.3938 18.1885C37.8196 18.1987 38.2441 18.2399 38.6639 18.3119C40.9743 15.8037 43.6309 13.6383 46.5535 11.8812C46.8365 11.7143 47.7075 11.2498 47.7075 11.2498L48.8688 10.6982L49.9793 10.2336L51.0825 9.8417L52.1494 9.53687L53.2091 9.29734L54.2252 9.14493L55.2196 9.0651H56.1631L57.0922 9.13767L57.9922 9.28284L58.8486 9.5151L59.6688 9.80542L60.4454 10.1901L61.1712 10.6328L61.897 11.1409L62.5648 11.7506L63.1817 12.4111L63.7623 13.1369L64.2994 13.957L64.7857 14.8498L65.2212 15.8369L65.5986 16.882L65.9325 17.9998L66.1938 19.2046L66.4115 20.4675L66.5639 21.8248L66.651 23.2401V24.6917L66.6075 26.2086L66.5204 27.7474L66.3462 29.3369L66.1212 30.9264L65.8454 32.5449L65.497 34.1853L65.0906 35.8328L64.6478 37.5022L64.147 39.1716L63.5809 40.8482L62.9639 42.5393L62.3035 44.2086L61.5777 45.8925L60.8519 47.5546L59.2115 50.857L58.3333 52.4611L56.4535 55.6474L54.4285 58.7103L53.3688 60.1982L52.2728 61.6498L50.0156 64.4078L48.8543 65.6998L47.6494 66.9554L46.4301 68.1602L45.2107 69.2925L43.9406 70.3885L42.6849 71.4191L41.4075 72.3409L40.1664 73.2046L38.9325 73.9304L37.7349 74.6054L36.5301 75.1933L35.376 75.6941L34.222 76.1078L33.1405 76.4562L32.0591 76.703L31.0212 76.8699L30.0123 76.9715H29.0397L28.1107 76.928L27.1889 76.7756L26.3325 76.5506L25.5051 76.253L24.7212 75.9046L23.9954 75.4401L23.2696 74.9538L22.6018 74.3732L21.9704 73.7127L21.397 72.9869L20.8744 72.1812L20.3881 71.3103L19.9454 70.374L19.5607 69.3651L19.2341 68.2836L18.9583 67.1369L18.7333 65.9175L18.5736 64.6328L18.4647 63.2901L18.4212 61.8385V60.3869L18.501 58.8844L18.6389 57.3603L18.8276 55.8288L19.372 52.6861L19.7204 51.1111L19.9091 50.3853C19.7006 50.1274 19.5251 49.8446 19.3865 49.5433L19.0236 50.9151L18.668 52.5119L18.1091 55.6982L17.9204 57.2586L17.7825 58.8046L17.7026 60.3361V61.7877V63.2393L17.8188 64.6183L17.9857 65.9393L18.2107 67.1949L18.501 68.3853L18.8422 69.503L19.2413 70.5627L19.7059 71.5498L20.2212 72.4643L20.7728 73.3135L21.3897 74.0974L22.0647 74.8232L22.7905 75.4546L23.5164 75.9772L24.3293 76.4707L25.1784 76.8554L26.0639 77.1675L26.9857 77.4143L27.9873 77.574L28.9672 77.6248H29.9978L31.0647 77.5304L32.1462 77.349L33.2785 77.0949L34.4035 76.732L35.5938 76.3038L36.7841 75.7885L38.0252 75.1861L39.2518 74.4603L40.5075 73.6764L41.7776 72.8054L43.0768 71.8619L44.3543 70.8094L45.6389 69.7062L46.8801 68.5594L48.1139 67.3328L49.3406 66.0699L50.5091 64.749L52.7954 61.9691L53.8986 60.5175L54.9728 59.0151L57.0196 55.9232L58.9139 52.7151L59.7994 51.0893L61.4543 47.7578L62.1801 46.074L62.9059 44.3756L63.5736 42.6917L64.1978 40.9861L64.7712 39.2877L65.272 37.5966L65.7293 35.9127L66.1357 34.2433L66.4841 32.574L66.7744 30.9336L66.9994 29.3224L67.1736 27.7038L67.268 26.1433L67.3115 24.5901L67.326 23.2328Z" fill="#515151"/>
<path fill-rule="evenodd" clip-rule="evenodd" d="M41.2404 31.986C38.4619 30.9106 35.5101 30.3522 32.5308 30.3384L29.7727 24.2416C30.23 23.1239 33.0388 19.9666 34.8533 19.5166C37.7365 19.6041 40.5776 20.2319 43.2292 21.3674C45.2251 22.8843 46.1324 25.1997 46.655 27.4134C44.9711 28.9085 42.9316 30.4908 41.2404 31.986Z" fill="#515151"/>
<path d="M41.2403 32.3495C41.1995 32.357 41.1577 32.357 41.117 32.3495C38.3814 31.2853 35.4732 30.7342 32.5379 30.7237C32.4665 30.727 32.3958 30.7077 32.3359 30.6686C32.276 30.6296 32.2298 30.5727 32.204 30.5059L29.4532 24.4164C29.4337 24.3705 29.4236 24.3212 29.4236 24.2713C29.4236 24.2214 29.4337 24.172 29.4532 24.1261C29.9613 22.8705 32.8863 19.6551 34.8024 19.1834C34.8359 19.1759 34.8706 19.1759 34.904 19.1834C37.8321 19.2732 40.7173 19.9108 43.4105 21.0632C43.4399 21.0719 43.4671 21.0868 43.4903 21.1068C45.254 22.4568 46.3936 24.5035 47.0468 27.3632C47.0616 27.4274 47.0585 27.4945 47.0381 27.5571C47.0176 27.6198 46.9805 27.6757 46.9307 27.7188C46.0669 28.4447 45.1161 29.2503 44.2016 30.0051C43.2871 30.76 42.3363 31.5438 41.4871 32.2842C41.4147 32.3334 41.3276 32.3564 41.2403 32.3495ZM32.7702 29.9761C35.6326 30.0277 38.4653 30.5678 41.146 31.5729C41.9589 30.8471 42.8516 30.1213 43.7153 29.3955C44.579 28.6697 45.4573 27.9438 46.2702 27.2616C45.675 24.6995 44.6226 22.8705 43.0621 21.6584C40.4891 20.5733 37.7386 19.9706 34.9476 19.8801C33.2928 20.3301 30.7669 23.1317 30.2008 24.235L32.7919 29.9688L32.7702 29.9761Z" fill="url(#paint21_linear_142_887)"/>
<path fill-rule="evenodd" clip-rule="evenodd" d="M16.2291 40.6526C16.5485 43.5922 16.9549 44.572 17.4194 45.1454C17.7751 45.5642 18.2212 45.8968 18.7241 46.1181C19.227 46.3394 19.7736 46.4436 20.3227 46.4228C21.7743 49.5946 23.5743 52.026 26.0783 53.3252C26.6541 54.6946 27.2323 56.0664 27.813 57.4406C24.0025 55.4446 19.1033 51.9607 16.7517 44.9785C16.2228 43.4277 15.8793 41.8197 15.7283 40.1881C14.9662 32.6688 17.9057 26.3978 24.0678 22.043C23.567 23.0881 23.0735 24.1406 22.6162 25.1857C19.2848 28.3212 18.8493 30.7091 18.4646 32.9881C17.5118 33.6695 16.7597 34.5945 16.2872 35.6664C16.1427 37.3246 16.1233 38.9914 16.2291 40.6526Z" fill="#515151"/>
<path d="M27.8058 57.8036C27.7473 57.8039 27.6897 57.7889 27.6388 57.76C21.9267 54.7697 18.2542 50.6253 16.3961 45.0947C15.8534 43.5217 15.5025 41.8889 15.3509 40.2318C14.5743 32.5891 17.5284 26.1874 23.8356 21.7092C23.8996 21.6615 23.9772 21.6357 24.057 21.6357C24.1368 21.6357 24.2144 21.6615 24.2784 21.7092C24.3383 21.7624 24.3797 21.8333 24.3967 21.9116C24.4136 21.9899 24.4052 22.0715 24.3727 22.1447L22.9211 25.2875C22.8987 25.3289 22.8719 25.3678 22.8413 25.4036C19.5606 28.4883 19.1687 30.7818 18.7985 32.9955C18.7839 33.0802 18.7403 33.1572 18.6751 33.2133C17.7672 33.8524 17.0457 34.7217 16.5848 35.7318C16.473 37.346 16.473 38.966 16.5848 40.5802C16.5848 40.5802 16.5848 40.6165 16.5848 40.631C16.8969 43.5342 17.2525 44.4197 17.688 44.9205C18.0058 45.2967 18.4047 45.596 18.8547 45.7958C19.3048 45.9957 19.7943 46.091 20.2864 46.0745C20.3605 46.0719 20.4338 46.0911 20.497 46.1298C20.5603 46.1686 20.6107 46.2251 20.6421 46.2923C22.0937 49.6383 23.959 51.8375 26.2308 53.0205C26.3055 53.0601 26.3644 53.1242 26.3977 53.202L28.1324 57.31C28.1612 57.3785 28.1684 57.4543 28.1528 57.527C28.1372 57.5997 28.0997 57.6658 28.0453 57.7165C27.9783 57.7729 27.8934 57.8038 27.8058 57.8036ZM17.3469 45.6028C19.1033 50.2915 22.2969 53.906 27.0654 56.6205L25.788 53.5866C23.4654 52.3383 21.6001 50.11 20.0832 46.7931C19.0512 46.7665 18.07 46.3396 17.3469 45.6028ZM23.0953 23.1826C19.3868 26.0409 16.9162 30.2131 16.1929 34.8391C16.6902 34.0379 17.3297 33.3344 18.08 32.7633C18.4501 30.5858 18.9292 28.1036 22.2679 24.9318L23.0953 23.1826Z" fill="url(#paint22_linear_142_887)"/>
<path fill-rule="evenodd" clip-rule="evenodd" d="M53.4629 40.9359C53.9492 37.7932 54.1234 34.7012 52.7371 31.8125C50.971 29.8899 48.7677 28.421 46.3137 27.5303L41.0879 32.0883L42.046 41.0375L48.3895 45.3924C50.4143 44.3363 52.1546 42.8076 53.4629 40.9359Z" fill="#515151"/>
<path d="M48.3823 45.769C48.3072 45.7687 48.2339 45.7459 48.1718 45.7037L41.8355 41.3489C41.7918 41.3192 41.755 41.2806 41.7274 41.2355C41.6999 41.1904 41.6823 41.14 41.6759 41.0876L40.7541 32.1021C40.7471 32.0446 40.754 31.9862 40.7742 31.9319C40.7945 31.8776 40.8274 31.829 40.8702 31.79L46.096 27.2319C46.1433 27.189 46.2013 27.1596 46.2639 27.1468C46.3265 27.1341 46.3913 27.1384 46.4517 27.1593C48.9414 28.0767 51.1795 29.5688 52.9839 31.5142C53.0123 31.5433 53.0345 31.5779 53.0493 31.6158C54.5009 34.6642 54.2904 37.9085 53.7751 40.9497C53.7683 40.9977 53.7536 41.0443 53.7315 41.0876C52.3235 43.4029 49.6162 45.0722 48.513 45.6819C48.4756 45.7193 48.4312 45.7489 48.3823 45.769ZM42.3799 40.8335L48.3968 44.9779C50.2644 43.9726 51.8721 42.5462 53.0928 40.8118C53.5355 37.9085 53.7533 34.8601 52.4105 32.0295C50.7353 30.2234 48.6665 28.8276 46.3646 27.9505L41.4799 32.24L42.3799 40.8335Z" fill="url(#paint23_linear_142_887)"/>
<path fill-rule="evenodd" clip-rule="evenodd" d="M31.1736 18.7618C33.3946 18.5658 34.0768 19.0303 34.8825 19.4876C37.76 19.6186 40.5934 20.2447 43.2583 21.3384H47.8381C43.0115 18.3118 34.9478 17.6586 31.1736 18.7618Z" fill="#515151"/>
<path d="M43.2581 21.7308C43.2148 21.7376 43.1707 21.7376 43.1274 21.7308C40.4966 20.6622 37.704 20.0463 34.8677 19.909C34.8091 19.9043 34.7521 19.887 34.7008 19.8582L34.5992 19.8001C33.8734 19.3574 33.2202 18.9799 31.2097 19.1541C31.1199 19.1631 31.0301 19.1383 30.9577 19.0846C30.8852 19.031 30.8353 18.9522 30.8177 18.8638C30.8012 18.7747 30.8179 18.6826 30.8648 18.6051C30.9116 18.5275 30.9852 18.4697 31.0718 18.4428C34.7008 17.3759 42.946 17.8622 48.0266 21.0848C48.0937 21.126 48.1456 21.188 48.1744 21.2613C48.2032 21.3346 48.2074 21.4153 48.1863 21.4912C48.1643 21.5666 48.1185 21.6328 48.0556 21.6799C47.9928 21.7271 47.9164 21.7525 47.8379 21.7525L43.2581 21.7308ZM34.9911 19.1541C37.8544 19.3041 40.6727 19.9296 43.3306 21.0049H46.4661C42.6774 19.0743 37.6548 18.4356 34.0548 18.6751C34.3728 18.8083 34.6788 18.9686 34.9693 19.1541H34.9911Z" fill="url(#paint24_linear_142_887)"/>
<path fill-rule="evenodd" clip-rule="evenodd" d="M47.468 52.599C45.051 54.9506 42.3873 55.6546 39.6365 56.228C37.18 55.4488 34.9419 54.101 33.1042 52.2942C33.4817 49.6425 33.8567 46.9933 34.2292 44.3466C37.1065 43.5351 39.8412 42.284 42.3365 40.6377L48.6002 44.949C48.8981 47.5541 48.5077 50.1918 47.468 52.599Z" fill="#515151"/>
<path d="M39.6365 56.5915H39.5058C37.0135 55.7771 34.7415 54.4015 32.8647 52.5705C32.8253 52.5313 32.7961 52.483 32.7797 52.4298C32.7632 52.3767 32.76 52.3204 32.7703 52.2657L33.8953 44.3181C33.9046 44.2463 33.9351 44.1789 33.9829 44.1246C34.0308 44.0703 34.0938 44.0315 34.1639 44.0133C36.9978 43.2265 39.6915 42.0021 42.1477 40.3843C42.2076 40.3469 42.2768 40.3271 42.3473 40.3271C42.4179 40.3271 42.4871 40.3469 42.5469 40.3843L48.8106 44.7028C48.8535 44.7316 48.8899 44.7692 48.9174 44.8129C48.9449 44.8567 48.9629 44.9057 48.9703 44.9568C49.262 47.6257 48.8543 50.3246 47.7873 52.7883C47.7704 52.8349 47.7431 52.8771 47.7074 52.9117C45.2469 55.3068 42.5106 56.0399 39.7235 56.6351L39.6365 56.5915ZM33.4961 52.1713C35.2494 53.8356 37.3486 55.0921 39.6437 55.8512C42.3002 55.2851 44.8623 54.581 47.1413 52.3964C48.1323 50.1134 48.5197 47.6141 48.2663 45.1383L42.3292 41.052C39.9317 42.6188 37.3143 43.8199 34.5631 44.6157L33.4961 52.1713Z" fill="url(#paint25_linear_142_887)"/>
<path fill-rule="evenodd" clip-rule="evenodd" d="M34.1202 44.4412L32.9952 52.3525C30.7905 53.1961 28.422 53.5238 26.071 53.3106C23.3638 51.9969 21.6436 49.4565 20.3154 46.4009C20.2283 43.8969 20.1775 41.3928 21.3533 38.9033L28.2049 37.7783C29.7282 40.3602 31.7369 42.6228 34.1202 44.4412Z" fill="#515151"/>
<path d="M27.4501 53.7462C26.9856 53.7462 26.5138 53.7462 26.0421 53.6881C25.9988 53.6956 25.9547 53.6956 25.9114 53.6881C23.4509 52.4978 21.5566 50.2478 19.9816 46.597C19.9741 46.5538 19.9741 46.5096 19.9816 46.4663C19.8945 44.1147 19.8001 41.451 21.0558 38.8018C21.0797 38.748 21.1169 38.7012 21.1639 38.6656C21.2108 38.6301 21.266 38.607 21.3243 38.5986L28.1759 37.4736C28.25 37.46 28.3264 37.4703 28.3942 37.5029C28.462 37.5355 28.5177 37.5888 28.5534 37.6551C30.0463 40.1889 32.0185 42.4076 34.3598 44.1873C34.4098 44.2259 34.4484 44.2774 34.4714 44.3362C34.4944 44.395 34.501 44.4589 34.4905 44.5212L33.3582 52.4252C33.3488 52.489 33.3222 52.5491 33.2813 52.5989C33.2404 52.6488 33.1867 52.6866 33.1259 52.7083C31.315 53.4042 29.3902 53.7562 27.4501 53.7462ZM26.1655 52.9696C28.38 53.1722 30.6119 52.8771 32.6977 52.1059L33.7574 44.6155C31.4742 42.8472 29.5376 40.6719 28.0453 38.1994L21.6292 39.2518C20.5477 41.6615 20.6276 44.1438 20.7074 46.343C22.1663 49.7542 23.9155 51.8591 26.1655 52.9696Z" fill="url(#paint26_linear_142_887)"/>
<path fill-rule="evenodd" clip-rule="evenodd" d="M28.4155 37.9087C29.6566 35.4845 30.4985 33.249 32.7703 30.3385L29.9832 24.1619C27.9364 23.6684 25.505 23.9659 22.6671 25.0764C21.4507 26.0226 20.4481 27.2153 19.7251 28.5762C19.0021 29.9372 18.575 31.4356 18.4719 32.9732C18.9043 35.2332 19.9258 37.3388 21.4332 39.0772L28.4155 37.9087Z" fill="#515151"/>
<path d="M21.4332 39.4403C21.3795 39.4395 21.3265 39.4275 21.2778 39.405C21.229 39.3825 21.1855 39.35 21.1501 39.3097C19.6015 37.5247 18.5546 35.3607 18.1162 33.0387C18.1126 33.0025 18.1126 32.966 18.1162 32.9298C18.5372 29.3589 19.8727 26.8548 22.4711 24.8226L22.5654 24.7718C25.4686 23.6468 27.9727 23.3202 30.092 23.8355C30.1462 23.8477 30.1967 23.8725 30.2395 23.9078C30.2824 23.9431 30.3164 23.9879 30.3388 24.0387L33.1332 30.2226C33.1609 30.2823 33.1715 30.3485 33.1638 30.4138C33.1561 30.4792 33.1304 30.5411 33.0896 30.5927C31.6604 32.4271 30.4589 34.428 29.5114 36.5516C29.2574 37.0669 29.0033 37.5823 28.7348 38.1048C28.7102 38.1554 28.6734 38.1991 28.6278 38.232C28.5822 38.2649 28.5292 38.2861 28.4735 38.2935L21.5275 39.4331L21.4332 39.4403ZM18.8348 32.9589C19.2469 35.0701 20.1913 37.0413 21.5783 38.6855L28.1106 37.6113L28.7928 36.2323C29.7386 34.1336 30.9195 32.1491 32.313 30.3169L29.6928 24.5105C27.7622 24.0968 25.4469 24.4089 22.8122 25.4323C20.4751 27.3121 19.2412 29.6419 18.8348 32.9589Z" fill="url(#paint27_linear_142_887)"/>
<defs>
<linearGradient id="paint0_linear_142_887" x1="49.2351" y1="9.63867" x2="49.2351" y2="81.733" gradientUnits="userSpaceOnUse">
<stop stop-color="#FE8900"/>
<stop offset="1" stop-color="#FDD800" stop-opacity="0.6"/>
</linearGradient>
<linearGradient id="paint1_linear_142_887" x1="49.2276" y1="9.34082" x2="49.2276" y2="82.1033" gradientUnits="userSpaceOnUse">
<stop stop-color="#FE8900"/>
<stop offset="1" stop-color="#FDD800" stop-opacity="0.6"/>
</linearGradient>
<linearGradient id="paint2_linear_142_887" x1="55.4277" y1="9.33984" x2="55.4277" y2="79.8252" gradientUnits="userSpaceOnUse">
<stop stop-color="#FE8900"/>
<stop offset="1" stop-color="#FDD800" stop-opacity="0.6"/>
</linearGradient>
<linearGradient id="paint3_linear_142_887" x1="42.2275" y1="8.31738" x2="42.2275" y2="77.6392" gradientUnits="userSpaceOnUse">
<stop stop-color="#FE8900"/>
<stop offset="1" stop-color="#FDD800" stop-opacity="0.6"/>
</linearGradient>
<linearGradient id="paint4_linear_142_887" x1="42.322" y1="8.02734" x2="42.322" y2="78.0459" gradientUnits="userSpaceOnUse">
<stop stop-color="#FE8900"/>
<stop offset="1" stop-color="#FDD800" stop-opacity="0.6"/>
</linearGradient>
<linearGradient id="paint5_linear_142_887" x1="41.6832" y1="17.5205" x2="41.6832" y2="67.8769" gradientUnits="userSpaceOnUse">
<stop stop-color="#FE8900"/>
<stop offset="1" stop-color="#FDD800" stop-opacity="0.6"/>
</linearGradient>
<linearGradient id="paint6_linear_142_887" x1="41.6359" y1="18.7549" x2="41.6359" y2="66.542" gradientUnits="userSpaceOnUse">
<stop stop-color="#FE8900"/>
<stop offset="1" stop-color="#FDD800" stop-opacity="0.6"/>
</linearGradient>
<linearGradient id="paint7_linear_142_887" x1="41.5742" y1="22.4561" x2="41.5742" y2="62.7964" gradientUnits="userSpaceOnUse">
<stop stop-color="#FE8900"/>
<stop offset="1" stop-color="#FDD800" stop-opacity="0.6"/>
</linearGradient>
<linearGradient id="paint8_linear_142_887" x1="41.5671" y1="22.0205" x2="41.5671" y2="63.1665" gradientUnits="userSpaceOnUse">
<stop stop-color="#FE8900"/>
<stop offset="1" stop-color="#FDD800" stop-opacity="0.6"/>
</linearGradient>
<linearGradient id="paint9_linear_142_887" x1="42.3904" y1="8.74121" x2="42.3904" y2="76.8711" gradientUnits="userSpaceOnUse">
<stop stop-color="#FE8900"/>
<stop offset="1" stop-color="#FDD800" stop-opacity="0.6"/>
</linearGradient>
<linearGradient id="paint10_linear_142_887" x1="48.8397" y1="21.4189" x2="48.8397" y2="31.798" gradientUnits="userSpaceOnUse">
<stop stop-color="#FE8900"/>
<stop offset="1" stop-color="#FDD800" stop-opacity="0.6"/>
</linearGradient>
<linearGradient id="paint11_linear_142_887" x1="48.8426" y1="21.0264" x2="48.8426" y2="32.175" gradientUnits="userSpaceOnUse">
<stop stop-color="#FE8900"/>
<stop offset="1" stop-color="#FDD800" stop-opacity="0.6"/>
</linearGradient>
<linearGradient id="paint12_linear_142_887" x1="28.7384" y1="18.6436" x2="28.7384" y2="25.12" gradientUnits="userSpaceOnUse">
<stop stop-color="#FE8900"/>
<stop offset="1" stop-color="#FDD800" stop-opacity="0.6"/>
</linearGradient>
<linearGradient id="paint13_linear_142_887" x1="28.7482" y1="18.293" x2="28.7482" y2="25.5125" gradientUnits="userSpaceOnUse">
<stop stop-color="#FE8900"/>
<stop offset="1" stop-color="#FDD800" stop-opacity="0.6"/>
</linearGradient>
<linearGradient id="paint14_linear_142_887" x1="18.771" y1="32.9512" x2="18.771" y2="46.5799" gradientUnits="userSpaceOnUse">
<stop stop-color="#FE8900"/>
<stop offset="1" stop-color="#FDD800" stop-opacity="0.6"/>
</linearGradient>
<linearGradient id="paint15_linear_142_887" x1="18.8211" y1="32.5879" x2="18.8211" y2="46.938" gradientUnits="userSpaceOnUse">
<stop stop-color="#FE8900"/>
<stop offset="1" stop-color="#FDD800" stop-opacity="0.6"/>
</linearGradient>
<linearGradient id="paint16_linear_142_887" x1="35.2052" y1="30.3389" x2="35.2052" y2="44.4414" gradientUnits="userSpaceOnUse">
<stop stop-color="#FE8900"/>
<stop offset="1" stop-color="#FDD800" stop-opacity="0.6"/>
</linearGradient>
<linearGradient id="paint17_linear_142_887" x1="35.1864" y1="29.9756" x2="35.1864" y2="44.8256" gradientUnits="userSpaceOnUse">
<stop stop-color="#FE8900"/>
<stop offset="1" stop-color="#FDD800" stop-opacity="0.6"/>
</linearGradient>
<linearGradient id="paint18_linear_142_887" x1="26.1554" y1="23.3848" x2="26.1554" y2="24.4963" gradientUnits="userSpaceOnUse">
<stop stop-color="#FE8900"/>
<stop offset="1" stop-color="#FDD800" stop-opacity="0.6"/>
</linearGradient>
<linearGradient id="paint19_linear_142_887" x1="32.7522" y1="52.374" x2="32.7522" y2="59.3242" gradientUnits="userSpaceOnUse">
<stop stop-color="#FE8900"/>
<stop offset="1" stop-color="#FDD800" stop-opacity="0.6"/>
</linearGradient>
<linearGradient id="paint20_linear_142_887" x1="32.7724" y1="52.0088" x2="32.7724" y2="59.6918" gradientUnits="userSpaceOnUse">
<stop stop-color="#FE8900"/>
<stop offset="1" stop-color="#FDD800" stop-opacity="0.6"/>
</linearGradient>
<linearGradient id="paint21_linear_142_887" x1="38.2398" y1="19.1777" x2="38.2398" y2="32.3551" gradientUnits="userSpaceOnUse">
<stop stop-color="#FE8900"/>
<stop offset="1" stop-color="#FDD800" stop-opacity="0.6"/>
</linearGradient>
<linearGradient id="paint22_linear_142_887" x1="21.695" y1="21.6357" x2="21.695" y2="57.8036" gradientUnits="userSpaceOnUse">
<stop stop-color="#FE8900"/>
<stop offset="1" stop-color="#FDD800" stop-opacity="0.6"/>
</linearGradient>
<linearGradient id="paint23_linear_142_887" x1="47.4571" y1="27.1396" x2="47.4571" y2="45.769" gradientUnits="userSpaceOnUse">
<stop stop-color="#FE8900"/>
<stop offset="1" stop-color="#FDD800" stop-opacity="0.6"/>
</linearGradient>
<linearGradient id="paint24_linear_142_887" x1="39.5055" y1="17.9336" x2="39.5055" y2="21.7525" gradientUnits="userSpaceOnUse">
<stop stop-color="#FE8900"/>
<stop offset="1" stop-color="#FDD800" stop-opacity="0.6"/>
</linearGradient>
<linearGradient id="paint25_linear_142_887" x1="40.9132" y1="40.3271" x2="40.9132" y2="56.6351" gradientUnits="userSpaceOnUse">
<stop stop-color="#FE8900"/>
<stop offset="1" stop-color="#FDD800" stop-opacity="0.6"/>
</linearGradient>
<linearGradient id="paint26_linear_142_887" x1="27.2157" y1="37.4678" x2="27.2157" y2="53.7464" gradientUnits="userSpaceOnUse">
<stop stop-color="#FE8900"/>
<stop offset="1" stop-color="#FDD800" stop-opacity="0.6"/>
</linearGradient>
<linearGradient id="paint27_linear_142_887" x1="25.6399" y1="23.5977" x2="25.6399" y2="39.4403" gradientUnits="userSpaceOnUse">
<stop stop-color="#FE8900"/>
<stop offset="1" stop-color="#FDD800" stop-opacity="0.6"/>
</linearGradient>
</defs>
</svg>
