<svg width="112" height="47" viewBox="0 0 112 47" fill="none" xmlns="http://www.w3.org/2000/svg">
<path fill-rule="evenodd" clip-rule="evenodd" d="M27.6791 1.82267C29.5596 0.634299 31.7705 6.05119e-07 34.0323 6.05119e-07C35.5337 -0.000474461 37.0206 0.278779 38.4079 0.821815C39.7952 1.36485 41.0558 2.16103 42.1176 3.16487C43.1795 4.16871 44.0218 5.36055 44.5965 6.67231C45.1712 7.98407 45.467 9.39004 45.467 10.8099C45.4678 12.9488 44.7978 15.0398 43.5418 16.8186C42.2858 18.5973 40.5002 19.9839 38.4108 20.8029C36.3215 21.6219 34.0222 21.8366 31.8038 21.4198C29.5855 21.0029 27.5476 19.9733 25.9481 18.4612C24.3485 16.949 23.2591 15.0222 22.8175 12.9245C22.376 10.8268 22.6022 8.65235 23.4676 6.67622C24.333 4.70009 25.7986 3.01103 27.6791 1.82267ZM36.1526 14.8139C36.6873 14.9339 37.2471 14.9067 37.766 14.7355C39.9067 14.0909 42.1622 9.71988 34.0438 4.80924C25.9177 9.71264 28.1694 14.0837 30.3216 14.7355C30.8404 14.9067 31.4003 14.9339 31.935 14.8139C32.4697 14.6939 32.9569 14.4317 33.3392 14.0583C33.2855 15.0216 33.1285 16.1986 32.7456 16.8577H35.342C34.9514 16.1986 34.802 15.0216 34.7484 14.0583C35.1306 14.4317 35.6179 14.6939 36.1526 14.8139ZM11.1858 0.612034H0V20.892H6.89301V15.9705H11.1858C16.7002 15.9705 20.2272 12.6134 20.2272 8.29305C20.2272 3.9727 16.7002 0.612034 11.1858 0.612034ZM13.181 8.28581C13.181 9.58952 12.2925 10.4587 10.5769 10.4587H6.89301V6.11296H10.5769C12.2925 6.11296 13.181 6.9821 13.181 8.28581ZM54.8416 0.612034H47.9486V20.892H54.8416V13.5006H56.9899L61.8916 20.892H69.5505L62.6575 10.0277L68.934 0.612034H61.2751L56.6798 7.56877H54.8416V0.612034ZM71.0824 0.612034H88.246V6.11659H77.9754V8.43791H86.0939V13.0733H77.9754V15.391H88.2422V20.892H71.0824V0.612034ZM102.955 0.612034H91.4665L91.4703 20.892H98.3633V15.2389H101.58L104.95 20.892H112L107.86 13.9425C108.58 13.6131 109.229 13.1614 109.775 12.6098C110.401 12 110.892 11.2788 111.221 10.488C111.549 9.69732 111.709 8.85277 111.69 8.00334C111.69 3.79888 108.316 0.612034 102.955 0.612034ZM104.644 8.00334C104.644 9.01734 103.725 9.88647 102.346 9.88647H98.3633V6.11659H102.346C103.725 6.11659 104.644 6.98935 104.644 8.00334ZM0.153125 25.9328H5.82071V33.4689H14.0962V25.9328H19.7676V46.2127H14.0962V38.3941H5.82071V46.2199H0.153125V25.9328ZM46.2 36.0775C46.2 30.1717 41.463 25.1549 34.65 25.1549C27.8369 25.1549 23.1 30.1717 23.1 36.0775C23.1 41.9832 27.8369 47 34.65 47C41.463 47 46.2 41.9832 46.2 36.0775ZM33.6069 32.0602C34.105 31.4284 34.354 31.1126 34.6503 31.1127C34.9466 31.1128 35.1954 31.4288 35.6931 32.0609C36.5508 33.1501 37.4888 34.1835 38.5006 35.1537C38.9669 35.6008 39.2 35.8244 39.2 36.0802C39.1999 36.336 38.9666 36.5594 38.5001 37.0063C37.4888 37.9749 36.5512 39.0068 35.6939 40.0944C35.1959 40.7263 34.9468 41.0423 34.6505 41.0423C34.3542 41.0422 34.1053 40.7262 33.6075 40.0942C32.7496 39.0051 31.8114 37.9719 30.7995 37.002C30.3331 36.555 30.1 36.3315 30.1 36.0757C30.1 35.8199 30.3332 35.5964 30.7996 35.1495C31.8111 34.1804 32.7491 33.1481 33.6069 32.0602ZM49.6374 25.9328H55.305V37.9595C55.305 40.4257 56.8368 41.8742 59.2915 41.8742C61.7461 41.8742 63.2741 40.4257 63.2741 37.9595V25.9328H68.9455V38.1043C68.9455 43.3228 65.2654 46.7957 59.2915 46.7957C53.3175 46.7957 49.6374 43.3192 49.6374 38.1043V25.9328ZM78.2088 40.9474C77.8363 40.5971 77.5534 40.171 77.3816 39.7016L71.5647 39.698C71.9363 40.9895 72.5711 42.2 73.4335 43.2614C74.904 45.0287 77.4467 46.796 81.8315 46.796C87.9241 46.796 91.0221 43.6091 91.0221 40.1325C91.0221 35.6192 86.1714 34.512 82.5124 33.6768L82.3484 33.6394C80.0814 33.1468 78.3007 32.5964 78.3007 31.4375C78.3007 30.7132 79.0398 29.989 81.2149 29.989C82.7773 29.989 83.6351 30.4272 84.1253 30.8617C84.3943 31.1056 84.6035 31.4022 84.738 31.7309H90.5626C90.3029 30.5695 89.7688 29.4788 89.0002 28.5404C87.725 26.947 85.3507 25.3536 81.2149 25.3536C75.5741 25.3536 72.3268 28.3666 72.3268 31.7309C72.3268 35.4102 75.4822 36.8008 78.7028 37.641C79.1718 37.7562 79.6402 37.8644 80.0979 37.9702L80.0981 37.9702C82.7496 38.583 85.0444 39.1134 85.0444 40.4259C85.0444 41.324 84.1253 42.1642 81.8276 42.1642C79.9895 42.1642 78.856 41.5558 78.2088 40.9474ZM93.9325 25.9328H110.483V30.8615H99.604V33.9035H108.335V38.2492H99.604V41.2948H110.483V46.2199H93.9325V25.9328Z" fill="url(#paint0_linear_146_205)"/>
<defs>
<linearGradient id="paint0_linear_146_205" x1="56" y1="0" x2="56" y2="47" gradientUnits="userSpaceOnUse">
<stop stop-color="#FE8900"/>
<stop offset="1" stop-color="#FDD800" stop-opacity="0.6"/>
</linearGradient>
</defs>
</svg>
