<svg width="61" height="128" viewBox="0 0 61 128" fill="none" xmlns="http://www.w3.org/2000/svg">
<g clip-path="url(#clip0_121_2101)">
<path d="M20.4876 96.6594L20.6818 96.5408C20.2039 95.6513 19.9949 94.0502 20.0247 91.7819C23.2054 97.7713 26.6847 101.314 30.4776 102.412C34.2705 101.314 37.7498 97.7713 40.9305 91.7819C40.9753 94.065 40.7513 95.6513 40.2734 96.5408L40.4676 96.6594C44.9324 93.7981 47.2769 89.2913 47.5307 83.1389C48.8299 85.6295 48.9792 88.4759 47.9936 91.6782C51.7865 87.4975 53.3694 81.8639 52.7422 74.733C54.4744 76.7937 55.3405 79.2251 55.3256 82.0567C57.8641 77.8611 57.6252 72.2869 54.6088 65.3488C56.9682 66.8757 58.5361 69.485 59.2678 73.1616C60.552 66.4458 58.8497 60.1007 54.1459 54.1113C56.5053 55.4752 58.79 57.8028 60.9851 61.0791C60.0891 55.2973 57.6103 50.5978 53.5187 46.9804C51.4282 45.3349 49.3376 44.5639 47.2769 44.6233C49.9797 45.75 51.5625 47.0249 52.0553 48.4333C52.3988 49.2932 52.0404 49.7972 51.025 49.9158C51.2191 49.7527 51.2938 49.5007 51.2938 49.2042C51.025 47.7217 49.3674 46.4023 46.3062 45.2163C45.0967 44.7567 44.0365 44.6529 43.0957 44.9346C40.139 45.6758 37.3466 47.1732 34.7036 49.4414C36.0774 47.4993 37.6005 46.0168 39.273 44.9939L39.2282 44.0302C38.3023 43.6596 36.9136 43.4965 35.0321 43.5558C32.7772 43.8079 31.6871 44.8901 31.7618 46.7729C31.7767 48.1665 34.151 48.5371 34.5094 46.9953C34.5692 48.7743 31.6274 49.649 30.4776 46.9953C29.3129 49.649 26.386 48.7743 26.4458 46.9953C26.8042 48.5371 29.1934 48.1665 29.1934 46.7729C29.2531 44.8901 28.163 43.8079 25.9231 43.5558C24.0566 43.4965 22.6529 43.6596 21.7271 44.0302L21.6823 44.9939C23.3696 46.0168 24.8928 47.5141 26.2517 49.4414C23.6086 47.1732 20.8162 45.6758 17.8595 44.9346C16.9337 44.6677 15.8585 44.7567 14.649 45.2163C11.5878 46.3874 9.9153 47.7365 9.66144 49.2042C9.64651 49.5155 9.75104 49.7527 9.93023 49.9158C8.89988 49.7824 8.55643 49.2783 8.89988 48.4333C9.37772 47.0249 10.9755 45.75 13.6783 44.6233C11.6027 44.5639 9.52705 45.3349 7.43648 46.9804C3.37479 50.5978 0.895961 55.2973 0 61.0791C2.18017 57.8028 4.46487 55.4752 6.83917 54.1113C2.15031 60.1007 0.44798 66.4606 1.71726 73.1616C2.46389 69.4701 4.01689 66.8757 6.37626 65.3488C3.35985 72.3017 3.12093 77.8611 5.65949 82.0567C5.64455 79.2251 6.51065 76.7937 8.24284 74.733C7.6306 81.8491 9.21346 87.4975 12.9914 91.6782C11.9909 88.4759 12.1403 85.6295 13.4543 83.1389C13.6783 89.3061 16.0377 93.7981 20.4876 96.6594ZM33.9569 84.2359C32.1501 84.6066 31.0002 86.2373 30.4925 89.1282C29.9848 86.2373 28.835 84.6066 27.0431 84.2359C27.4164 84.7696 27.5209 85.3034 27.3567 85.8964C25.52 84.5028 24.6389 83.1389 24.7285 81.8046C24.7435 79.566 26.6548 78.3207 30.5075 78.0687C34.3452 78.3207 36.2715 79.566 36.2715 81.8046C36.3611 83.1389 35.4801 84.5028 33.6433 85.8964C33.4791 85.3182 33.5836 84.7696 33.9569 84.2359ZM30.4925 70.0928L34.7483 69.2181C35.2113 69.1736 35.5995 68.7585 35.928 67.9431C36.0176 69.1292 35.8683 69.7666 35.495 69.8704C33.9868 70.8192 32.8071 71.516 31.9709 71.9756C30.9405 72.791 30.6717 74.0363 31.1794 75.7263C31.4781 76.2156 32.2397 76.69 33.4641 77.1347C35.0769 77.8908 36.167 78.5728 36.7045 79.1361C37.0629 79.6995 37.496 79.8774 38.0037 79.6698C39.273 79.1658 40.363 78.2318 41.2441 76.8679C42.379 73.9028 41.8414 71.3233 39.6463 69.1588C40.7214 69.3664 42.0056 70.4782 43.4392 72.4796C47.1275 68.7734 47.7249 63.7921 45.2012 57.5656C49.0389 62.3837 50.0245 68.9513 48.143 77.2681C48.4118 75.7115 48.2027 74.0511 47.5009 72.2573C44.7831 75.2075 42.9763 79.9811 42.0654 86.5931C41.7219 84.6066 41.7368 82.1901 42.1102 79.3585C38.1082 82.1604 37.5557 87.6457 34.39 92.7307C35.0769 90.4625 35.2859 88.8317 35.047 87.8829C34.4796 89.8102 32.9714 91.7226 30.4776 93.5906C27.9838 91.7078 26.4756 89.825 25.9082 87.8829C25.6543 88.8465 25.8783 90.4625 26.5652 92.7307C23.3995 87.6605 22.847 82.1753 18.845 79.3585C19.2184 82.1901 19.2333 84.5917 18.8898 86.5931C17.9939 79.9811 16.1721 75.2075 13.4543 72.2573C12.7674 74.0363 12.5584 75.7115 12.8122 77.2681C10.9307 68.9513 11.9163 62.3986 15.754 57.5656C13.2453 63.7921 13.8277 68.7734 17.516 72.4796C18.9645 70.4782 20.2338 69.3664 21.3239 69.1588C19.1138 71.3233 18.5763 73.888 19.7261 76.8679C20.6071 78.2318 21.6972 79.1806 22.9665 79.6698C23.4742 79.8774 23.9072 79.6995 24.2656 79.1361C24.8032 78.5579 25.8933 77.8908 27.506 77.1347C28.7454 76.6751 29.507 76.2156 29.8056 75.7263C30.3133 74.0363 30.0446 72.791 29.0142 71.9756C28.163 71.516 26.9983 70.8044 25.4901 69.8704C25.1168 69.7666 24.9824 69.1292 25.057 67.9431C25.3706 68.7585 25.7738 69.1885 26.2367 69.2181L30.4925 70.0928ZM30.4925 51.9765C30.4029 50.9832 30.1491 50.1975 29.731 49.6045C29.1187 49.6786 28.7305 49.649 28.5662 49.5155C29.5667 49.4414 30.2088 49.0411 30.4925 48.3147C30.7912 49.0263 31.4333 49.4414 32.4189 49.5155C32.2695 49.649 31.8813 49.6786 31.2541 49.6045C30.836 50.1975 30.5821 50.9832 30.4925 51.9765ZM45.246 54.8229C44.0663 52.3768 42.4685 50.9536 40.4377 50.5385C41.707 49.4414 43.8573 49.2635 46.9036 50.0048C46.6945 49.6045 46.0524 49.1449 44.9922 48.6112C46.9931 48.5964 48.5014 48.8929 49.5317 49.4711C49.1435 50.9091 48.3819 52.3175 47.2769 53.6814C47.3963 55.9941 48.7851 57.8472 51.458 59.2112C49.1733 59.2705 47.0977 57.8028 45.246 54.8229ZM35.5696 60.5602C35.7339 61.6128 35.5995 62.6951 35.1366 63.8218C35.0022 61.8204 34.4497 60.2341 33.4641 59.0333C34.8081 58.544 37.4362 57.9659 41.3635 57.2542C41.4233 57.9955 40.4228 59.1667 38.4069 60.8123C37.4362 60.8123 36.4955 60.7233 35.5696 60.5602ZM15.754 54.8229C13.9023 57.7879 11.8267 59.2556 9.55692 59.2112C12.2299 57.8472 13.6335 56.0089 13.7381 53.6814C12.6181 52.3175 11.8715 50.9239 11.4832 49.4711C12.5136 48.8929 14.0218 48.6112 16.0228 48.6112C14.9476 49.1301 14.3055 49.6045 14.1114 50.0048C17.1427 49.2635 19.308 49.4414 20.5772 50.5385C18.5165 50.9684 16.9187 52.3916 15.754 54.8229ZM25.4304 60.5602C24.5045 60.7233 23.5638 60.7974 22.6081 60.8123C20.5772 59.1815 19.5917 57.9955 19.6514 57.2542C23.5638 57.951 26.2069 58.544 27.5508 59.0333C26.5802 60.2193 26.0127 61.8204 25.8634 63.8218C25.4005 62.6951 25.2661 61.6128 25.4304 60.5602Z" fill="url(#paint0_linear_121_2101)"/>
<path d="M51.7118 43.8972C50.0245 43.6748 48.3221 43.5117 46.5899 43.3338L44.2306 43.1262L44.3948 43.0225C44.9623 42.5629 45.3505 41.8958 45.4252 41.1842C45.47 40.6505 45.3356 40.1316 45.0519 39.7016L44.7234 39.3014L44.813 39.3162C47.5904 39.583 50.3082 39.9537 52.9961 40.4133C53.0558 40.4281 53.0857 40.4577 53.1155 40.4874C53.1454 40.5319 53.1454 40.5763 53.1305 40.6208L51.9209 43.7637C51.906 43.8527 51.8014 43.912 51.7118 43.8972ZM9.57183 43.8082C9.48223 43.823 9.3777 43.7637 9.34784 43.66L8.18309 40.6208C8.16815 40.5763 8.16815 40.5319 8.18309 40.4874C8.21295 40.4429 8.25775 40.4281 8.30255 40.4133C10.1393 40.1168 11.9909 39.8499 13.8575 39.6423L16.3363 39.3755L16.0526 39.7165C15.7838 40.1464 15.6494 40.6653 15.6942 41.199C15.7689 41.9106 16.1571 42.5777 16.7246 43.0373L16.8291 43.0966L14.7535 43.2597C13.0213 43.4079 11.2742 43.6007 9.57183 43.8082ZM40.1689 42.8742L38.7204 42.8001C36.9584 42.7111 35.1664 42.6518 33.3895 42.637L32.374 42.6222L32.6428 42.4295C33.1804 41.9551 33.5089 41.3176 33.5238 40.5763C33.5388 39.8351 33.2252 39.1828 32.6727 38.6787L32.6279 38.6491L33.5836 38.6639C35.48 38.7084 37.3466 38.7825 39.2132 38.8863L40.9305 39.0049L40.4974 39.3014C39.915 39.8054 39.5417 40.4577 39.5268 41.1842C39.4969 41.7179 39.6462 42.2219 39.9449 42.637L40.1689 42.8742ZM20.9804 42.8297L21.1447 42.6518C21.4433 42.2219 21.5926 41.7475 21.5478 41.199C21.503 40.4874 21.1447 39.8203 20.5473 39.3162L20.1442 39.0197L22.2646 38.8714C24.1461 38.7677 26.0276 38.6935 27.939 38.6491H28.4766L28.4467 38.6639C27.9092 39.1679 27.5956 39.8351 27.6254 40.5615C27.6404 41.2879 27.9838 41.9402 28.5214 42.4146L28.7753 42.6074L28.0286 42.6222C26.2367 42.6518 24.4746 42.6963 22.6678 42.7704L20.9804 42.8297ZM18.7256 42.5777C19.5767 42.5777 20.2487 41.9551 20.2039 41.199C20.1292 40.4429 19.3975 39.8054 18.5016 39.8054C17.6355 39.8054 16.9784 40.4429 17.0382 41.199C17.1128 41.9551 17.8744 42.5777 18.7256 42.5777ZM42.3939 42.5777C43.26 42.5777 44.0066 41.9551 44.0813 41.199C44.141 40.4281 43.4989 39.8054 42.6029 39.8054C41.7219 39.8054 40.9753 40.4281 40.9305 41.199C40.8707 41.9551 41.5427 42.5777 42.3939 42.5777ZM30.597 41.9551C29.7309 41.9551 29.0142 41.3324 29.0142 40.5763C28.9992 39.8054 29.7011 39.1679 30.597 39.1679C31.4631 39.1679 32.1799 39.8054 32.165 40.5763C32.165 41.3324 31.4631 41.9551 30.597 41.9551ZM2.59826 29.3685L3.06118 31.0438C3.06118 31.0438 3.73315 32.2298 3.88247 32.3484C4.00194 32.5115 4.43498 33.1489 4.42005 33.1489C5.68933 35.0021 6.3165 35.9212 6.80928 38.0264L6.91381 38.2488L6.86901 38.397C6.85408 38.5305 6.86901 38.6639 6.91381 38.7973C7.07807 39.2569 7.54098 39.5682 8.03376 39.583C8.09349 39.583 8.18309 39.583 8.24282 39.5682C22.9664 37.1814 38.6159 37.1814 52.7721 39.5682C53.3246 39.6572 53.907 39.3162 54.0862 38.7973C54.1309 38.6639 54.1459 38.5453 54.1309 38.4267L54.116 38.3822L54.1608 38.3377C54.2205 38.2488 54.2803 38.145 54.2803 38.0412C54.7581 35.9361 55.3554 35.0169 56.6247 33.1638C56.6247 33.1638 57.0428 32.5263 57.1623 32.3632C57.3116 32.2298 57.8492 30.3767 58.4465 29.3537L58.4166 29.3834L58.7003 28.3901C59.1633 26.5221 59.1633 24.6838 58.6854 23.142C58.1777 21.5854 57.1772 20.4587 55.7885 19.9249C54.3997 19.4209 52.7571 19.5543 51.0996 20.3549C50.8458 20.4587 50.6218 20.5921 50.3828 20.7255L50.0245 20.9479L50.2485 20.6217C50.9652 19.7174 51.6671 19.1392 52.3241 18.9613C52.8169 18.8279 53.1603 18.309 53.0857 17.805C53.011 17.3009 52.5481 17.0044 52.0553 17.1378C50.9204 17.4492 49.8602 18.2794 48.8448 19.6433L48.6208 19.9694V19.9398C48.7552 18.1015 48.4565 16.7376 47.7099 15.8184C47.3963 15.4478 46.8139 15.4181 46.4257 15.7887C46.0225 16.1594 45.9777 16.7524 46.2913 17.123C46.8587 17.805 46.9782 19.0651 46.7542 20.8145L46.7094 21.0517L46.5153 20.1473C45.4401 15.7591 42.4387 12.4234 38.7354 12.4234C36.4656 12.4234 34.3302 13.6836 32.7175 15.685L32.4487 16.0408L32.5383 15.7739C33.5089 13.3278 34.7931 11.6674 36.0475 11.3264C36.5552 11.1781 36.8688 10.6444 36.7642 10.0959C36.6448 9.54737 36.1371 9.22122 35.6294 9.35464C34.1809 9.78457 32.8817 11.0299 31.8663 12.8385L31.4034 13.7281L31.3586 13.3723L31.4482 12.883C31.8514 10.4962 32.5383 8.92472 33.494 8.30206C33.9569 8.00556 34.1062 7.35326 33.8524 6.86403C33.5836 6.35997 32.9863 6.1969 32.5383 6.50822C31.7767 7.01228 31.1495 7.78318 30.6717 8.83577L30.4178 9.4436L30.2536 8.99884C29.7309 7.85731 29.0888 7.04193 28.2974 6.50822C27.8345 6.21172 27.2521 6.35997 26.9833 6.86403C26.7295 7.36808 26.8788 8.02039 27.3417 8.30206C28.2675 8.90989 28.9544 10.4072 29.3875 12.6903L29.507 13.3871L29.4622 13.7132L29.0739 12.9571C28.0436 11.1188 26.7295 9.81422 25.2362 9.3843C24.7285 9.23604 24.2208 9.5622 24.1163 10.1256C24.0117 10.6889 24.3253 11.2226 24.833 11.356C26.0874 11.7118 27.4014 13.3574 28.3721 15.8184L28.4617 16.0704L28.2078 15.7294C26.5801 13.7132 24.4298 12.4531 22.1601 12.4679C18.2477 12.4531 15.1716 16.189 14.2756 20.9182L14.2458 21.0813L14.201 20.8441C13.9471 19.0947 14.1114 17.8346 14.6489 17.1675C14.9775 16.782 14.9028 16.1742 14.4996 15.8036C14.0964 15.4329 13.529 15.4478 13.2154 15.8332C12.4538 16.7672 12.1701 18.1311 12.3344 19.9546V19.9694L12.1104 19.6581C11.0502 18.2942 10.0049 17.464 8.86999 17.1527C8.37721 17.0044 7.9143 17.3157 7.85457 17.8198C7.76497 18.3238 8.12336 18.8427 8.61613 18.9761C9.3329 19.1689 10.0945 19.8212 10.8859 20.8738C8.97452 19.6729 6.91381 19.2578 5.16668 19.9249C3.79288 20.4438 2.80732 21.5854 2.29961 23.142C1.89643 24.417 1.86656 25.9291 2.13535 27.4561C2.22495 28.0936 2.38921 28.7311 2.59826 29.3685ZM12.185 36.4846C9.98994 36.4994 7.16766 34.335 5.45041 31.0141C4.21099 28.6273 3.79288 26.0032 4.40512 24.0908C4.64404 23.3792 5.13682 22.4452 6.19704 22.0449C7.15273 21.6891 8.28762 21.8967 9.43743 22.5045C9.34784 22.5342 9.27317 22.5638 9.16864 22.6083C8.34735 23.0086 7.80977 23.6461 7.61564 24.4318C7.46632 25.01 7.45138 25.9439 8.18309 27.1448L8.22788 27.2189C8.98945 28.2715 9.96008 28.5976 10.7216 28.8645C11.1696 29.0127 11.5429 29.1462 11.8267 29.3834C12.3941 29.8726 12.7824 30.3618 12.8272 30.5249C12.9765 30.9548 13.4245 31.2365 13.8575 31.1624C14.2607 31.0883 14.4996 30.7621 14.4697 30.3767C14.4548 30.3322 14.4548 30.2877 14.4399 30.2432C14.201 29.413 13.1706 28.4642 12.857 28.1974C12.2896 27.723 11.6624 27.5006 11.1099 27.3079C10.3931 27.0558 9.94514 26.8779 9.60169 26.4035C9.40757 26.0774 9.30304 25.766 9.25824 25.4992C9.22837 25.3361 9.24331 25.173 9.28811 25.0396C9.39263 24.6097 9.76595 24.3577 10.0497 24.2094C10.8112 23.8388 12.0208 24.58 12.6629 25.766C12.7973 26.0032 13.0213 26.1663 13.2453 26.2404C13.5887 26.7742 13.9023 27.3375 14.1711 27.9305C15.9481 31.8888 15.3209 35.5654 13.0511 36.3215C12.7824 36.4401 12.4837 36.4846 12.185 36.4846ZM49.0986 36.4846C48.7402 36.5143 48.352 36.455 47.9936 36.3363C45.7238 35.5803 45.0817 31.9036 46.8289 27.9453C46.9633 27.6488 47.0977 27.3375 47.2768 27.0262L47.7398 26.2404L47.7995 26.2256C48.0085 26.1515 48.2027 25.9884 48.3221 25.7809C48.9792 24.58 50.1887 23.8536 50.9354 24.2242C51.234 24.3577 51.6073 24.6097 51.6969 25.0544C51.7417 25.2027 51.7566 25.3509 51.7268 25.514C51.6969 25.7809 51.5775 26.0774 51.3983 26.4183C51.0548 26.8928 50.5919 27.0707 49.905 27.3227C49.3525 27.5302 48.7253 27.7526 48.1579 28.227C47.8443 28.4939 46.8289 29.4427 46.6049 30.2729C46.5899 30.3174 46.575 30.3618 46.575 30.4063C46.5451 30.7769 46.799 31.1179 47.1872 31.192C47.6352 31.2662 48.0981 30.9697 48.2176 30.5546C48.2624 30.3915 48.6507 29.9022 49.2181 29.413C49.4869 29.1758 49.8751 29.0424 50.3231 28.8793C51.0847 28.6125 52.0553 28.2863 52.8169 27.2337L52.8467 27.1893L52.8617 27.1448C53.5486 25.9439 53.5486 24.9951 53.3992 24.4318C53.2051 23.6312 52.6675 22.9937 51.8313 22.6083L51.5476 22.5193L51.8761 22.3563C52.6227 22.0005 53.7427 21.6743 54.8029 22.0598C55.8631 22.46 56.3708 23.394 56.6098 24.1056C56.9383 25.0841 56.998 26.2256 56.8039 27.4561C56.6396 28.6273 56.2215 29.8429 55.6242 31.0586C54.4147 33.4455 52.5929 35.2986 50.7412 36.114C50.2634 36.2771 49.6959 36.455 49.0986 36.4846ZM23.2651 35.6544C19.9351 35.6396 16.7246 31.533 16.187 25.9143L16.1721 25.5437L16.2467 25.4102C16.2766 25.3065 16.2915 25.1879 16.2766 25.0544C16.1721 23.7498 16.8142 22.5935 17.6952 22.5935C18.7256 22.5935 19.3079 23.2013 19.3975 24.3428C19.3826 24.921 19.069 25.262 18.5912 25.766C18.2178 26.1663 17.7848 26.6111 17.5757 27.2782C17.4861 27.5747 17.2174 28.4642 17.2771 29.2203C17.292 29.3982 17.3219 29.5761 17.3667 29.7243C17.516 30.1543 17.9939 30.4063 18.4269 30.3025C18.86 30.2136 19.0839 29.754 18.9645 29.3241C18.9048 29.1758 18.9645 28.5828 19.1885 27.9157C19.293 27.5895 19.5469 27.3375 19.8604 26.9965C20.398 26.4332 21.07 25.7512 21.1297 24.5059V24.417C21.0103 22.2821 19.5917 20.8293 17.5459 20.8293C17.307 20.8293 17.083 20.8441 16.859 20.9182L16.5454 21.0517L16.5603 20.9182C17.4413 17.5085 19.5917 14.9289 22.2198 14.9289C24.1312 14.9289 25.953 16.2928 27.2372 18.3387L27.3268 18.4869L26.6847 18.4721C26.2218 18.5166 25.7738 18.65 25.3557 18.902C23.728 19.8212 23.2352 21.5261 24.0117 23.1865L24.0565 23.2754L24.1163 23.3496C24.7733 24.2242 25.8783 24.7283 26.8937 24.6542C27.6852 24.5949 28.3123 24.1798 28.6558 23.4682C28.8648 23.0382 28.6857 22.5045 28.2526 22.2821C27.8046 22.0598 27.282 22.2377 27.0729 22.6824C27.0281 22.7714 26.9535 22.89 26.7145 22.9048C26.3263 22.9344 25.8484 22.7121 25.5647 22.3859C25.4751 22.1635 25.4154 21.956 25.4005 21.7781C25.3855 21.274 25.6693 20.8441 26.2516 20.518C27.0729 20.0584 28.1331 20.3994 28.5811 21.2592L28.5961 21.2889L28.7902 21.867L28.9843 22.6528V22.6972C29.0888 23.5868 28.9694 24.5949 28.5811 25.2916C28.3571 25.6919 28.5214 26.2256 28.9096 26.448C29.0142 26.5073 29.1336 26.5518 29.2382 26.5666H29.3576L29.3427 26.9669L29.2979 27.4561L29.1038 27.2337C28.2377 26.3739 27.0132 25.8253 25.6543 25.8253C22.9366 25.8253 21.1596 27.6785 21.294 30.1543L21.3089 30.1988L21.3238 30.2729C21.5926 31.6368 22.7275 32.8673 24.0715 33.3269C25.1765 33.6827 26.2516 33.4751 27.0879 32.719C27.4164 32.4225 27.4313 31.9185 27.1028 31.5923C26.7743 31.2662 26.2516 31.2513 25.9231 31.5478C25.5199 31.9036 25.0719 32.0074 24.5493 31.8295C23.8027 31.5775 23.1456 30.8362 22.9664 30.0802C22.9216 28.5087 23.9371 27.5006 25.6991 27.5006C27.1924 27.4858 28.4766 28.5532 28.7753 29.9171L28.7902 30.0653L28.5961 30.6732C27.5806 33.6827 25.5797 35.6247 23.2651 35.6544ZM37.7946 35.6544C35.48 35.6396 33.479 33.6827 32.389 30.6435L32.1948 30.0357L32.2098 29.8874C32.5084 28.5235 33.7628 27.4709 35.271 27.4709C37.0032 27.4709 38.0485 28.4939 38.0186 30.0505C37.8543 30.7918 37.1973 31.533 36.4507 31.7999C35.928 31.9629 35.4651 31.874 35.0768 31.5182C34.7483 31.2217 34.2108 31.2217 33.8972 31.5627C33.5836 31.8888 33.5985 32.378 33.927 32.6894C34.7782 33.4455 35.8683 33.653 36.9584 33.312C38.2874 32.8524 39.4073 31.622 39.6761 30.2432L39.691 30.1839L39.706 30.1395C39.8553 27.6637 38.0485 25.7957 35.3158 25.8105C33.9718 25.8105 32.7473 26.359 31.8663 27.2189L31.6871 27.4413L31.6274 26.9521V26.5369L31.7618 26.5518C31.8663 26.537 31.9858 26.5073 32.0903 26.448C32.4935 26.2256 32.6578 25.6919 32.4188 25.2768C32.0156 24.5949 31.8813 23.5868 31.9858 22.6824L32.0156 22.46L32.1052 22.0746L32.2546 21.5261L32.3591 21.274C32.5831 20.8441 32.9265 20.5476 33.3895 20.4142C33.8225 20.2659 34.2854 20.3252 34.6886 20.5328C35.271 20.8589 35.5547 21.2889 35.5398 21.7929C35.5248 21.9856 35.48 22.1932 35.3904 22.4007C35.1067 22.7269 34.6289 22.9641 34.2555 22.9196C34.0017 22.9048 33.942 22.801 33.8822 22.6972C33.6732 22.2377 33.1356 22.0746 32.7175 22.297C32.2844 22.5193 32.1052 23.053 32.3143 23.483C32.6577 24.1798 33.2999 24.6097 34.0764 24.669C35.1067 24.7579 36.1968 24.2242 36.8538 23.3644L36.9136 23.2903L36.9584 23.2013C37.7199 21.5261 37.2122 19.8212 35.5846 18.9168C34.9574 18.561 34.2705 18.4276 33.5836 18.4869L33.5686 18.5017L33.7329 18.2052C35.0022 16.2187 36.7642 14.9289 38.6756 14.9289C41.2888 14.9289 43.4839 17.5085 44.3948 20.8886L44.4098 21.0368L44.0813 20.8886C43.8573 20.8293 43.6482 20.8145 43.3943 20.8145C41.3336 20.7996 39.93 22.2673 39.8404 24.4021V24.4911C39.9001 25.7512 40.6019 26.4332 41.1246 26.9817C41.4382 27.3079 41.707 27.5747 41.8115 27.9009C42.0355 28.568 42.0803 29.161 42.0504 29.3092C41.916 29.754 42.1549 30.1988 42.588 30.3025C43.036 30.4063 43.5138 30.1543 43.6482 29.7243C43.693 29.5761 43.7378 29.3982 43.7378 29.2203C43.7975 28.4642 43.5287 27.5747 43.4242 27.2634C43.2002 26.6259 42.7821 26.1811 42.3939 25.766C41.916 25.2472 41.6024 24.9062 41.5726 24.328C41.6622 23.2013 42.2296 22.5786 43.26 22.5786C44.1559 22.5786 44.798 23.7202 44.6786 25.0396C44.6636 25.1582 44.6786 25.2768 44.7234 25.3658L44.813 25.4992L44.7831 25.8846C44.3052 31.5034 41.1246 35.6247 37.7946 35.6544ZM11.0651 17.5529C10.5275 17.5678 9.85555 17.1823 9.64649 16.6486C9.27317 15.7591 9.34784 14.7955 9.45236 13.8467L9.51209 12.9571V12.8534L10.0198 13.3426C10.856 14.158 11.6325 14.9141 11.9909 15.937C12.185 16.53 11.8267 17.3454 11.2742 17.5085C11.1995 17.5529 11.1398 17.5529 11.0651 17.5529ZM49.8602 17.5529C49.8005 17.5529 49.7109 17.5381 49.6511 17.5233C49.0986 17.3602 48.7253 16.5448 48.9344 15.937C49.2778 14.9141 50.0543 14.158 50.8906 13.3426L51.3236 12.9423L51.3833 12.883L51.4729 13.8763C51.5775 14.8251 51.6671 15.7739 51.2937 16.6783C51.0847 17.1527 50.3978 17.5529 49.8602 17.5529ZM30.5522 6.93815C29.7907 6.93815 28.8947 6.00417 28.8649 5.12949C28.8051 3.61733 29.4472 2.28307 30.1341 0.815381L30.4925 0.118601L30.5522 0L31.1346 1.30461C31.717 2.53509 32.2994 3.79523 32.2396 5.12949C32.2247 6.00417 31.3287 6.93815 30.5522 6.93815Z" fill="url(#paint1_linear_121_2101)"/>
<path d="M3.58391 109.276H0.701904V120.691H3.58391V116.748L5.04731 115.458L9.22846 120.691H12.7675L7.06323 113.709L12.1254 109.276H8.4221L3.58391 113.664V109.276ZM16.9636 109.276H14.0816V120.691H16.9636V109.276ZM19.5768 109.276V120.691H22.3543V112.567L28.1482 120.691H31.6424V109.276H28.8649V117.326L23.1159 109.276H19.5768ZM46.9335 113.219C46.605 110.773 44.1112 108.979 40.4676 108.979C36.2417 108.979 33.5837 111.366 33.5837 114.984C33.5837 118.616 36.391 120.988 40.3183 120.988C42.0953 120.988 43.4691 120.469 44.5592 119.402L44.7234 120.691H46.9036V114.45H41.2292V116.792H43.8424C43.3198 117.904 42.0804 118.645 40.4676 118.645C38.168 118.645 36.7494 117.267 36.7494 114.984C36.7494 112.701 38.168 111.322 40.4676 111.322C42.1849 111.322 43.275 111.945 43.7976 113.219H46.9335ZM60.4774 112.79C60.4774 110.403 58.4167 108.979 54.7433 108.979C51.2789 108.979 49.2032 110.625 49.2032 112.775C49.2032 114.702 50.6219 115.68 53.5636 115.977L55.5944 116.185C57.1474 116.348 57.8642 116.54 57.8642 117.43C57.8642 118.319 56.9384 118.823 55.236 118.823C53.026 118.823 51.8762 118.127 51.8911 116.748H48.9494C48.9494 119.594 51.0101 120.988 54.8926 120.988C58.9244 120.988 61.0001 119.609 61.0001 117.104C61.0001 115.087 59.6113 114.065 56.7293 113.753L54.5939 113.531C52.9514 113.353 52.2644 113.234 52.2644 112.389C52.2644 111.589 53.1455 111.085 54.8179 111.085C56.58 111.085 57.5058 111.648 57.6402 112.79H60.4774Z" fill="url(#paint2_linear_121_2101)"/>
<path d="M0.567383 124.99V127.925H1.28415V125.939L2.16518 127.925H2.77742L3.68831 125.969V127.925H4.40508V124.99H3.46432L2.4937 127.095L1.53801 124.99H0.567383ZM6.83911 124.99V127.925H9.46726V127.318H7.58574V126.68H9.2582V126.072H7.58574V125.583H9.46726V124.975H6.83911V124.99ZM11.7968 124.99V127.925H12.5135V125.939L13.3946 127.925H14.0068L14.9177 125.969V127.925H15.6345V124.99H14.6937L13.7231 127.095L12.7674 124.99H11.7968ZM18.0834 127.925H20.1441C20.7564 127.925 21.0998 127.599 21.0998 127.095C21.0998 126.725 20.9356 126.487 20.5921 126.369C20.8609 126.235 20.9953 126.013 20.9953 125.731C20.9953 125.242 20.6668 125.005 19.9948 125.005H18.0834V127.925ZM18.8151 126.68H19.8007C20.1591 126.68 20.3233 126.769 20.3233 127.021C20.3233 127.288 20.1591 127.318 19.8007 127.318H18.8151V126.68ZM18.8151 125.583H19.6961C20.0545 125.583 20.2188 125.628 20.2188 125.85C20.2188 126.102 20.0545 126.146 19.6961 126.146H18.8151V125.583ZM23.3845 124.99V127.925H26.0127V127.318H24.1312V126.68H25.8036V126.072H24.1312V125.583H26.0127V124.975H23.3845V124.99ZM28.3422 127.925H29.0888V126.843H29.94C30.373 126.843 30.4626 126.991 30.4626 127.496V127.703C30.4626 127.792 30.4775 127.866 30.5223 127.925H31.3586C31.2092 127.762 31.2092 127.496 31.1943 127.155C31.1794 126.814 31.1346 126.665 30.821 126.532C31.1346 126.413 31.3138 126.132 31.3138 125.791C31.3138 125.242 30.9405 125.005 30.164 125.005H28.3571V127.925H28.3422ZM29.0888 125.583H29.8952C30.3282 125.583 30.5223 125.613 30.5223 125.88C30.5223 126.161 30.3133 126.221 29.925 126.221H29.0888V125.583ZM36.4805 125.894C36.4805 125.287 35.9578 124.916 35.0021 124.916C34.1062 124.916 33.5835 125.346 33.5835 125.894C33.5835 126.384 33.9569 126.636 34.7035 126.725L35.2261 126.784C35.6293 126.828 35.8085 126.873 35.8085 127.11C35.8085 127.332 35.5696 127.466 35.1365 127.466C34.5691 127.466 34.2704 127.288 34.2854 126.932H33.5238C33.5238 127.659 34.0465 128.029 35.0469 128.029C36.0773 128.029 36.6149 127.673 36.6149 127.036C36.6149 126.517 36.2565 126.25 35.5099 126.176L34.9573 126.117C34.5392 126.072 34.36 126.043 34.36 125.82C34.36 125.613 34.584 125.479 35.0171 125.479C35.4651 125.479 35.704 125.628 35.7338 125.909H36.4805V125.894ZM45.5148 126.058C45.4401 125.39 44.798 124.916 43.8274 124.916C42.7373 124.916 42.0653 125.524 42.0653 126.458C42.0653 127.392 42.7522 128 43.8274 128C44.798 128 45.455 127.51 45.5297 126.784H44.7233C44.6785 127.169 44.35 127.392 43.8274 127.392C43.245 127.392 42.8717 127.036 42.8717 126.458C42.8717 125.88 43.245 125.524 43.8274 125.524C44.3201 125.524 44.6188 125.717 44.7084 126.072H45.5148V126.058ZM48.561 124.99H47.8144V127.925H50.0692V127.318H48.5461V124.99H48.561ZM52.3091 124.99V126.636C52.3091 127.525 52.8318 128 53.8173 128C54.8029 128 55.3405 127.54 55.3405 126.636V124.99H54.5938V126.606C54.5938 127.08 54.3997 127.407 53.8173 127.407C53.2648 127.407 53.0408 127.14 53.0408 126.576V125.005H52.3091V124.99ZM57.7894 127.925H59.8501C60.4624 127.925 60.8058 127.599 60.8058 127.095C60.8058 126.725 60.6416 126.487 60.2981 126.369C60.5669 126.235 60.7013 126.013 60.7013 125.731C60.7013 125.242 60.3728 125.005 59.7008 125.005H57.7894V127.925ZM58.536 126.68H59.5216C59.88 126.68 60.0443 126.769 60.0443 127.021C60.0443 127.288 59.88 127.318 59.5216 127.318H58.536V126.68ZM58.536 125.583H59.4171C59.7755 125.583 59.9397 125.628 59.9397 125.85C59.9397 126.102 59.7755 126.146 59.4171 126.146H58.536V125.583Z" fill="url(#paint3_linear_121_2101)"/>
</g>
<defs>
<linearGradient id="paint0_linear_121_2101" x1="30.4925" y1="43.5439" x2="30.4925" y2="102.412" gradientUnits="userSpaceOnUse">
<stop stop-color="#FE8900"/>
<stop offset="1" stop-color="#FDD800" stop-opacity="0.6"/>
</linearGradient>
<linearGradient id="paint1_linear_121_2101" x1="30.5029" y1="0" x2="30.5029" y2="43.8994" gradientUnits="userSpaceOnUse">
<stop stop-color="#FE8900"/>
<stop offset="1" stop-color="#FDD800" stop-opacity="0.6"/>
</linearGradient>
<linearGradient id="paint2_linear_121_2101" x1="30.851" y1="108.979" x2="30.851" y2="120.988" gradientUnits="userSpaceOnUse">
<stop stop-color="#FE8900"/>
<stop offset="1" stop-color="#FDD800" stop-opacity="0.6"/>
</linearGradient>
<linearGradient id="paint3_linear_121_2101" x1="30.6866" y1="124.916" x2="30.6866" y2="128.029" gradientUnits="userSpaceOnUse">
<stop stop-color="#FE8900"/>
<stop offset="1" stop-color="#FDD800" stop-opacity="0.6"/>
</linearGradient>
<clipPath id="clip0_121_2101">
<rect width="61" height="128" fill="white"/>
</clipPath>
</defs>
</svg>
