<svg width="62" height="62" viewBox="0 0 62 62" fill="none" xmlns="http://www.w3.org/2000/svg">
<path d="M0 31C0 13.8792 13.8792 0 31 0V0C48.1208 0 62 13.8792 62 31V31C62 48.1208 48.1208 62 31 62V62C13.8792 62 0 48.1208 0 31V31Z" fill="#A58B53"/>
<path d="M31 12.1C25.9874 12.1 21.1801 14.0912 17.6357 17.6357C14.0912 21.1801 12.1 25.9874 12.1 31C12.1 36.0126 14.0912 40.8199 17.6357 44.3643C21.1801 47.9087 25.9874 49.9 31 49.9C36.0126 49.9 40.8199 47.9087 44.3643 44.3643C47.9087 40.8199 49.9 36.0126 49.9 31C49.9 25.9874 47.9087 21.1801 44.3643 17.6357C40.8199 14.0912 36.0126 12.1 31 12.1V12.1ZM14.431 32.428H19.702C19.786 34.339 20.0527 36.2374 20.5 38.098H15.964C15.1181 36.3148 14.5989 34.3944 14.431 32.428ZM32.428 21.088V14.599C34.4517 15.368 36.1146 16.8662 37.09 18.799C37.5205 19.5277 37.9006 20.2858 38.224 21.067L32.428 21.088ZM39.19 23.923C39.6772 25.7773 39.967 27.6778 40.051 29.593H32.428V23.923H39.19ZM29.572 14.599V21.088H23.776C24.0999 20.3061 24.4789 19.5482 24.91 18.82C25.8812 16.8793 27.5446 15.3732 29.572 14.599ZM29.572 23.923V29.593H21.97C22.054 27.6778 22.3438 25.7773 22.831 23.923H29.572ZM19.702 29.572H14.431C14.5989 27.6055 15.1181 25.6851 15.964 23.902H20.5C20.0518 25.7618 19.7846 27.6607 19.702 29.572ZM21.97 32.428H29.572V38.098H22.831C22.3439 36.2438 22.0552 34.3431 21.97 32.428ZM29.593 40.828V47.317C27.5692 46.5479 25.9063 45.0498 24.931 43.117C24.4999 42.3887 24.1209 41.6308 23.797 40.849L29.593 40.828ZM32.428 47.317V40.933H38.224C37.9 41.7148 37.5211 42.4727 37.09 43.201C36.1146 45.1338 34.4517 46.6319 32.428 47.401V47.317ZM32.428 37.993V32.323H40.03C39.9447 34.2381 39.6561 36.1388 39.169 37.993H32.428ZM42.319 32.323H47.59C47.4221 34.2894 46.9028 36.2098 46.057 37.993H41.5C41.941 36.166 42.2077 34.3033 42.298 32.428L42.319 32.323ZM42.319 29.488C42.2228 27.6112 41.9486 25.7479 41.5 23.923H46.036C46.8823 25.708 47.401 27.6274 47.569 29.593L42.319 29.488ZM44.419 21.088H40.66C39.9798 19.1776 38.994 17.3903 37.741 15.796C40.3542 16.969 42.6241 18.7907 44.335 21.088H44.419ZM24.259 15.796C23.0059 17.3903 22.0201 19.1776 21.34 21.088H17.665C19.3759 18.7907 21.6458 16.969 24.259 15.796ZM17.644 40.996H21.34C22.0201 42.9063 23.0059 44.6936 24.259 46.288C21.6385 45.0973 19.368 43.2534 17.665 40.933L17.644 40.996ZM37.72 46.288C38.973 44.6936 39.9588 42.9063 40.639 40.996H44.335C42.6136 43.2625 40.3446 45.0545 37.741 46.204L37.72 46.288Z" fill="#FCAE00"/>
</svg>
