<svg width="42" height="42" viewBox="0 0 42 42" fill="none" xmlns="http://www.w3.org/2000/svg">
<rect width="42" height="42" rx="21" fill="#FCAE00" fill-opacity="0.2"/>
<path d="M21 7.5C17.4196 7.5 13.9858 8.92232 11.4541 11.4541C8.92232 13.9858 7.5 17.4196 7.5 21C7.5 24.5804 8.92232 28.0142 11.4541 30.5459C13.9858 33.0777 17.4196 34.5 21 34.5C24.5804 34.5 28.0142 33.0777 30.5459 30.5459C33.0777 28.0142 34.5 24.5804 34.5 21C34.5 17.4196 33.0777 13.9858 30.5459 11.4541C28.0142 8.92232 24.5804 7.5 21 7.5V7.5ZM9.165 22.02H12.93C12.99 23.385 13.1805 24.741 13.5 26.07H10.26C9.65581 24.7963 9.28494 23.4246 9.165 22.02ZM22.02 13.92V9.285C23.4655 9.83434 24.6533 10.9044 25.35 12.285C25.6575 12.8055 25.929 13.347 26.16 13.905L22.02 13.92ZM26.85 15.945C27.198 17.2695 27.405 18.627 27.465 19.995H22.02V15.945H26.85ZM19.98 9.285V13.92H15.84C16.0714 13.3615 16.3421 12.8202 16.65 12.3C17.3437 10.9138 18.5319 9.83799 19.98 9.285ZM19.98 15.945V19.995H14.55C14.61 18.627 14.817 17.2695 15.165 15.945H19.98ZM12.93 19.98H9.165C9.28494 18.5754 9.65581 17.2037 10.26 15.93H13.5C13.1799 17.2585 12.989 18.6148 12.93 19.98ZM14.55 22.02H19.98V26.07H15.165C14.8171 24.7456 14.6109 23.388 14.55 22.02ZM19.995 28.02V32.655C18.5495 32.1057 17.3617 31.0356 16.665 29.655C16.3571 29.1348 16.0864 28.5935 15.855 28.035L19.995 28.02ZM22.02 32.655V28.095H26.16C25.9286 28.6535 25.6579 29.1948 25.35 29.715C24.6533 31.0956 23.4655 32.1657 22.02 32.715V32.655ZM22.02 25.995V21.945H27.45C27.3891 23.313 27.1829 24.6706 26.835 25.995H22.02ZM29.085 21.945H32.85C32.7301 23.3496 32.3592 24.7213 31.755 25.995H28.5C28.815 24.69 29.0055 23.3595 29.07 22.02L29.085 21.945ZM29.085 19.92C29.0163 18.5795 28.8204 17.2485 28.5 15.945H31.74C32.3445 17.22 32.715 18.591 32.835 19.995L29.085 19.92ZM30.585 13.92H27.9C27.4142 12.5555 26.71 11.2788 25.815 10.14C27.6816 10.9779 29.3029 12.2791 30.525 13.92H30.585ZM16.185 10.14C15.29 11.2788 14.5858 12.5555 14.1 13.92H11.475C12.6971 12.2791 14.3184 10.9779 16.185 10.14ZM11.46 28.14H14.1C14.5858 29.5046 15.29 30.7812 16.185 31.92C14.3133 31.0695 12.6914 29.7524 11.475 28.095L11.46 28.14ZM25.8 31.92C26.695 30.7812 27.3992 29.5046 27.885 28.14H30.525C29.2955 29.7589 27.6748 31.039 25.815 31.86L25.8 31.92Z" fill="url(#paint0_linear_139_1890)"/>
<defs>
<linearGradient id="paint0_linear_139_1890" x1="21" y1="7.5" x2="21" y2="34.5" gradientUnits="userSpaceOnUse">
<stop stop-color="#FE8900"/>
<stop offset="1" stop-color="#FDD800" stop-opacity="0.6"/>
</linearGradient>
</defs>
</svg>
