<svg xmlns="http://www.w3.org/2000/svg"><symbol viewBox="0 0 34.5 42" id="src-1">
<rect width="42" height="42" rx="21" fill="#FCAE00" fill-opacity="0.2"/>
<path d="M21 7.5C17.4196 7.5 13.9858 8.92232 11.4541 11.4541C8.92232 13.9858 7.5 17.4196 7.5 21C7.5 24.5804 8.92232 28.0142 11.4541 30.5459C13.9858 33.0777 17.4196 34.5 21 34.5C24.5804 34.5 28.0142 33.0777 30.5459 30.5459C33.0777 28.0142 34.5 24.5804 34.5 21C34.5 17.4196 33.0777 13.9858 30.5459 11.4541C28.0142 8.92232 24.5804 7.5 21 7.5V7.5ZM9.165 22.02H12.93C12.99 23.385 13.1805 24.741 13.5 26.07H10.26C9.65581 24.7963 9.28494 23.4246 9.165 22.02ZM22.02 13.92V9.285C23.4655 9.83434 24.6533 10.9044 25.35 12.285C25.6575 12.8055 25.929 13.347 26.16 13.905L22.02 13.92ZM26.85 15.945C27.198 17.2695 27.405 18.627 27.465 19.995H22.02V15.945H26.85ZM19.98 9.285V13.92H15.84C16.0714 13.3615 16.3421 12.8202 16.65 12.3C17.3437 10.9138 18.5319 9.83799 19.98 9.285ZM19.98 15.945V19.995H14.55C14.61 18.627 14.817 17.2695 15.165 15.945H19.98ZM12.93 19.98H9.165C9.28494 18.5754 9.65581 17.2037 10.26 15.93H13.5C13.1799 17.2585 12.989 18.6148 12.93 19.98ZM14.55 22.02H19.98V26.07H15.165C14.8171 24.7456 14.6109 23.388 14.55 22.02ZM19.995 28.02V32.655C18.5495 32.1057 17.3617 31.0356 16.665 29.655C16.3571 29.1348 16.0864 28.5935 15.855 28.035L19.995 28.02ZM22.02 32.655V28.095H26.16C25.9286 28.6535 25.6579 29.1948 25.35 29.715C24.6533 31.0956 23.4655 32.1657 22.02 32.715V32.655ZM22.02 25.995V21.945H27.45C27.3891 23.313 27.1829 24.6706 26.835 25.995H22.02ZM29.085 21.945H32.85C32.7301 23.3496 32.3592 24.7213 31.755 25.995H28.5C28.815 24.69 29.0055 23.3595 29.07 22.02L29.085 21.945ZM29.085 19.92C29.0163 18.5795 28.8204 17.2485 28.5 15.945H31.74C32.3445 17.22 32.715 18.591 32.835 19.995L29.085 19.92ZM30.585 13.92H27.9C27.4142 12.5555 26.71 11.2788 25.815 10.14C27.6816 10.9779 29.3029 12.2791 30.525 13.92H30.585ZM16.185 10.14C15.29 11.2788 14.5858 12.5555 14.1 13.92H11.475C12.6971 12.2791 14.3184 10.9779 16.185 10.14ZM11.46 28.14H14.1C14.5858 29.5046 15.29 30.7812 16.185 31.92C14.3133 31.0695 12.6914 29.7524 11.475 28.095L11.46 28.14ZM25.8 31.92C26.695 30.7812 27.3992 29.5046 27.885 28.14H30.525C29.2955 29.7589 27.6748 31.039 25.815 31.86L25.8 31.92Z" fill="url(#paint0_linear_139_1890)"/>
<defs>
<linearGradient id="paint0_linear_139_1890" x1="21" y1="7.5" x2="21" y2="34.5" gradientUnits="userSpaceOnUse">
<stop stop-color="#FE8900"/>
<stop offset="1" stop-color="#FDD800" stop-opacity="0.6"/>
</linearGradient>
</defs>
</symbol><symbol viewBox="0 0 62 62" id="src-2">
<path d="M0 31C0 13.8792 13.8792 0 31 0V0C48.1208 0 62 13.8792 62 31V31C62 48.1208 48.1208 62 31 62V62C13.8792 62 0 48.1208 0 31V31Z" fill="#A58B53"/>
<path d="M31 12.1C25.9874 12.1 21.1801 14.0912 17.6357 17.6357C14.0912 21.1801 12.1 25.9874 12.1 31C12.1 36.0126 14.0912 40.8199 17.6357 44.3643C21.1801 47.9087 25.9874 49.9 31 49.9C36.0126 49.9 40.8199 47.9087 44.3643 44.3643C47.9087 40.8199 49.9 36.0126 49.9 31C49.9 25.9874 47.9087 21.1801 44.3643 17.6357C40.8199 14.0912 36.0126 12.1 31 12.1V12.1ZM14.431 32.428H19.702C19.786 34.339 20.0527 36.2374 20.5 38.098H15.964C15.1181 36.3148 14.5989 34.3944 14.431 32.428ZM32.428 21.088V14.599C34.4517 15.368 36.1146 16.8662 37.09 18.799C37.5205 19.5277 37.9006 20.2858 38.224 21.067L32.428 21.088ZM39.19 23.923C39.6772 25.7773 39.967 27.6778 40.051 29.593H32.428V23.923H39.19ZM29.572 14.599V21.088H23.776C24.0999 20.3061 24.4789 19.5482 24.91 18.82C25.8812 16.8793 27.5446 15.3732 29.572 14.599ZM29.572 23.923V29.593H21.97C22.054 27.6778 22.3438 25.7773 22.831 23.923H29.572ZM19.702 29.572H14.431C14.5989 27.6055 15.1181 25.6851 15.964 23.902H20.5C20.0518 25.7618 19.7846 27.6607 19.702 29.572ZM21.97 32.428H29.572V38.098H22.831C22.3439 36.2438 22.0552 34.3431 21.97 32.428ZM29.593 40.828V47.317C27.5692 46.5479 25.9063 45.0498 24.931 43.117C24.4999 42.3887 24.1209 41.6308 23.797 40.849L29.593 40.828ZM32.428 47.317V40.933H38.224C37.9 41.7148 37.5211 42.4727 37.09 43.201C36.1146 45.1338 34.4517 46.6319 32.428 47.401V47.317ZM32.428 37.993V32.323H40.03C39.9447 34.2381 39.6561 36.1388 39.169 37.993H32.428ZM42.319 32.323H47.59C47.4221 34.2894 46.9028 36.2098 46.057 37.993H41.5C41.941 36.166 42.2077 34.3033 42.298 32.428L42.319 32.323ZM42.319 29.488C42.2228 27.6112 41.9486 25.7479 41.5 23.923H46.036C46.8823 25.708 47.401 27.6274 47.569 29.593L42.319 29.488ZM44.419 21.088H40.66C39.9798 19.1776 38.994 17.3903 37.741 15.796C40.3542 16.969 42.6241 18.7907 44.335 21.088H44.419ZM24.259 15.796C23.0059 17.3903 22.0201 19.1776 21.34 21.088H17.665C19.3759 18.7907 21.6458 16.969 24.259 15.796ZM17.644 40.996H21.34C22.0201 42.9063 23.0059 44.6936 24.259 46.288C21.6385 45.0973 19.368 43.2534 17.665 40.933L17.644 40.996ZM37.72 46.288C38.973 44.6936 39.9588 42.9063 40.639 40.996H44.335C42.6136 43.2625 40.3446 45.0545 37.741 46.204L37.72 46.288Z" fill="#FCAE00"/>
</symbol></svg>