<svg width="346" height="378" viewBox="0 0 346 378" fill="none" xmlns="http://www.w3.org/2000/svg">
<path d="M175.644 193.924C188.789 186.919 198.265 179.012 196.81 176.265C195.355 173.518 183.52 176.97 170.375 183.976C157.23 190.982 147.754 198.888 149.209 201.635C150.664 204.382 162.499 200.93 175.644 193.924Z" stroke="url(#paint0_linear_121_1472)" stroke-opacity="0.6" stroke-width="2" stroke-miterlimit="10"/>
<path d="M175.846 194.048C189.889 186.204 200.01 177.568 198.451 174.76C196.892 171.951 184.244 176.034 170.201 183.878C156.158 191.722 146.037 200.357 147.596 203.166C149.155 205.974 161.803 201.892 175.846 194.048Z" stroke="url(#paint1_linear_121_1472)" stroke-opacity="0.6" stroke-width="2" stroke-miterlimit="10"/>
<path d="M176.108 194.132C191.117 185.368 201.935 175.939 200.271 173.071C198.607 170.204 185.091 174.983 170.082 183.747C155.073 192.511 144.255 201.94 145.919 204.808C147.583 207.676 161.099 202.896 176.108 194.132Z" stroke="url(#paint2_linear_121_1472)" stroke-opacity="0.6" stroke-width="2" stroke-miterlimit="10"/>
<path d="M176.154 194.301C192.146 184.562 203.676 174.297 201.906 171.372C200.136 168.447 185.737 173.97 169.744 183.709C153.751 193.447 142.222 203.713 143.992 206.638C145.762 209.563 160.161 204.039 176.154 194.301Z" stroke="url(#paint3_linear_121_1472)" stroke-opacity="0.6" stroke-width="2" stroke-miterlimit="10"/>
<path d="M176.452 194.389C193.448 183.616 205.705 172.467 203.827 169.486C201.95 166.506 186.65 172.823 169.653 183.597C152.657 194.37 140.4 205.52 142.278 208.5C144.155 211.48 159.455 205.163 176.452 194.389Z" stroke="url(#paint4_linear_121_1472)" stroke-opacity="0.6" stroke-width="2" stroke-miterlimit="10"/>
<path d="M176.607 194.435C194.665 182.54 207.695 170.438 205.709 167.405C203.723 164.371 187.474 171.555 169.416 183.45C151.357 195.345 138.328 207.447 140.314 210.48C142.3 213.514 158.549 206.33 176.607 194.435Z" stroke="url(#paint5_linear_121_1472)" stroke-opacity="0.6" stroke-width="2" stroke-miterlimit="10"/>
<path d="M176.769 194.669C195.903 181.593 209.693 168.457 207.569 165.33C205.445 162.202 188.211 170.267 169.077 183.343C149.943 196.42 136.153 209.555 138.277 212.683C140.401 215.811 157.635 207.746 176.769 194.669Z" stroke="url(#paint6_linear_121_1472)" stroke-opacity="0.6" stroke-width="2" stroke-miterlimit="10"/>
<path d="M177.026 194.809C197.291 180.458 211.883 166.215 209.618 162.996C207.353 159.778 189.088 168.802 168.823 183.154C148.557 197.505 133.965 211.748 136.23 214.967C138.496 218.185 156.76 209.161 177.026 194.809Z" stroke="url(#paint7_linear_121_1472)" stroke-opacity="0.6" stroke-width="2" stroke-miterlimit="10"/>
<path d="M177.351 194.922C198.716 179.261 214.083 163.885 211.674 160.578C209.265 157.271 189.992 167.286 168.627 182.947C147.262 198.608 131.895 213.984 134.304 217.291C136.713 220.598 155.986 210.583 177.351 194.922Z" stroke="url(#paint8_linear_121_1472)" stroke-opacity="0.6" stroke-width="2" stroke-miterlimit="10"/>
<path d="M177.64 195.204C200.156 178.141 216.337 161.558 213.783 158.166C211.228 154.774 190.904 165.857 168.389 182.92C145.873 199.983 129.691 216.566 132.246 219.958C134.8 223.35 155.124 212.267 177.64 195.204Z" stroke="url(#paint9_linear_121_1472)" stroke-opacity="0.6" stroke-width="2" stroke-miterlimit="10"/>
<path d="M178.052 195.301C201.763 176.732 218.768 158.83 216.033 155.316C213.298 151.801 191.858 164.005 168.147 182.573C144.435 201.142 127.43 219.044 130.166 222.558C132.901 226.073 154.34 213.869 178.052 195.301Z" stroke="url(#paint10_linear_121_1472)" stroke-opacity="0.6" stroke-width="2" stroke-miterlimit="10"/>
<path d="M178.267 195.602C203.135 175.497 220.929 156.254 218.01 152.621C215.091 148.988 192.565 162.341 167.697 182.446C142.828 202.551 125.035 221.794 127.953 225.427C130.872 229.059 153.398 215.706 178.267 195.602Z" stroke="url(#paint11_linear_121_1472)" stroke-opacity="0.6" stroke-width="2" stroke-miterlimit="10"/>
<path d="M178.53 195.758C204.595 174.012 223.207 153.347 220.101 149.6C216.995 145.854 193.346 160.445 167.281 182.19C141.216 203.936 122.604 224.602 125.71 228.348C128.817 232.095 152.465 217.504 178.53 195.758Z" stroke="url(#paint12_linear_121_1472)" stroke-opacity="0.6" stroke-width="2" stroke-miterlimit="10"/>
<path d="M178.97 195.909C206.233 172.449 225.661 150.305 222.363 146.449C219.065 142.593 194.291 158.485 167.028 181.945C139.765 205.405 120.338 227.549 123.635 231.405C126.933 235.261 151.708 219.369 178.97 195.909Z" stroke="url(#paint13_linear_121_1472)" stroke-opacity="0.6" stroke-width="2" stroke-miterlimit="10"/>
<path d="M179.431 196.232C207.925 170.953 228.166 147.217 224.639 143.217C221.112 139.217 195.154 156.467 166.659 181.746C138.165 207.025 117.924 230.76 121.451 234.76C124.978 238.761 150.936 221.511 179.431 196.232Z" stroke="url(#paint14_linear_121_1472)" stroke-opacity="0.6" stroke-width="2" stroke-miterlimit="10"/>
<path d="M179.866 196.554C209.543 169.416 230.523 144.031 226.728 139.855C222.933 135.679 195.799 154.293 166.122 181.431C136.446 208.57 115.465 233.955 119.26 238.131C123.056 242.307 150.19 223.693 179.866 196.554Z" stroke="url(#paint15_linear_121_1472)" stroke-opacity="0.6" stroke-width="2" stroke-miterlimit="10"/>
<path d="M180.44 196.808C211.289 167.732 232.998 140.638 228.928 136.293C224.857 131.948 196.55 151.997 165.701 181.073C134.852 210.15 113.144 237.244 117.214 241.589C121.284 245.934 149.592 225.885 180.44 196.808Z" stroke="url(#paint16_linear_121_1472)" stroke-opacity="0.6" stroke-width="2" stroke-miterlimit="10"/>
<path d="M180.944 197.093C212.949 166.003 235.367 137.146 231.017 132.639C226.666 128.133 197.194 149.683 165.189 180.773C133.184 211.864 110.765 240.721 115.116 245.227C119.466 249.734 148.939 228.183 180.944 197.093Z" stroke="url(#paint17_linear_121_1472)" stroke-opacity="0.6" stroke-width="2" stroke-miterlimit="10"/>
<path d="M181.455 197.526C214.634 164.309 237.742 133.575 233.069 128.878C228.396 124.181 197.711 147.3 164.532 180.517C131.353 213.733 108.244 244.468 112.917 249.165C117.59 253.862 148.276 230.742 181.455 197.526Z" stroke="url(#paint18_linear_121_1472)" stroke-opacity="0.6" stroke-width="2" stroke-miterlimit="10"/>
<path d="M182.093 197.818C216.351 162.463 240.066 129.847 235.063 124.969C230.059 120.091 198.232 144.797 163.974 180.153C129.716 215.508 106.001 248.124 111.004 253.002C116.008 257.88 147.835 233.174 182.093 197.818Z" stroke="url(#paint19_linear_121_1472)" stroke-opacity="0.6" stroke-width="2" stroke-miterlimit="10"/>
<path d="M182.796 198.198C218.139 160.585 242.399 125.942 236.984 120.821C231.568 115.701 198.526 142.041 163.183 179.655C127.841 217.268 103.58 251.911 108.996 257.032C114.411 262.152 147.453 235.812 182.796 198.198Z" stroke="url(#paint20_linear_121_1472)" stroke-opacity="0.6" stroke-width="2" stroke-miterlimit="10"/>
<path d="M183.519 198.605C219.883 158.688 244.661 122.02 238.862 116.704C233.063 111.388 198.883 139.437 162.518 179.354C126.154 219.271 101.376 255.939 107.175 261.255C112.974 266.571 147.154 238.522 183.519 198.605Z" stroke="url(#paint21_linear_121_1472)" stroke-opacity="0.6" stroke-width="2" stroke-miterlimit="10"/>
<path d="M184.312 198.97C221.622 156.7 246.786 117.92 240.517 112.352C234.249 106.785 198.921 136.538 161.612 178.808C124.302 221.078 99.1381 259.858 105.407 265.426C111.675 270.993 147.002 241.24 184.312 198.97Z" stroke="url(#paint22_linear_121_1472)" stroke-opacity="0.6" stroke-width="2" stroke-miterlimit="10"/>
<path d="M185.326 199.581C223.547 154.874 249.029 113.899 242.242 108.06C235.455 102.221 198.968 133.73 160.747 178.436C122.526 223.143 97.0434 264.119 103.831 269.957C110.618 275.796 147.104 244.287 185.326 199.581Z" stroke="url(#paint23_linear_121_1472)" stroke-opacity="0.6" stroke-width="2" stroke-miterlimit="10"/>
<path d="M186.207 200.034C225.219 152.88 250.912 109.715 243.594 103.623C236.276 97.5317 198.719 130.819 159.708 177.974C120.696 225.128 95.0034 268.293 102.321 274.385C109.639 280.476 147.196 247.188 186.207 200.034Z" stroke="url(#paint24_linear_121_1472)" stroke-opacity="0.6" stroke-width="2" stroke-miterlimit="10"/>
<path d="M187.362 200.445C227.112 150.746 252.897 105.276 244.956 98.885C237.014 92.4936 198.353 127.601 158.603 177.299C118.854 226.998 93.0681 272.467 101.01 278.859C108.951 285.25 147.613 250.143 187.362 200.445Z" stroke="url(#paint25_linear_121_1472)" stroke-opacity="0.6" stroke-width="2" stroke-miterlimit="10"/>
<path d="M188.599 201.068C228.967 148.822 254.704 101.036 246.084 94.335C237.465 87.6338 197.753 124.555 157.386 176.801C117.018 229.047 91.2809 276.833 99.9002 283.535C108.52 290.236 148.231 253.314 188.599 201.068Z" stroke="url(#paint26_linear_121_1472)" stroke-opacity="0.6" stroke-width="2" stroke-miterlimit="10"/>
<path d="M189.996 201.784C230.884 146.941 256.415 96.7682 247.02 89.72C237.625 82.6718 196.862 121.417 155.973 176.261C115.085 231.104 89.5541 281.277 98.9491 288.325C108.344 295.373 149.107 256.627 189.996 201.784Z" stroke="url(#paint27_linear_121_1472)" stroke-opacity="0.6" stroke-width="2" stroke-miterlimit="10"/>
<path d="M191.415 202.304C232.656 144.891 257.83 92.3785 247.641 85.0137C237.452 77.6489 195.759 118.221 154.517 175.634C113.275 233.047 88.1019 285.56 98.2909 292.925C108.48 300.289 150.173 259.717 191.415 202.304Z" stroke="url(#paint28_linear_121_1472)" stroke-opacity="0.6" stroke-width="2" stroke-miterlimit="10"/>
<path d="M193.065 202.97C234.552 142.94 259.162 88.002 248.034 80.2637C236.906 72.5255 194.254 114.917 152.768 174.947C111.282 234.978 86.6714 289.916 97.7993 297.654C108.927 305.392 151.579 263.001 193.065 202.97Z" stroke="url(#paint29_linear_121_1472)" stroke-opacity="0.6" stroke-width="2" stroke-miterlimit="10"/>
<path d="M195.034 203.626C236.623 140.965 260.468 83.5772 248.293 75.4461C236.118 67.315 192.534 111.52 150.945 174.181C109.356 236.841 85.511 294.229 97.6859 302.36C109.861 310.491 153.445 266.286 195.034 203.626Z" stroke="url(#paint30_linear_121_1472)" stroke-opacity="0.6" stroke-width="2" stroke-miterlimit="10"/>
<path d="M197.106 204.305C238.647 139.011 261.551 79.183 248.262 70.6759C234.974 62.1689 190.525 108.204 148.984 173.498C107.443 238.792 84.5397 298.62 97.8281 307.127C111.117 315.634 155.565 269.599 197.106 204.305Z" stroke="url(#paint31_linear_121_1472)" stroke-opacity="0.6" stroke-width="2" stroke-miterlimit="10"/>
<path d="M199.473 205.101C240.752 137.26 262.377 75.0161 247.774 66.0756C233.172 57.1351 187.871 104.883 146.593 172.724C105.314 240.565 83.6886 302.809 98.2911 311.75C112.894 320.69 158.194 272.942 199.473 205.101Z" stroke="url(#paint32_linear_121_1472)" stroke-opacity="0.6" stroke-width="2" stroke-miterlimit="10"/>
<path d="M201.997 205.884C242.854 135.498 263.012 70.8679 247.023 61.5285C231.033 52.1891 184.95 101.677 144.093 172.063C103.236 242.449 83.0778 307.079 99.0676 316.419C115.057 325.758 161.141 276.27 201.997 205.884Z" stroke="url(#paint33_linear_121_1472)" stroke-opacity="0.6" stroke-width="2" stroke-miterlimit="10"/>
<path d="M204.758 206.64C244.989 133.758 263.346 66.7565 245.758 56.9875C228.171 47.2185 181.299 98.3817 141.068 171.264C100.836 244.146 82.4797 311.148 100.067 320.917C117.655 330.686 164.526 279.523 204.758 206.64Z" stroke="url(#paint34_linear_121_1472)" stroke-opacity="0.6" stroke-width="2" stroke-miterlimit="10"/>
<path d="M208.141 207.537C247.562 132.211 263.79 62.8645 244.388 52.6474C224.985 42.4303 177.3 95.2114 137.88 170.537C98.4594 245.863 82.2316 315.209 101.634 325.426C121.036 335.644 168.721 282.863 208.141 207.537Z" stroke="url(#paint35_linear_121_1472)" stroke-opacity="0.6" stroke-width="2" stroke-miterlimit="10"/>
<path d="M211.786 208.252C250.162 130.585 263.929 58.9997 242.535 48.3627C221.141 37.7258 172.687 92.0648 134.311 169.732C95.9346 247.4 82.1679 318.985 103.562 329.622C124.956 340.259 173.41 285.92 211.786 208.252Z" stroke="url(#paint36_linear_121_1472)" stroke-opacity="0.6" stroke-width="2" stroke-miterlimit="10"/>
<path d="M215.899 208.971C253.024 129.03 263.94 55.2627 240.281 44.2064C216.621 33.1502 167.345 88.992 130.22 168.933C93.0946 248.873 82.1783 322.641 105.838 333.697C129.497 344.754 178.773 288.912 215.899 208.971Z" stroke="url(#paint37_linear_121_1472)" stroke-opacity="0.6" stroke-width="2" stroke-miterlimit="10"/>
<path d="M220.304 209.638C255.944 127.553 263.633 51.7468 237.477 40.3198C211.322 28.8927 161.227 86.1721 125.587 168.257C89.9471 250.342 82.2582 326.148 108.414 337.575C134.569 349.002 184.664 291.723 220.304 209.638Z" stroke="url(#paint38_linear_121_1472)" stroke-opacity="0.6" stroke-width="2" stroke-miterlimit="10"/>
<path d="M225.523 210.37C259.458 126.275 263.434 48.5475 234.403 36.7597C205.373 24.972 154.329 83.588 120.395 167.682C86.4596 251.777 82.4837 329.505 111.514 341.292C140.544 353.08 191.588 294.464 225.523 210.37Z" stroke="url(#paint39_linear_121_1472)" stroke-opacity="0.6" stroke-width="2" stroke-miterlimit="10"/>
<path d="M231.241 210.795C263.24 124.831 263.08 45.3674 230.883 33.3076C198.686 21.2479 146.645 81.1591 114.645 167.123C82.6463 253.087 82.8066 332.551 115.004 344.61C147.2 356.67 199.242 296.759 231.241 210.795Z" stroke="url(#paint40_linear_121_1472)" stroke-opacity="0.6" stroke-width="2" stroke-miterlimit="10"/>
<path d="M237.791 211.217C267.641 123.547 262.817 42.5336 227.017 30.2683C191.217 18.003 137.997 79.1303 108.147 166.8C78.2975 254.47 83.1212 335.483 118.921 347.748C154.722 360.014 207.942 298.886 237.791 211.217Z" stroke="url(#paint41_linear_121_1472)" stroke-opacity="0.6" stroke-width="2" stroke-miterlimit="10"/>
<path d="M245.141 211.342C272.628 122.136 262.607 39.8043 222.759 27.4496C182.911 15.0949 128.326 77.3953 100.839 166.601C73.3522 255.808 83.3729 338.139 123.221 350.494C163.069 362.848 217.654 300.548 245.141 211.342Z" stroke="url(#paint42_linear_121_1472)" stroke-opacity="0.6" stroke-width="2" stroke-miterlimit="10"/>
<path d="M253.268 211.221C278.202 120.621 262.432 37.2115 218.045 24.9196C173.658 12.6277 117.463 76.1085 92.5287 166.708C67.5949 257.307 83.3649 340.717 127.752 353.009C172.139 365.301 228.334 301.82 253.268 211.221Z" stroke="url(#paint43_linear_121_1472)" stroke-opacity="0.6" stroke-width="2" stroke-miterlimit="10"/>
<path d="M262.573 210.774C284.778 118.979 262.673 34.8022 213.201 22.7608C163.729 10.7194 105.624 75.3729 83.4197 167.168C61.2153 258.964 83.32 343.14 132.792 355.182C182.264 367.223 240.369 302.57 262.573 210.774Z" stroke="url(#paint44_linear_121_1472)" stroke-opacity="0.6" stroke-width="2" stroke-miterlimit="10"/>
<path d="M272.823 209.867C292.125 117.097 263.067 32.5323 207.922 20.9874C152.776 9.44246 92.4247 75.2889 73.1232 168.059C53.8218 260.83 82.8791 345.395 138.025 356.94C193.17 368.484 253.522 302.638 272.823 209.867Z" stroke="url(#paint45_linear_121_1472)" stroke-opacity="0.6" stroke-width="2" stroke-miterlimit="10"/>
<path d="M284.411 208.498C300.687 114.884 263.981 30.2661 202.428 19.4978C140.875 8.72959 77.7817 75.8889 61.5063 169.502C45.2309 263.116 81.9361 347.734 143.49 358.503C205.043 369.271 268.136 302.111 284.411 208.498Z" stroke="url(#paint46_linear_121_1472)" stroke-opacity="0.6" stroke-width="2" stroke-miterlimit="10"/>
<path d="M297.267 206.328C310.399 112.057 265.401 27.8348 196.759 18.2129C128.118 8.59096 61.8271 77.2128 48.6944 171.484C35.5617 265.755 80.5603 349.977 149.202 359.599C217.843 369.221 284.134 300.599 297.267 206.328Z" stroke="url(#paint47_linear_121_1472)" stroke-opacity="0.6" stroke-width="2" stroke-miterlimit="10"/>
<path d="M311.473 203.561C321.375 108.848 267.361 25.541 190.829 17.4895C114.296 9.43807 44.227 79.6911 34.3246 174.404C24.4222 269.117 78.4366 352.424 154.969 360.476C231.501 368.527 301.571 298.274 311.473 203.561Z" stroke="url(#paint48_linear_121_1472)" stroke-opacity="0.6" stroke-width="2" stroke-miterlimit="10"/>
<path d="M327.423 199.739C334.05 104.679 270.29 22.7686 185.012 16.787C99.7336 10.8054 25.2302 83.0177 18.6038 178.078C11.9775 273.138 75.7374 355.048 161.016 361.03C246.294 367.011 320.797 294.799 327.423 199.739Z" stroke="url(#paint49_linear_121_1472)" stroke-opacity="0.6" stroke-width="2" stroke-miterlimit="10"/>
<path d="M173 361.505C267.993 361.505 345 284.258 345 188.969C345 93.6804 267.993 16.4336 173 16.4336C78.0071 16.4336 1 93.6804 1 188.969C1 284.258 78.0071 361.505 173 361.505Z" stroke="url(#paint50_linear_121_1472)" stroke-opacity="0.6" stroke-width="2" stroke-miterlimit="10"/>
<defs>
<linearGradient id="paint0_linear_121_1472" x1="170.375" y1="183.976" x2="175.669" y2="193.911" gradientUnits="userSpaceOnUse">
<stop stop-color="#FE8900"/>
<stop offset="1" stop-color="#FDD800" stop-opacity="0.6"/>
</linearGradient>
<linearGradient id="paint1_linear_121_1472" x1="170.201" y1="183.878" x2="175.873" y2="194.033" gradientUnits="userSpaceOnUse">
<stop stop-color="#FE8900"/>
<stop offset="1" stop-color="#FDD800" stop-opacity="0.6"/>
</linearGradient>
<linearGradient id="paint2_linear_121_1472" x1="170.082" y1="183.747" x2="176.136" y2="194.116" gradientUnits="userSpaceOnUse">
<stop stop-color="#FE8900"/>
<stop offset="1" stop-color="#FDD800" stop-opacity="0.6"/>
</linearGradient>
<linearGradient id="paint3_linear_121_1472" x1="169.744" y1="183.709" x2="176.183" y2="194.283" gradientUnits="userSpaceOnUse">
<stop stop-color="#FE8900"/>
<stop offset="1" stop-color="#FDD800" stop-opacity="0.6"/>
</linearGradient>
<linearGradient id="paint4_linear_121_1472" x1="169.653" y1="183.597" x2="176.482" y2="194.37" gradientUnits="userSpaceOnUse">
<stop stop-color="#FE8900"/>
<stop offset="1" stop-color="#FDD800" stop-opacity="0.6"/>
</linearGradient>
<linearGradient id="paint5_linear_121_1472" x1="169.416" y1="183.45" x2="176.638" y2="194.415" gradientUnits="userSpaceOnUse">
<stop stop-color="#FE8900"/>
<stop offset="1" stop-color="#FDD800" stop-opacity="0.6"/>
</linearGradient>
<linearGradient id="paint6_linear_121_1472" x1="169.077" y1="183.343" x2="176.802" y2="194.647" gradientUnits="userSpaceOnUse">
<stop stop-color="#FE8900"/>
<stop offset="1" stop-color="#FDD800" stop-opacity="0.6"/>
</linearGradient>
<linearGradient id="paint7_linear_121_1472" x1="168.823" y1="183.154" x2="177.06" y2="194.785" gradientUnits="userSpaceOnUse">
<stop stop-color="#FE8900"/>
<stop offset="1" stop-color="#FDD800" stop-opacity="0.6"/>
</linearGradient>
<linearGradient id="paint8_linear_121_1472" x1="168.627" y1="182.947" x2="177.386" y2="194.896" gradientUnits="userSpaceOnUse">
<stop stop-color="#FE8900"/>
<stop offset="1" stop-color="#FDD800" stop-opacity="0.6"/>
</linearGradient>
<linearGradient id="paint9_linear_121_1472" x1="168.389" y1="182.92" x2="177.676" y2="195.176" gradientUnits="userSpaceOnUse">
<stop stop-color="#FE8900"/>
<stop offset="1" stop-color="#FDD800" stop-opacity="0.6"/>
</linearGradient>
<linearGradient id="paint10_linear_121_1472" x1="168.147" y1="182.573" x2="178.09" y2="195.271" gradientUnits="userSpaceOnUse">
<stop stop-color="#FE8900"/>
<stop offset="1" stop-color="#FDD800" stop-opacity="0.6"/>
</linearGradient>
<linearGradient id="paint11_linear_121_1472" x1="167.697" y1="182.446" x2="178.306" y2="195.569" gradientUnits="userSpaceOnUse">
<stop stop-color="#FE8900"/>
<stop offset="1" stop-color="#FDD800" stop-opacity="0.6"/>
</linearGradient>
<linearGradient id="paint12_linear_121_1472" x1="167.281" y1="182.19" x2="178.571" y2="195.724" gradientUnits="userSpaceOnUse">
<stop stop-color="#FE8900"/>
<stop offset="1" stop-color="#FDD800" stop-opacity="0.6"/>
</linearGradient>
<linearGradient id="paint13_linear_121_1472" x1="167.028" y1="181.945" x2="179.013" y2="195.873" gradientUnits="userSpaceOnUse">
<stop stop-color="#FE8900"/>
<stop offset="1" stop-color="#FDD800" stop-opacity="0.6"/>
</linearGradient>
<linearGradient id="paint14_linear_121_1472" x1="166.659" y1="181.746" x2="179.475" y2="196.192" gradientUnits="userSpaceOnUse">
<stop stop-color="#FE8900"/>
<stop offset="1" stop-color="#FDD800" stop-opacity="0.6"/>
</linearGradient>
<linearGradient id="paint15_linear_121_1472" x1="166.122" y1="181.431" x2="179.913" y2="196.512" gradientUnits="userSpaceOnUse">
<stop stop-color="#FE8900"/>
<stop offset="1" stop-color="#FDD800" stop-opacity="0.6"/>
</linearGradient>
<linearGradient id="paint16_linear_121_1472" x1="165.701" y1="181.073" x2="180.489" y2="196.763" gradientUnits="userSpaceOnUse">
<stop stop-color="#FE8900"/>
<stop offset="1" stop-color="#FDD800" stop-opacity="0.6"/>
</linearGradient>
<linearGradient id="paint17_linear_121_1472" x1="165.189" y1="180.773" x2="180.994" y2="197.044" gradientUnits="userSpaceOnUse">
<stop stop-color="#FE8900"/>
<stop offset="1" stop-color="#FDD800" stop-opacity="0.6"/>
</linearGradient>
<linearGradient id="paint18_linear_121_1472" x1="164.532" y1="180.517" x2="181.507" y2="197.473" gradientUnits="userSpaceOnUse">
<stop stop-color="#FE8900"/>
<stop offset="1" stop-color="#FDD800" stop-opacity="0.6"/>
</linearGradient>
<linearGradient id="paint19_linear_121_1472" x1="163.974" y1="180.153" x2="182.148" y2="197.762" gradientUnits="userSpaceOnUse">
<stop stop-color="#FE8900"/>
<stop offset="1" stop-color="#FDD800" stop-opacity="0.6"/>
</linearGradient>
<linearGradient id="paint20_linear_121_1472" x1="163.183" y1="179.655" x2="182.853" y2="198.137" gradientUnits="userSpaceOnUse">
<stop stop-color="#FE8900"/>
<stop offset="1" stop-color="#FDD800" stop-opacity="0.6"/>
</linearGradient>
<linearGradient id="paint21_linear_121_1472" x1="162.518" y1="179.354" x2="183.578" y2="198.54" gradientUnits="userSpaceOnUse">
<stop stop-color="#FE8900"/>
<stop offset="1" stop-color="#FDD800" stop-opacity="0.6"/>
</linearGradient>
<linearGradient id="paint22_linear_121_1472" x1="161.612" y1="178.808" x2="184.374" y2="198.9" gradientUnits="userSpaceOnUse">
<stop stop-color="#FE8900"/>
<stop offset="1" stop-color="#FDD800" stop-opacity="0.6"/>
</linearGradient>
<linearGradient id="paint23_linear_121_1472" x1="160.747" y1="178.436" x2="185.39" y2="199.505" gradientUnits="userSpaceOnUse">
<stop stop-color="#FE8900"/>
<stop offset="1" stop-color="#FDD800" stop-opacity="0.6"/>
</linearGradient>
<linearGradient id="paint24_linear_121_1472" x1="159.708" y1="177.974" x2="186.275" y2="199.953" gradientUnits="userSpaceOnUse">
<stop stop-color="#FE8900"/>
<stop offset="1" stop-color="#FDD800" stop-opacity="0.6"/>
</linearGradient>
<linearGradient id="paint25_linear_121_1472" x1="158.603" y1="177.299" x2="187.432" y2="200.357" gradientUnits="userSpaceOnUse">
<stop stop-color="#FE8900"/>
<stop offset="1" stop-color="#FDD800" stop-opacity="0.6"/>
</linearGradient>
<linearGradient id="paint26_linear_121_1472" x1="157.386" y1="176.801" x2="188.672" y2="200.974" gradientUnits="userSpaceOnUse">
<stop stop-color="#FE8900"/>
<stop offset="1" stop-color="#FDD800" stop-opacity="0.6"/>
</linearGradient>
<linearGradient id="paint27_linear_121_1472" x1="155.973" y1="176.261" x2="190.072" y2="201.683" gradientUnits="userSpaceOnUse">
<stop stop-color="#FE8900"/>
<stop offset="1" stop-color="#FDD800" stop-opacity="0.6"/>
</linearGradient>
<linearGradient id="paint28_linear_121_1472" x1="154.517" y1="175.634" x2="191.493" y2="202.195" gradientUnits="userSpaceOnUse">
<stop stop-color="#FE8900"/>
<stop offset="1" stop-color="#FDD800" stop-opacity="0.6"/>
</linearGradient>
<linearGradient id="paint29_linear_121_1472" x1="152.768" y1="174.947" x2="193.147" y2="202.853" gradientUnits="userSpaceOnUse">
<stop stop-color="#FE8900"/>
<stop offset="1" stop-color="#FDD800" stop-opacity="0.6"/>
</linearGradient>
<linearGradient id="paint30_linear_121_1472" x1="150.945" y1="174.181" x2="195.118" y2="203.499" gradientUnits="userSpaceOnUse">
<stop stop-color="#FE8900"/>
<stop offset="1" stop-color="#FDD800" stop-opacity="0.6"/>
</linearGradient>
<linearGradient id="paint31_linear_121_1472" x1="148.984" y1="173.498" x2="197.192" y2="204.169" gradientUnits="userSpaceOnUse">
<stop stop-color="#FE8900"/>
<stop offset="1" stop-color="#FDD800" stop-opacity="0.6"/>
</linearGradient>
<linearGradient id="paint32_linear_121_1472" x1="146.593" y1="172.724" x2="199.562" y2="204.954" gradientUnits="userSpaceOnUse">
<stop stop-color="#FE8900"/>
<stop offset="1" stop-color="#FDD800" stop-opacity="0.6"/>
</linearGradient>
<linearGradient id="paint33_linear_121_1472" x1="144.093" y1="172.063" x2="202.088" y2="205.727" gradientUnits="userSpaceOnUse">
<stop stop-color="#FE8900"/>
<stop offset="1" stop-color="#FDD800" stop-opacity="0.6"/>
</linearGradient>
<linearGradient id="paint34_linear_121_1472" x1="141.068" y1="171.264" x2="204.85" y2="206.472" gradientUnits="userSpaceOnUse">
<stop stop-color="#FE8900"/>
<stop offset="1" stop-color="#FDD800" stop-opacity="0.6"/>
</linearGradient>
<linearGradient id="paint35_linear_121_1472" x1="137.88" y1="170.537" x2="208.236" y2="207.357" gradientUnits="userSpaceOnUse">
<stop stop-color="#FE8900"/>
<stop offset="1" stop-color="#FDD800" stop-opacity="0.6"/>
</linearGradient>
<linearGradient id="paint36_linear_121_1472" x1="134.311" y1="169.733" x2="211.881" y2="208.061" gradientUnits="userSpaceOnUse">
<stop stop-color="#FE8900"/>
<stop offset="1" stop-color="#FDD800" stop-opacity="0.6"/>
</linearGradient>
<linearGradient id="paint37_linear_121_1472" x1="130.22" y1="168.933" x2="215.993" y2="208.767" gradientUnits="userSpaceOnUse">
<stop stop-color="#FE8900"/>
<stop offset="1" stop-color="#FDD800" stop-opacity="0.6"/>
</linearGradient>
<linearGradient id="paint38_linear_121_1472" x1="125.587" y1="168.257" x2="220.398" y2="209.422" gradientUnits="userSpaceOnUse">
<stop stop-color="#FE8900"/>
<stop offset="1" stop-color="#FDD800" stop-opacity="0.6"/>
</linearGradient>
<linearGradient id="paint39_linear_121_1472" x1="120.395" y1="167.682" x2="225.614" y2="210.142" gradientUnits="userSpaceOnUse">
<stop stop-color="#FE8900"/>
<stop offset="1" stop-color="#FDD800" stop-opacity="0.6"/>
</linearGradient>
<linearGradient id="paint40_linear_121_1472" x1="114.645" y1="167.123" x2="231.329" y2="210.557" gradientUnits="userSpaceOnUse">
<stop stop-color="#FE8900"/>
<stop offset="1" stop-color="#FDD800" stop-opacity="0.6"/>
</linearGradient>
<linearGradient id="paint41_linear_121_1472" x1="108.147" y1="166.8" x2="237.875" y2="210.97" gradientUnits="userSpaceOnUse">
<stop stop-color="#FE8900"/>
<stop offset="1" stop-color="#FDD800" stop-opacity="0.6"/>
</linearGradient>
<linearGradient id="paint42_linear_121_1472" x1="100.839" y1="166.601" x2="245.219" y2="211.089" gradientUnits="userSpaceOnUse">
<stop stop-color="#FE8900"/>
<stop offset="1" stop-color="#FDD800" stop-opacity="0.6"/>
</linearGradient>
<linearGradient id="paint43_linear_121_1472" x1="92.5287" y1="166.708" x2="253.339" y2="210.964" gradientUnits="userSpaceOnUse">
<stop stop-color="#FE8900"/>
<stop offset="1" stop-color="#FDD800" stop-opacity="0.6"/>
</linearGradient>
<linearGradient id="paint44_linear_121_1472" x1="83.4196" y1="167.168" x2="262.635" y2="210.519" gradientUnits="userSpaceOnUse">
<stop stop-color="#FE8900"/>
<stop offset="1" stop-color="#FDD800" stop-opacity="0.6"/>
</linearGradient>
<linearGradient id="paint45_linear_121_1472" x1="73.1232" y1="168.06" x2="272.875" y2="209.619" gradientUnits="userSpaceOnUse">
<stop stop-color="#FE8900"/>
<stop offset="1" stop-color="#FDD800" stop-opacity="0.6"/>
</linearGradient>
<linearGradient id="paint46_linear_121_1472" x1="61.5063" y1="169.503" x2="284.452" y2="208.263" gradientUnits="userSpaceOnUse">
<stop stop-color="#FE8900"/>
<stop offset="1" stop-color="#FDD800" stop-opacity="0.6"/>
</linearGradient>
<linearGradient id="paint47_linear_121_1472" x1="48.6944" y1="171.484" x2="297.296" y2="206.116" gradientUnits="userSpaceOnUse">
<stop stop-color="#FE8900"/>
<stop offset="1" stop-color="#FDD800" stop-opacity="0.6"/>
</linearGradient>
<linearGradient id="paint48_linear_121_1472" x1="34.3246" y1="174.404" x2="311.492" y2="203.382" gradientUnits="userSpaceOnUse">
<stop stop-color="#FE8900"/>
<stop offset="1" stop-color="#FDD800" stop-opacity="0.6"/>
</linearGradient>
<linearGradient id="paint49_linear_121_1472" x1="18.6038" y1="178.078" x2="327.433" y2="199.605" gradientUnits="userSpaceOnUse">
<stop stop-color="#FE8900"/>
<stop offset="1" stop-color="#FDD800" stop-opacity="0.6"/>
</linearGradient>
<linearGradient id="paint50_linear_121_1472" x1="173" y1="16.4336" x2="173" y2="361.505" gradientUnits="userSpaceOnUse">
<stop stop-color="#FE8900"/>
<stop offset="1" stop-color="#FDD800" stop-opacity="0.6"/>
</linearGradient>
</defs>
</svg>
