<svg width="345" height="306" viewBox="0 0 345 306" fill="none" xmlns="http://www.w3.org/2000/svg">
<path d="M344 86.0625C344 109.244 325.14 130.501 294.029 146.023C262.979 161.515 220.013 171.125 172.5 171.125C124.987 171.125 82.021 161.515 50.9705 146.023C19.8596 130.501 1 109.244 1 86.0625C1 62.881 19.8596 41.6236 50.9705 26.1019C82.021 10.6105 124.987 1 172.5 1C220.013 1 262.979 10.6105 294.029 26.1019C325.14 41.6236 344 62.881 344 86.0625Z" stroke="url(#paint0_linear_121_1639)" stroke-opacity="0.6" stroke-width="2"/>
<path d="M344 95.625C344 118.807 325.14 140.064 294.029 155.586C262.979 171.077 220.013 180.687 172.5 180.687C124.987 180.687 82.021 171.077 50.9705 155.586C19.8596 140.064 1 118.807 1 95.625C1 72.4435 19.8596 51.1861 50.9705 35.6644C82.021 20.173 124.987 10.5625 172.5 10.5625C220.013 10.5625 262.979 20.173 294.029 35.6644C325.14 51.1861 344 72.4435 344 95.625Z" stroke="url(#paint1_linear_121_1639)" stroke-opacity="0.6" stroke-width="2"/>
<path d="M344 105.187C344 128.369 325.14 149.626 294.029 165.148C262.979 180.64 220.013 190.25 172.5 190.25C124.987 190.25 82.021 180.64 50.9705 165.148C19.8596 149.626 1 128.369 1 105.187C1 82.006 19.8596 60.7486 50.9705 45.2269C82.021 29.7355 124.987 20.125 172.5 20.125C220.013 20.125 262.979 29.7355 294.029 45.2269C325.14 60.7486 344 82.006 344 105.187Z" stroke="url(#paint2_linear_121_1639)" stroke-opacity="0.6" stroke-width="2"/>
<path d="M344 114.75C344 137.931 325.14 159.188 294.029 174.71C262.979 190.202 220.013 199.812 172.5 199.812C124.987 199.812 82.021 190.202 50.9705 174.71C19.8596 159.188 1 137.931 1 114.75C1 91.568 19.8596 70.3106 50.9705 54.7889C82.021 39.2975 124.987 29.687 172.5 29.687C220.013 29.687 262.979 39.2975 294.029 54.7889C325.14 70.3106 344 91.568 344 114.75Z" stroke="url(#paint3_linear_121_1639)" stroke-opacity="0.6" stroke-width="2"/>
<path d="M344 124.312C344 147.494 325.14 168.751 294.029 184.273C262.979 199.765 220.013 209.375 172.5 209.375C124.987 209.375 82.021 199.765 50.9705 184.273C19.8596 168.751 1 147.494 1 124.312C1 101.131 19.8596 79.8736 50.9705 64.3519C82.021 48.8605 124.987 39.25 172.5 39.25C220.013 39.25 262.979 48.8605 294.029 64.3519C325.14 79.8736 344 101.131 344 124.312Z" stroke="url(#paint4_linear_121_1639)" stroke-opacity="0.6" stroke-width="2"/>
<path d="M344 133.875C344 157.057 325.14 178.314 294.029 193.836C262.979 209.327 220.013 218.937 172.5 218.937C124.987 218.937 82.021 209.327 50.9705 193.836C19.8596 178.314 1 157.057 1 133.875C1 110.693 19.8596 89.4361 50.9705 73.9144C82.021 58.423 124.987 48.8125 172.5 48.8125C220.013 48.8125 262.979 58.423 294.029 73.9144C325.14 89.4361 344 110.693 344 133.875Z" stroke="url(#paint5_linear_121_1639)" stroke-opacity="0.6" stroke-width="2"/>
<path d="M344 143.437C344 166.619 325.14 187.876 294.029 203.398C262.979 218.89 220.013 228.5 172.5 228.5C124.987 228.5 82.021 218.89 50.9705 203.398C19.8596 187.876 1 166.619 1 143.437C1 120.256 19.8596 98.9986 50.9705 83.4769C82.021 67.9855 124.987 58.375 172.5 58.375C220.013 58.375 262.979 67.9855 294.029 83.4769C325.14 98.9986 344 120.256 344 143.437Z" stroke="url(#paint6_linear_121_1639)" stroke-opacity="0.6" stroke-width="2"/>
<path d="M344 153C344 176.182 325.14 197.439 294.029 212.961C262.979 228.452 220.013 238.062 172.5 238.062C124.987 238.062 82.021 228.452 50.9705 212.961C19.8596 197.439 1 176.182 1 153C1 129.818 19.8596 108.561 50.9705 93.0394C82.021 77.548 124.987 67.9375 172.5 67.9375C220.013 67.9375 262.979 77.548 294.029 93.0394C325.14 108.561 344 129.818 344 153Z" stroke="url(#paint7_linear_121_1639)" stroke-opacity="0.6" stroke-width="2"/>
<path d="M344 162.562C344 185.744 325.14 207.001 294.029 222.523C262.979 238.015 220.013 247.625 172.5 247.625C124.987 247.625 82.021 238.015 50.9705 222.523C19.8596 207.001 1 185.744 1 162.562C1 139.381 19.8596 118.124 50.9705 102.602C82.021 87.1105 124.987 77.5 172.5 77.5C220.013 77.5 262.979 87.1105 294.029 102.602C325.14 118.124 344 139.381 344 162.562Z" stroke="url(#paint8_linear_121_1639)" stroke-opacity="0.6" stroke-width="2"/>
<path d="M344 172.125C344 195.307 325.14 216.564 294.029 232.086C262.979 247.577 220.013 257.187 172.5 257.187C124.987 257.187 82.021 247.577 50.9705 232.086C19.8596 216.564 1 195.307 1 172.125C1 148.943 19.8596 127.686 50.9705 112.164C82.021 96.673 124.987 87.0625 172.5 87.0625C220.013 87.0625 262.979 96.673 294.029 112.164C325.14 127.686 344 148.943 344 172.125Z" stroke="url(#paint9_linear_121_1639)" stroke-opacity="0.6" stroke-width="2"/>
<path d="M344 181.687C344 204.869 325.14 226.126 294.029 241.648C262.979 257.14 220.013 266.75 172.5 266.75C124.987 266.75 82.021 257.14 50.9705 241.648C19.8596 226.126 1 204.869 1 181.687C1 158.506 19.8596 137.249 50.9705 121.727C82.021 106.235 124.987 96.625 172.5 96.625C220.013 96.625 262.979 106.235 294.029 121.727C325.14 137.249 344 158.506 344 181.687Z" stroke="url(#paint10_linear_121_1639)" stroke-opacity="0.6" stroke-width="2"/>
<path d="M344 191.25C344 214.432 325.14 235.689 294.029 251.211C262.979 266.702 220.013 276.312 172.5 276.312C124.987 276.312 82.021 266.702 50.9705 251.211C19.8596 235.689 1 214.432 1 191.25C1 168.068 19.8596 146.811 50.9705 131.289C82.021 115.798 124.987 106.188 172.5 106.188C220.013 106.188 262.979 115.798 294.029 131.289C325.14 146.811 344 168.068 344 191.25Z" stroke="url(#paint11_linear_121_1639)" stroke-opacity="0.6" stroke-width="2"/>
<path d="M344 200.812C344 223.994 325.14 245.251 294.029 260.773C262.979 276.264 220.013 285.874 172.5 285.874C124.987 285.874 82.021 276.264 50.9705 260.773C19.8596 245.251 1 223.994 1 200.812C1 177.63 19.8596 156.373 50.9705 140.851C82.021 125.36 124.987 115.75 172.5 115.75C220.013 115.75 262.979 125.36 294.029 140.851C325.14 156.373 344 177.63 344 200.812Z" stroke="url(#paint12_linear_121_1639)" stroke-opacity="0.6" stroke-width="2"/>
<path d="M344 210.375C344 233.557 325.14 254.814 294.029 270.336C262.979 285.827 220.013 295.437 172.5 295.437C124.987 295.437 82.021 285.827 50.9705 270.336C19.8596 254.814 1 233.557 1 210.375C1 187.193 19.8596 165.936 50.9705 150.414C82.021 134.923 124.987 125.312 172.5 125.312C220.013 125.312 262.979 134.923 294.029 150.414C325.14 165.936 344 187.193 344 210.375Z" stroke="url(#paint13_linear_121_1639)" stroke-opacity="0.6" stroke-width="2"/>
<path d="M344 219.937C344 243.119 325.14 264.376 294.029 279.898C262.979 295.39 220.013 305 172.5 305C124.987 305 82.021 295.39 50.9705 279.898C19.8596 264.376 1 243.119 1 219.937C1 196.756 19.8596 175.499 50.9705 159.977C82.021 144.485 124.987 134.875 172.5 134.875C220.013 134.875 262.979 144.485 294.029 159.977C325.14 175.499 344 196.756 344 219.937Z" stroke="url(#paint14_linear_121_1639)" stroke-opacity="0.6" stroke-width="2"/>
<defs>
<linearGradient id="paint0_linear_121_1639" x1="172.5" y1="0" x2="172.5" y2="172.125" gradientUnits="userSpaceOnUse">
<stop stop-color="#FE8900"/>
<stop offset="1" stop-color="#FDD800" stop-opacity="0.6"/>
</linearGradient>
<linearGradient id="paint1_linear_121_1639" x1="172.5" y1="9.5625" x2="172.5" y2="181.687" gradientUnits="userSpaceOnUse">
<stop stop-color="#FE8900"/>
<stop offset="1" stop-color="#FDD800" stop-opacity="0.6"/>
</linearGradient>
<linearGradient id="paint2_linear_121_1639" x1="172.5" y1="19.125" x2="172.5" y2="191.25" gradientUnits="userSpaceOnUse">
<stop stop-color="#FE8900"/>
<stop offset="1" stop-color="#FDD800" stop-opacity="0.6"/>
</linearGradient>
<linearGradient id="paint3_linear_121_1639" x1="172.5" y1="28.687" x2="172.5" y2="200.812" gradientUnits="userSpaceOnUse">
<stop stop-color="#FE8900"/>
<stop offset="1" stop-color="#FDD800" stop-opacity="0.6"/>
</linearGradient>
<linearGradient id="paint4_linear_121_1639" x1="172.5" y1="38.25" x2="172.5" y2="210.375" gradientUnits="userSpaceOnUse">
<stop stop-color="#FE8900"/>
<stop offset="1" stop-color="#FDD800" stop-opacity="0.6"/>
</linearGradient>
<linearGradient id="paint5_linear_121_1639" x1="172.5" y1="47.8125" x2="172.5" y2="219.937" gradientUnits="userSpaceOnUse">
<stop stop-color="#FE8900"/>
<stop offset="1" stop-color="#FDD800" stop-opacity="0.6"/>
</linearGradient>
<linearGradient id="paint6_linear_121_1639" x1="172.5" y1="57.375" x2="172.5" y2="229.5" gradientUnits="userSpaceOnUse">
<stop stop-color="#FE8900"/>
<stop offset="1" stop-color="#FDD800" stop-opacity="0.6"/>
</linearGradient>
<linearGradient id="paint7_linear_121_1639" x1="172.5" y1="66.9375" x2="172.5" y2="239.062" gradientUnits="userSpaceOnUse">
<stop stop-color="#FE8900"/>
<stop offset="1" stop-color="#FDD800" stop-opacity="0.6"/>
</linearGradient>
<linearGradient id="paint8_linear_121_1639" x1="172.5" y1="76.5" x2="172.5" y2="248.625" gradientUnits="userSpaceOnUse">
<stop stop-color="#FE8900"/>
<stop offset="1" stop-color="#FDD800" stop-opacity="0.6"/>
</linearGradient>
<linearGradient id="paint9_linear_121_1639" x1="172.5" y1="86.0625" x2="172.5" y2="258.187" gradientUnits="userSpaceOnUse">
<stop stop-color="#FE8900"/>
<stop offset="1" stop-color="#FDD800" stop-opacity="0.6"/>
</linearGradient>
<linearGradient id="paint10_linear_121_1639" x1="172.5" y1="95.625" x2="172.5" y2="267.75" gradientUnits="userSpaceOnUse">
<stop stop-color="#FE8900"/>
<stop offset="1" stop-color="#FDD800" stop-opacity="0.6"/>
</linearGradient>
<linearGradient id="paint11_linear_121_1639" x1="172.5" y1="105.187" x2="172.5" y2="277.312" gradientUnits="userSpaceOnUse">
<stop stop-color="#FE8900"/>
<stop offset="1" stop-color="#FDD800" stop-opacity="0.6"/>
</linearGradient>
<linearGradient id="paint12_linear_121_1639" x1="172.5" y1="114.75" x2="172.5" y2="286.874" gradientUnits="userSpaceOnUse">
<stop stop-color="#FE8900"/>
<stop offset="1" stop-color="#FDD800" stop-opacity="0.6"/>
</linearGradient>
<linearGradient id="paint13_linear_121_1639" x1="172.5" y1="124.312" x2="172.5" y2="296.437" gradientUnits="userSpaceOnUse">
<stop stop-color="#FE8900"/>
<stop offset="1" stop-color="#FDD800" stop-opacity="0.6"/>
</linearGradient>
<linearGradient id="paint14_linear_121_1639" x1="172.5" y1="133.875" x2="172.5" y2="306" gradientUnits="userSpaceOnUse">
<stop stop-color="#FE8900"/>
<stop offset="1" stop-color="#FDD800" stop-opacity="0.6"/>
</linearGradient>
</defs>
</svg>
