<svg width="375" height="400" viewBox="0 0 375 400" fill="none" xmlns="http://www.w3.org/2000/svg">
<g opacity="0.5">
<path d="M158.965 163.909L170.995 178.737L153.696 155.749L171.591 178.936L161.252 164.407L178.153 186.996L178.749 186.598L188.194 199.933L199.428 213.766L197.838 212.77L215.435 235.559L203.405 220.632L220.704 243.62L202.808 220.533L213.148 234.962L196.247 212.372L195.65 212.87L186.206 199.436L174.971 185.703L176.562 186.598L158.965 163.909Z" stroke="url(#paint0_linear_121_2201)" stroke-opacity="0.2" stroke-miterlimit="10"/>
<path d="M157.971 162.416L170.398 177.94L152.603 154.057L171.094 178.139L160.457 163.112L177.855 186.498L178.551 186.2L188.294 200.032L199.925 214.362L198.235 213.367L216.429 236.952L204.002 221.527L221.797 245.311L203.306 221.328L213.943 236.255L196.446 212.869L195.849 213.267L186.106 199.435L174.474 185.105L176.165 186.1L157.971 162.416Z" stroke="url(#paint1_linear_121_2201)" stroke-opacity="0.2" stroke-miterlimit="10"/>
<path d="M156.877 161.023L169.802 177.045L151.409 152.366L170.597 177.244L159.661 161.82L177.656 186.101L178.352 185.703L188.393 200.033L200.422 214.96L198.633 213.865L217.423 238.445L204.499 222.324L222.891 247.103L203.803 222.125L214.738 237.649L196.744 213.368L195.948 213.666L186.007 199.336L173.878 184.409L175.767 185.504L156.877 161.023Z" stroke="url(#paint2_linear_121_2201)" stroke-opacity="0.2" stroke-miterlimit="10"/>
<path d="M155.784 159.432L169.206 176.15L150.316 150.575L170.001 176.449L158.866 160.427L177.358 185.604L178.253 185.306L188.493 200.133L201.019 215.657L199.031 214.463L218.517 239.939L205.096 223.22L224.084 248.895L204.3 222.922L215.534 239.043L196.943 213.866L196.148 214.165L185.908 199.337L173.381 183.713L175.27 184.907L155.784 159.432Z" stroke="url(#paint3_linear_121_2201)" stroke-opacity="0.2" stroke-miterlimit="10"/>
<path d="M154.69 157.838L168.609 175.253L149.123 148.683L169.503 175.552L158.07 158.933L177.159 185.105L178.053 184.807L188.592 200.132L201.615 216.353L199.528 215.059L219.61 241.529L205.691 224.115L225.277 250.685L204.896 223.816L216.329 240.435L197.241 214.362L196.247 214.561L185.808 199.236L172.784 183.015L174.872 184.309L154.69 157.838Z" stroke="url(#paint4_linear_121_2201)" stroke-opacity="0.2" stroke-miterlimit="10"/>
<path d="M153.597 156.245L168.013 174.356L147.93 146.691L169.007 174.655L157.176 157.538L176.861 184.606L177.954 184.407L188.691 200.23L202.212 217.147L199.926 215.654L220.803 243.22L206.288 225.009L226.47 252.674L205.394 224.71L217.125 241.926L197.54 214.858L196.446 215.057L185.61 199.135L172.188 182.317L174.375 183.711L153.597 156.245Z" stroke="url(#paint5_linear_121_2201)" stroke-opacity="0.2" stroke-miterlimit="10"/>
<path d="M152.503 154.554L167.416 173.362L146.638 144.801L168.41 173.76L156.381 155.947L176.662 184.01L177.855 183.91L188.89 200.33L202.908 217.844L200.423 216.352L221.897 244.912L206.984 226.005L227.663 254.665L205.891 225.606L218.02 243.419L197.738 215.357L196.545 215.456L185.51 199.036L171.492 181.522L173.978 183.015L152.503 154.554Z" stroke="url(#paint6_linear_121_2201)" stroke-opacity="0.2" stroke-miterlimit="10"/>
<path d="M151.31 152.763L166.72 172.367L145.445 142.712L167.913 172.865L155.486 154.454L176.363 183.513L177.755 183.413L188.989 200.43L203.505 218.641L200.92 217.049L223.09 246.604L207.581 227L228.955 256.655L206.487 226.602L218.815 245.012L198.037 215.855L196.645 215.954L185.41 199.037L170.796 180.726L173.48 182.418L151.31 152.763Z" stroke="url(#paint7_linear_121_2201)" stroke-opacity="0.2" stroke-miterlimit="10"/>
<path d="M150.018 150.972L166.123 171.372L144.152 140.622L167.316 171.869L154.69 152.862L176.165 183.015H177.656L189.188 200.529L204.2 219.537L201.417 217.745L224.283 248.495L208.277 228.095L230.248 258.845L207.084 227.597L219.71 246.604L198.235 216.452H196.744L185.212 198.937L170.2 179.93L172.983 181.721L150.018 150.972Z" stroke="url(#paint8_linear_121_2201)" stroke-opacity="0.2" stroke-miterlimit="10"/>
<path d="M148.825 149.08L165.428 170.276L142.86 138.432L166.82 170.873L153.895 151.169L175.867 182.417L177.557 182.516L189.288 200.628L204.897 220.332L201.914 218.441L225.576 250.285L208.873 229.089L231.541 260.933L207.581 228.591L220.505 248.195L198.434 216.948H196.844L185.013 198.836L169.405 179.033L172.486 180.924L148.825 149.08Z" stroke="url(#paint9_linear_121_2201)" stroke-opacity="0.2" stroke-miterlimit="10"/>
<path d="M147.532 147.091L164.83 169.183L141.567 136.145L166.222 169.78L153 149.479L175.667 181.821L177.456 182.021L189.486 200.729L205.691 221.229L202.41 219.139L226.768 252.277L209.568 230.185L232.832 263.224L208.177 229.588L221.399 249.889L198.732 217.547L196.843 217.348L184.913 198.639L168.708 178.139L171.889 180.229L147.532 147.091Z" stroke="url(#paint10_linear_121_2201)" stroke-opacity="0.2" stroke-miterlimit="10"/>
<path d="M146.24 145.102L164.135 168.09L140.275 133.857L165.626 168.786L152.205 147.789L175.469 181.325L177.457 181.524L189.686 200.83L206.487 222.225L203.008 219.936L228.061 254.269L210.265 231.381L234.125 265.514L208.674 230.684L222.195 251.582L198.931 218.145L196.943 217.847L184.715 198.541L167.913 177.245L171.393 179.434L146.24 145.102Z" stroke="url(#paint11_linear_121_2201)" stroke-opacity="0.2" stroke-miterlimit="10"/>
<path d="M144.947 143.01L163.439 166.894L138.982 131.566L165.129 167.69L151.41 145.996L175.17 180.726L177.457 181.025L189.884 200.928L207.282 223.219L203.604 220.731L229.353 256.357L210.961 232.473L235.418 267.9L209.271 231.777L222.99 253.371L199.13 218.74L196.943 218.343L184.516 198.44L167.118 176.248L170.796 178.636L144.947 143.01Z" stroke="url(#paint12_linear_121_2201)" stroke-opacity="0.2" stroke-miterlimit="10"/>
<path d="M143.655 140.921L162.743 165.7L137.591 129.079L164.533 166.596L150.515 144.205L174.972 180.13L177.457 180.528L190.083 201.127L208.078 224.214L204.101 221.627L230.745 258.447L211.657 233.668L236.71 270.289L209.867 232.872L223.786 255.163L199.329 219.338L196.943 218.841L184.217 198.341L166.322 175.254L170.2 177.841L143.655 140.921Z" stroke="url(#paint13_linear_121_2201)" stroke-opacity="0.2" stroke-miterlimit="10"/>
<path d="M142.263 138.732L162.047 164.407L136.298 126.591L163.936 165.402L149.719 142.414L174.773 179.433L177.556 180.03L190.381 201.227L208.973 225.21L204.698 222.423L232.137 260.637L212.353 234.962L238.102 272.777L210.364 233.967L224.581 257.054L199.528 219.935L196.843 219.338L184.019 198.142L165.428 174.159L169.703 176.945L142.263 138.732Z" stroke="url(#paint14_linear_121_2201)" stroke-opacity="0.2" stroke-miterlimit="10"/>
<path d="M140.872 136.443L161.252 163.212L135.006 124.003L163.439 164.207L149.024 140.523L174.574 178.836L177.557 179.632L190.58 201.425L209.867 226.403L205.294 223.318L233.429 262.925L213.049 236.255L239.394 275.364L210.961 235.16L225.377 258.944L199.727 220.532L196.744 219.835L183.721 197.942L164.533 173.064L169.106 176.049L140.872 136.443Z" stroke="url(#paint15_linear_121_2201)" stroke-opacity="0.2" stroke-miterlimit="10"/>
<path d="M139.479 134.154L160.556 161.919L133.614 121.417L162.842 163.013L148.228 138.533L174.474 178.239L177.755 179.135L190.878 201.625L210.762 227.498L205.89 224.214L234.821 265.313L213.744 237.549L240.686 278.051L211.458 236.355L226.171 260.835L199.925 221.129L196.644 220.234L183.422 197.843L163.538 171.87L168.41 175.154L139.479 134.154Z" stroke="url(#paint16_linear_121_2201)" stroke-opacity="0.2" stroke-miterlimit="10"/>
<path d="M138.088 131.667L159.861 160.526L132.322 118.73L162.346 161.82L147.533 136.642L174.276 177.543L177.855 178.637L191.177 201.824L211.757 228.693L206.587 225.21L236.313 267.702L214.54 238.843L242.079 280.739L212.055 237.55L226.868 262.727L200.025 221.826L196.546 220.732L183.124 197.644L162.644 170.676L167.814 174.159L138.088 131.667Z" stroke="url(#paint17_linear_121_2201)" stroke-opacity="0.2" stroke-miterlimit="10"/>
<path d="M136.696 129.179L159.164 159.132L131.029 115.943L161.849 160.625L146.837 134.652L174.177 176.945L178.054 178.239L191.475 202.023L212.751 229.986L207.183 226.205L237.704 270.19L215.236 240.236L243.371 283.425L212.552 238.843L227.564 264.816L200.224 222.423L196.347 221.229L182.826 197.445L161.55 169.482L167.217 173.263L136.696 129.179Z" stroke="url(#paint18_linear_121_2201)" stroke-opacity="0.2" stroke-miterlimit="10"/>
<path d="M135.205 126.691L158.468 157.739L129.737 113.058L161.351 159.332L146.24 132.562L174.077 176.249L178.352 177.742L191.873 202.222L213.844 231.28L207.879 227.2L239.195 272.678L215.932 241.629L244.663 286.311L213.049 240.137L228.16 266.806L200.323 223.12L196.048 221.627L182.527 197.147L160.556 168.188L166.521 172.169L135.205 126.691Z" stroke="url(#paint19_linear_121_2201)" stroke-opacity="0.2" stroke-miterlimit="10"/>
<path d="M133.813 124.003L157.673 156.246L128.444 110.171L160.854 158.037L145.644 130.571L173.978 175.651L178.65 177.343L192.27 202.42L214.938 232.573L208.476 228.194L240.587 275.364L216.628 243.121L245.857 289.196L213.546 241.43L228.757 268.796L200.323 223.716L195.75 222.124L182.13 196.947L159.463 166.794L165.825 171.173L133.813 124.003Z" stroke="url(#paint20_linear_121_2201)" stroke-opacity="0.2" stroke-miterlimit="10"/>
<path d="M132.321 121.317L156.977 154.853L127.251 107.285L160.357 156.644L145.047 128.482L173.977 174.955L178.948 176.845L192.568 202.719L216.031 234.066L209.171 229.289L242.078 278.051L217.323 244.614L247.149 292.182L214.043 242.724L229.254 270.886L200.422 224.413L195.352 222.522L181.732 196.649L158.369 165.401L165.129 170.079L132.321 121.317Z" stroke="url(#paint21_linear_121_2201)" stroke-opacity="0.2" stroke-miterlimit="10"/>
<path d="M130.83 118.63L156.281 153.261L126.058 104.2L159.96 155.35L144.55 126.392L173.978 174.357L179.446 176.447L193.066 203.018L217.224 235.459L209.867 230.384L243.57 280.837L218.02 246.107L248.342 295.167L214.441 244.117L229.751 273.075L200.423 225.11L194.955 222.92L181.335 196.35L157.176 163.909L164.533 168.984L130.83 118.63Z" stroke="url(#paint22_linear_121_2201)" stroke-opacity="0.2" stroke-miterlimit="10"/>
<path d="M129.338 115.746L155.585 151.77L124.865 101.217L159.462 153.959L144.152 124.204L173.977 173.663L179.942 176.151L193.463 203.318L218.417 237.053L210.563 231.58L244.961 283.626L218.715 247.701L249.435 298.254L214.838 245.412L230.148 275.167L200.422 225.709L194.457 223.32L180.837 196.054L155.982 162.418L163.737 167.792L129.338 115.746Z" stroke="url(#paint23_linear_121_2201)" stroke-opacity="0.2" stroke-miterlimit="10"/>
<path d="M127.948 112.859L154.989 150.177L123.772 98.0312L159.165 152.565L143.854 122.114L174.077 172.965L180.44 175.752L193.961 203.615L219.71 238.545L211.26 232.773L246.453 286.61L219.412 249.292L250.629 301.338L215.236 246.804L230.547 277.355L200.324 226.404L193.861 223.618L180.44 195.754L154.691 160.824L163.042 166.596L127.948 112.859Z" stroke="url(#paint24_linear_121_2201)" stroke-opacity="0.2" stroke-miterlimit="10"/>
<path d="M126.456 109.873L154.293 148.485L122.777 94.8467L158.766 151.172L143.655 119.924L174.176 172.368L181.135 175.453L194.457 204.013L221.002 240.237L212.054 233.967L247.944 289.595L220.107 250.884L251.622 304.522L215.534 248.198L230.745 279.445L200.223 227.001L193.264 223.916L179.843 195.455L153.398 159.133L162.345 165.402L126.456 109.873Z" stroke="url(#paint25_linear_121_2201)" stroke-opacity="0.2" stroke-miterlimit="10"/>
<path d="M125.064 106.787L153.696 146.891L121.783 91.6611L158.468 149.777L143.456 117.734L174.276 171.67L181.931 175.153L195.054 204.311L222.294 241.927L212.75 235.26L249.336 292.58L220.704 252.575L252.617 307.805L215.832 249.689L230.845 281.633L200.025 227.696L192.469 224.214L179.346 195.056L152.006 157.44L161.65 164.207L125.064 106.787Z" stroke="url(#paint26_linear_121_2201)" stroke-opacity="0.2" stroke-miterlimit="10"/>
<path d="M123.672 103.702L153 145.199L120.888 88.377L158.27 148.284L143.456 115.544L174.475 171.073L182.726 174.954L195.651 204.808L223.686 243.718L213.446 236.553L250.728 295.764L221.3 254.167L253.512 311.089L216.131 251.082L230.944 283.822L199.826 228.293L191.674 224.512L178.75 194.658L150.614 155.648L160.854 162.913L123.672 103.702Z" stroke="url(#paint27_linear_121_2201)" stroke-opacity="0.2" stroke-miterlimit="10"/>
<path d="M122.28 100.419L152.503 143.509L120.093 84.9946L158.071 146.892L143.556 113.356L174.773 170.477L183.72 174.756L196.247 205.207L225.177 245.61L214.242 237.848L252.12 298.949L221.897 255.959L254.307 314.374L216.329 252.576L230.844 286.013L199.528 228.991L190.68 224.712L178.153 194.161L149.222 153.759L160.158 161.521L122.28 100.419Z" stroke="url(#paint28_linear_121_2201)" stroke-opacity="0.2" stroke-miterlimit="10"/>
<path d="M120.888 97.2346L151.907 141.717L119.397 81.7104L157.971 145.399L143.755 111.266L175.171 169.88L184.715 174.557L196.943 205.705L226.669 247.501L214.938 239.241L253.512 302.233L222.394 257.651L255.003 317.757L216.429 253.969L230.546 288.202L199.23 229.588L189.586 224.811L177.457 193.763L147.731 151.868L159.363 160.227L120.888 97.2346Z" stroke="url(#paint29_linear_121_2201)" stroke-opacity="0.2" stroke-miterlimit="10"/>
<path d="M119.596 93.8503L151.409 139.925L118.8 78.3262L157.871 144.005L144.152 109.076L175.568 169.282L185.907 174.457L197.639 206.201L228.16 249.49L215.733 240.633L254.804 305.516L222.891 259.441L255.599 321.14L216.429 255.461L230.247 290.291L198.832 230.184L188.393 224.91L176.761 193.265L146.14 149.877L158.667 158.833L119.596 93.8503Z" stroke="url(#paint30_linear_121_2201)" stroke-opacity="0.2" stroke-miterlimit="10"/>
<path d="M118.303 90.467L151.012 138.134L118.403 74.8433L157.971 142.513L144.749 106.986L176.065 168.685L187.299 174.457L198.434 206.699L229.85 251.58L216.528 242.026L256.096 308.9L223.388 261.233L255.997 324.523L216.429 256.854L229.651 292.48L198.335 230.682L187.101 224.91L175.966 192.668L144.55 147.787L157.872 157.34L118.303 90.467Z" stroke="url(#paint31_linear_121_2201)" stroke-opacity="0.2" stroke-miterlimit="10"/>
<path d="M117.11 86.9847L150.614 136.344L118.105 71.4604L158.07 141.021L145.444 104.798L176.662 168.188L188.79 174.457L199.229 207.297L231.441 253.77L217.224 243.52L257.289 312.384L223.785 263.025L256.295 328.007L216.329 258.348L228.955 294.571L197.738 231.28L185.609 224.911L175.17 192.071L142.959 145.598L157.176 155.848L117.11 86.9847Z" stroke="url(#paint32_linear_121_2201)" stroke-opacity="0.2" stroke-miterlimit="10"/>
<path d="M116.017 83.5013L150.316 134.552L118.005 67.9771L158.269 139.627L146.339 102.807L177.258 167.591L190.381 174.656L200.124 207.894L233.131 255.959L218.019 245.012L258.383 315.866L224.084 264.915L256.394 331.39L216.13 259.84L227.961 296.56L197.042 231.777L184.018 224.811L174.275 191.474L141.169 143.409L156.38 154.355L116.017 83.5013Z" stroke="url(#paint33_linear_121_2201)" stroke-opacity="0.2" stroke-miterlimit="10"/>
<path d="M114.923 79.9198L150.018 132.662L118.005 64.5947L158.568 138.135L147.532 100.818L178.054 167.193L192.171 174.856L201.019 208.591L234.921 258.348L218.715 246.605L259.477 319.45L224.382 266.707L256.295 334.874L215.832 261.234L226.868 298.651L196.247 232.276L182.13 224.613L173.282 190.878L139.48 141.021L155.685 152.764L114.923 79.9198Z" stroke="url(#paint34_linear_121_2201)" stroke-opacity="0.2" stroke-miterlimit="10"/>
<path d="M113.929 76.3364L149.819 130.87L118.304 61.1108L159.065 136.741L148.924 98.8265L178.948 166.695L194.159 175.154L202.013 209.287L236.81 260.736L219.511 248.197L260.371 323.131L224.581 268.597L256.096 338.257L215.335 262.626L225.377 300.541L195.352 232.673L180.141 224.314L172.287 190.081L137.591 138.632L154.889 151.171L113.929 76.3364Z" stroke="url(#paint35_linear_121_2201)" stroke-opacity="0.2" stroke-miterlimit="10"/>
<path d="M113.134 72.6556L149.719 128.98L118.8 57.7285L159.562 135.349L150.614 96.937L179.942 166.298L196.346 175.553L203.107 210.084L238.599 263.324L220.206 249.79L261.266 326.714L224.581 270.39L255.599 341.741L214.738 264.021L223.785 302.433L194.358 233.072L177.954 223.917L171.193 189.385L135.701 136.145L154.193 149.58L113.134 72.6556Z" stroke="url(#paint36_linear_121_2201)" stroke-opacity="0.2" stroke-miterlimit="10"/>
<path d="M112.339 68.9713L149.72 127.087L119.596 54.3428L160.357 134.053L152.603 95.2429L181.136 165.997L198.832 176.048L204.3 210.878L240.587 265.909L220.903 251.48L261.962 330.494L224.581 272.278L254.804 345.122L214.043 265.412L221.797 304.222L193.265 233.368L175.568 223.417L170.1 188.488L133.813 133.556L153.498 147.886L112.339 68.9713Z" stroke="url(#paint37_linear_121_2201)" stroke-opacity="0.2" stroke-miterlimit="10"/>
<path d="M111.742 65.191L149.819 125.198L120.59 50.9604L161.152 132.661L154.889 93.5524L182.428 165.7L201.417 176.646L205.493 211.775L242.576 268.597L221.598 253.173L262.559 334.177L224.482 274.17L253.81 348.407L213.148 266.706L219.511 305.915L191.972 233.668L172.884 222.721L168.907 187.692L131.725 130.771L152.801 146.195L111.742 65.191Z" stroke="url(#paint38_linear_121_2201)" stroke-opacity="0.2" stroke-miterlimit="10"/>
<path d="M111.344 61.4096L150.117 123.407L121.982 47.6768L162.246 131.467L157.474 91.9604L183.919 165.501L204.399 177.443L206.785 212.671L244.663 271.384L222.195 254.865L263.056 337.959L224.283 275.961L252.418 351.692L212.154 268L216.926 307.408L190.481 233.867L170.001 221.925L167.515 186.698L129.737 127.984L152.105 144.504L111.344 61.4096Z" stroke="url(#paint39_linear_121_2201)" stroke-opacity="0.2" stroke-miterlimit="10"/>
<path d="M111.046 57.6276L150.514 121.515L123.672 44.4917L163.439 130.173L160.456 90.5666L185.509 165.401L207.481 178.338L208.177 213.665L246.85 274.269L222.891 256.655L263.354 341.74L223.885 277.852L250.728 354.975L210.96 269.194L213.843 308.8L188.89 233.966L166.819 221.029L166.123 185.702L127.549 125.098L151.509 142.712L111.046 57.6276Z" stroke="url(#paint40_linear_121_2201)" stroke-opacity="0.2" stroke-miterlimit="10"/>
<path d="M110.947 53.8468L151.012 119.725L125.661 41.3081L164.931 129.079L163.936 89.3732L187.3 165.402L210.961 179.433L209.669 214.761L249.038 277.355L223.488 258.447L263.454 345.522L223.388 279.644L248.64 358.061L209.47 270.289L210.464 310.095L187.001 234.066L163.34 219.935L164.632 184.608L125.362 122.113L150.913 140.921L110.947 53.8468Z" stroke="url(#paint41_linear_121_2201)" stroke-opacity="0.2" stroke-miterlimit="10"/>
<path d="M111.045 50.0648L151.707 117.933L128.145 38.3223L166.52 127.984L167.713 88.2782L189.287 165.401L214.738 180.727L211.258 215.954L251.224 280.439L224.083 260.238L263.254 349.303L222.691 281.435L246.253 361.046L207.779 271.384L206.586 311.189L185.012 233.966L159.561 218.641L163.041 183.413L123.075 118.928L150.315 139.13L111.045 50.0648Z" stroke="url(#paint42_linear_121_2201)" stroke-opacity="0.2" stroke-miterlimit="10"/>
<path d="M111.444 46.2831L152.503 116.241L131.029 35.436L168.509 126.989L172.088 87.3822L191.574 165.6L218.914 182.219L212.949 217.148L253.611 283.723L224.581 262.129L262.956 353.084L221.897 283.225L243.371 363.931L205.89 272.378L202.311 311.985L182.826 233.867L155.486 217.148L161.351 182.219L120.789 115.644L149.819 137.239L111.444 46.2831Z" stroke="url(#paint43_linear_121_2201)" stroke-opacity="0.2" stroke-miterlimit="10"/>
<path d="M112.041 42.5023L153.597 114.451L134.41 32.75L170.597 126.094L176.96 86.7859L194.06 165.899L223.388 183.911L214.838 218.542L255.997 287.107L224.979 264.02L262.36 356.867L220.803 284.918L239.892 366.619L203.704 273.275L197.44 312.682L180.34 233.569L151.012 215.457L159.562 180.926L118.403 112.361L149.322 135.448L112.041 42.5023Z" stroke="url(#paint44_linear_121_2201)" stroke-opacity="0.2" stroke-miterlimit="10"/>
<path d="M112.935 38.8189L154.79 112.857L138.386 30.2607L173.083 125.396L182.428 86.3865L196.744 166.296L228.259 185.801L216.727 219.934L258.482 290.589L225.476 265.91L261.465 360.647L219.511 286.509L236.014 369.205L201.317 274.07L191.972 312.98L177.656 233.169L146.041 213.565L157.673 179.432L115.917 108.877L148.924 133.556L112.935 38.8189Z" stroke="url(#paint45_linear_121_2201)" stroke-opacity="0.2" stroke-miterlimit="10"/>
<path d="M114.128 35.1375L156.38 111.266L142.86 27.873L175.866 124.7L188.492 86.2876L199.727 166.794L233.628 187.991L218.815 221.428L260.968 294.172L225.774 267.801L260.173 364.23L218.019 288.102L231.54 371.494L198.534 274.667L185.907 313.08L174.673 232.573L140.772 211.377L155.585 177.94L113.333 105.195L148.626 131.566L114.128 35.1375Z" stroke="url(#paint46_linear_121_2201)" stroke-opacity="0.2" stroke-miterlimit="10"/>
<path d="M115.718 31.5554L158.07 109.773L147.93 25.7837L178.948 124.203L195.153 86.4871L203.007 167.491L239.394 190.479L221.002 223.12L263.552 297.954L226.072 269.692L258.681 367.912L216.23 289.595L226.37 373.585L195.352 275.165L179.147 312.881L171.392 231.877L135.005 208.989L153.398 176.348L110.748 101.514L148.327 129.676L115.718 31.5554Z" stroke="url(#paint47_linear_121_2201)" stroke-opacity="0.2" stroke-miterlimit="10"/>
<path d="M117.707 27.9732L160.158 108.38L153.795 23.9927L182.428 123.905L202.609 87.0845L206.586 168.387L245.657 193.166L223.288 224.812L266.237 301.736L226.271 271.683L256.693 371.395L214.241 290.988L220.604 375.376L191.872 275.464L171.691 312.284L167.714 230.981L128.742 206.203L151.012 174.557L108.063 97.6329L148.128 127.786L117.707 27.9732Z" stroke="url(#paint48_linear_121_2201)" stroke-opacity="0.2" stroke-miterlimit="10"/>
<path d="M119.993 24.5898L162.444 107.087L160.357 22.5L186.305 123.805L210.861 88.0796L210.563 169.482L252.417 196.251L225.873 226.702L269.02 305.816L226.37 273.573L254.406 374.779L211.855 292.282L214.042 376.968L187.995 275.663L163.439 311.389L163.836 229.986L121.981 203.118L148.526 172.766L105.379 93.6524L148.029 125.795L119.993 24.5898Z" stroke="url(#paint49_linear_121_2201)" stroke-opacity="0.2" stroke-miterlimit="10"/>
<path d="M122.777 21.3057L165.129 105.892L167.714 21.3057L190.68 123.805L220.008 89.4726L214.838 170.676L259.775 199.634L228.458 228.692L271.804 309.896L226.37 275.563L251.523 378.063L209.271 293.476L206.686 378.063L183.72 275.563L154.392 309.995L159.462 228.692L114.625 199.734L145.842 170.775L102.595 89.4726L148.029 123.805L122.777 21.3057Z" stroke="url(#paint50_linear_121_2201)" stroke-opacity="0.2" stroke-miterlimit="10"/>
<path d="M126.157 18.2207L168.211 104.897L175.866 20.5096L195.451 124.103L229.949 91.2639L219.61 172.169L267.728 203.516L231.341 230.782L274.687 314.175L226.271 277.554L248.242 381.148L206.188 294.471L198.434 378.859L178.948 275.265L144.45 308.105L154.789 227.2L106.671 195.953L143.058 168.586L99.7119 85.1936L148.128 121.914L126.157 18.2207Z" stroke="url(#paint51_linear_121_2201)" stroke-opacity="0.2" stroke-miterlimit="10"/>
<path d="M129.936 15.2349L171.591 104.001L185.112 20.2106L200.721 124.601L240.985 93.6518L224.78 173.959L276.278 207.695L234.423 233.071L277.571 318.653L225.973 279.444L244.365 384.133L202.809 295.366L189.288 379.257L173.58 274.767L133.415 305.716L149.62 225.508L98.0223 191.673L139.977 166.297L96.73 80.8145L148.328 119.924L129.936 15.2349Z" stroke="url(#paint52_linear_121_2201)" stroke-opacity="0.2" stroke-miterlimit="10"/>
<path d="M134.41 12.5469L175.469 103.303L195.253 20.309L206.587 125.495L253.015 96.6361L230.348 175.949L285.624 212.371L237.605 235.458L280.653 323.229L225.576 281.334L239.892 386.918L198.932 296.062L179.148 379.056L167.715 273.97L121.386 302.729L144.053 223.417L88.7769 187.094L136.796 163.907L93.7477 76.2357L148.726 118.032L134.41 12.5469Z" stroke="url(#paint53_linear_121_2201)" stroke-opacity="0.2" stroke-miterlimit="10"/>
<path d="M139.479 9.96191L179.743 102.908L206.586 21.0079L213.048 126.592L266.237 100.221L236.511 178.24L295.664 217.448L241.084 238.048L283.635 327.909L225.078 283.227L234.821 389.408L194.656 296.562L167.813 378.362L161.351 272.778L108.163 299.149L137.889 221.13L78.7351 181.922L133.315 161.322L90.6652 71.4614L149.322 116.143L139.479 9.96191Z" stroke="url(#paint54_linear_121_2201)" stroke-opacity="0.2" stroke-miterlimit="10"/>
<path d="M145.345 7.77246L184.516 102.609L219.113 22.3016L220.107 128.085L280.653 104.5L243.073 180.827L306.501 223.12L244.763 240.834L286.816 332.785L224.382 285.118L229.055 391.597L189.785 296.761L155.287 377.168L154.193 271.385L93.7473 294.87L131.228 218.543L67.8987 176.249L129.637 158.536L87.5833 66.5852L150.018 114.252L145.345 7.77246Z" stroke="url(#paint55_linear_121_2201)" stroke-opacity="0.2" stroke-miterlimit="10"/>
<path d="M151.907 5.88135L189.884 102.609L232.833 24.1918L227.862 129.876L296.46 109.575L250.33 183.812L318.232 229.389L248.64 243.819L289.998 337.86L223.487 287.008L222.493 393.587L184.416 296.76L141.468 375.277L146.439 269.493L77.94 289.894L124.07 215.557L56.1675 170.079L125.76 155.55L84.4021 61.5095L150.913 112.461L151.907 5.88135Z" stroke="url(#paint56_linear_121_2201)" stroke-opacity="0.2" stroke-miterlimit="10"/>
<path d="M159.263 4.28955L195.849 102.908L248.043 26.7798L236.411 132.065L313.659 115.347L258.184 187.097L330.858 236.157L252.815 247.004L293.278 343.035L222.393 288.8L215.136 395.18L178.55 296.562L126.256 372.59L137.988 267.305L60.7402 284.023L116.215 212.274L43.541 163.213L121.584 152.466L81.1208 56.3354L152.006 110.67L159.263 4.28955Z" stroke="url(#paint57_linear_121_2201)" stroke-opacity="0.2" stroke-miterlimit="10"/>
<path d="M167.615 3.09521L202.411 103.505L264.845 30.2625L245.757 134.752L332.35 122.114L266.734 190.878L344.479 243.62L257.289 250.387L296.559 348.408L221.101 290.491L206.785 396.374L171.89 295.965L109.555 369.207L128.643 264.618L41.9508 277.256L107.666 208.492L29.9211 155.749L117.111 149.082L77.8405 50.9614L153.299 108.878L167.615 3.09521Z" stroke="url(#paint58_linear_121_2201)" stroke-opacity="0.2" stroke-miterlimit="10"/>
<path d="M176.86 2.29785L209.668 104.399L283.138 34.5404L255.897 137.935L352.829 129.875L275.88 195.056L359.192 251.879L262.061 253.968L299.84 353.88L219.51 292.082L197.539 397.069L164.632 294.968L91.2615 364.827L118.402 261.432L21.5698 269.592L98.4196 204.311L15.207 147.588L112.338 145.498L74.4599 45.4869L154.889 107.285L176.86 2.29785Z" stroke="url(#paint59_linear_121_2201)" stroke-opacity="0.2" stroke-miterlimit="10"/>
<path d="M187.2 2L217.721 105.693L303.22 39.8153L267.032 141.618L375 138.632L285.922 199.734L375 260.736L267.032 257.751L303.22 359.653L217.721 293.675L187.2 397.369L156.679 293.675L71.08 359.653L107.268 257.751L-0.600098 260.736L88.4781 199.734L-0.600098 138.632L107.268 141.618L71.08 39.8153L156.679 105.693L187.2 2Z" stroke="url(#paint60_linear_121_2201)" stroke-opacity="0.2" stroke-miterlimit="10"/>
</g>
<defs>
<linearGradient id="paint0_linear_121_2201" x1="187.2" y1="155.749" x2="187.2" y2="243.62" gradientUnits="userSpaceOnUse">
<stop stop-color="#FE8900"/>
<stop offset="1" stop-color="#FDD800" stop-opacity="0.6"/>
</linearGradient>
<linearGradient id="paint1_linear_121_2201" x1="187.2" y1="154.057" x2="187.2" y2="245.311" gradientUnits="userSpaceOnUse">
<stop stop-color="#FE8900"/>
<stop offset="1" stop-color="#FDD800" stop-opacity="0.6"/>
</linearGradient>
<linearGradient id="paint2_linear_121_2201" x1="187.15" y1="152.366" x2="187.15" y2="247.103" gradientUnits="userSpaceOnUse">
<stop stop-color="#FE8900"/>
<stop offset="1" stop-color="#FDD800" stop-opacity="0.6"/>
</linearGradient>
<linearGradient id="paint3_linear_121_2201" x1="187.2" y1="150.575" x2="187.2" y2="248.895" gradientUnits="userSpaceOnUse">
<stop stop-color="#FE8900"/>
<stop offset="1" stop-color="#FDD800" stop-opacity="0.6"/>
</linearGradient>
<linearGradient id="paint4_linear_121_2201" x1="187.2" y1="148.683" x2="187.2" y2="250.685" gradientUnits="userSpaceOnUse">
<stop stop-color="#FE8900"/>
<stop offset="1" stop-color="#FDD800" stop-opacity="0.6"/>
</linearGradient>
<linearGradient id="paint5_linear_121_2201" x1="187.2" y1="146.691" x2="187.2" y2="252.674" gradientUnits="userSpaceOnUse">
<stop stop-color="#FE8900"/>
<stop offset="1" stop-color="#FDD800" stop-opacity="0.6"/>
</linearGradient>
<linearGradient id="paint6_linear_121_2201" x1="187.15" y1="144.801" x2="187.15" y2="254.665" gradientUnits="userSpaceOnUse">
<stop stop-color="#FE8900"/>
<stop offset="1" stop-color="#FDD800" stop-opacity="0.6"/>
</linearGradient>
<linearGradient id="paint7_linear_121_2201" x1="187.2" y1="142.712" x2="187.2" y2="256.655" gradientUnits="userSpaceOnUse">
<stop stop-color="#FE8900"/>
<stop offset="1" stop-color="#FDD800" stop-opacity="0.6"/>
</linearGradient>
<linearGradient id="paint8_linear_121_2201" x1="187.2" y1="140.622" x2="187.2" y2="258.845" gradientUnits="userSpaceOnUse">
<stop stop-color="#FE8900"/>
<stop offset="1" stop-color="#FDD800" stop-opacity="0.6"/>
</linearGradient>
<linearGradient id="paint9_linear_121_2201" x1="187.2" y1="138.432" x2="187.2" y2="260.933" gradientUnits="userSpaceOnUse">
<stop stop-color="#FE8900"/>
<stop offset="1" stop-color="#FDD800" stop-opacity="0.6"/>
</linearGradient>
<linearGradient id="paint10_linear_121_2201" x1="187.199" y1="136.145" x2="187.199" y2="263.224" gradientUnits="userSpaceOnUse">
<stop stop-color="#FE8900"/>
<stop offset="1" stop-color="#FDD800" stop-opacity="0.6"/>
</linearGradient>
<linearGradient id="paint11_linear_121_2201" x1="187.2" y1="133.857" x2="187.2" y2="265.514" gradientUnits="userSpaceOnUse">
<stop stop-color="#FE8900"/>
<stop offset="1" stop-color="#FDD800" stop-opacity="0.6"/>
</linearGradient>
<linearGradient id="paint12_linear_121_2201" x1="187.2" y1="131.566" x2="187.2" y2="267.9" gradientUnits="userSpaceOnUse">
<stop stop-color="#FE8900"/>
<stop offset="1" stop-color="#FDD800" stop-opacity="0.6"/>
</linearGradient>
<linearGradient id="paint13_linear_121_2201" x1="187.15" y1="129.079" x2="187.15" y2="270.289" gradientUnits="userSpaceOnUse">
<stop stop-color="#FE8900"/>
<stop offset="1" stop-color="#FDD800" stop-opacity="0.6"/>
</linearGradient>
<linearGradient id="paint14_linear_121_2201" x1="187.2" y1="126.591" x2="187.2" y2="272.777" gradientUnits="userSpaceOnUse">
<stop stop-color="#FE8900"/>
<stop offset="1" stop-color="#FDD800" stop-opacity="0.6"/>
</linearGradient>
<linearGradient id="paint15_linear_121_2201" x1="187.2" y1="124.003" x2="187.2" y2="275.364" gradientUnits="userSpaceOnUse">
<stop stop-color="#FE8900"/>
<stop offset="1" stop-color="#FDD800" stop-opacity="0.6"/>
</linearGradient>
<linearGradient id="paint16_linear_121_2201" x1="187.15" y1="121.417" x2="187.15" y2="278.051" gradientUnits="userSpaceOnUse">
<stop stop-color="#FE8900"/>
<stop offset="1" stop-color="#FDD800" stop-opacity="0.6"/>
</linearGradient>
<linearGradient id="paint17_linear_121_2201" x1="187.2" y1="118.73" x2="187.2" y2="280.739" gradientUnits="userSpaceOnUse">
<stop stop-color="#FE8900"/>
<stop offset="1" stop-color="#FDD800" stop-opacity="0.6"/>
</linearGradient>
<linearGradient id="paint18_linear_121_2201" x1="187.2" y1="115.943" x2="187.2" y2="283.425" gradientUnits="userSpaceOnUse">
<stop stop-color="#FE8900"/>
<stop offset="1" stop-color="#FDD800" stop-opacity="0.6"/>
</linearGradient>
<linearGradient id="paint19_linear_121_2201" x1="187.2" y1="113.058" x2="187.2" y2="286.311" gradientUnits="userSpaceOnUse">
<stop stop-color="#FE8900"/>
<stop offset="1" stop-color="#FDD800" stop-opacity="0.6"/>
</linearGradient>
<linearGradient id="paint20_linear_121_2201" x1="187.15" y1="110.171" x2="187.15" y2="289.196" gradientUnits="userSpaceOnUse">
<stop stop-color="#FE8900"/>
<stop offset="1" stop-color="#FDD800" stop-opacity="0.6"/>
</linearGradient>
<linearGradient id="paint21_linear_121_2201" x1="187.2" y1="107.285" x2="187.2" y2="292.182" gradientUnits="userSpaceOnUse">
<stop stop-color="#FE8900"/>
<stop offset="1" stop-color="#FDD800" stop-opacity="0.6"/>
</linearGradient>
<linearGradient id="paint22_linear_121_2201" x1="187.2" y1="104.2" x2="187.2" y2="295.167" gradientUnits="userSpaceOnUse">
<stop stop-color="#FE8900"/>
<stop offset="1" stop-color="#FDD800" stop-opacity="0.6"/>
</linearGradient>
<linearGradient id="paint23_linear_121_2201" x1="187.15" y1="101.217" x2="187.15" y2="298.254" gradientUnits="userSpaceOnUse">
<stop stop-color="#FE8900"/>
<stop offset="1" stop-color="#FDD800" stop-opacity="0.6"/>
</linearGradient>
<linearGradient id="paint24_linear_121_2201" x1="187.2" y1="98.0312" x2="187.2" y2="301.338" gradientUnits="userSpaceOnUse">
<stop stop-color="#FE8900"/>
<stop offset="1" stop-color="#FDD800" stop-opacity="0.6"/>
</linearGradient>
<linearGradient id="paint25_linear_121_2201" x1="187.2" y1="94.8467" x2="187.2" y2="304.522" gradientUnits="userSpaceOnUse">
<stop stop-color="#FE8900"/>
<stop offset="1" stop-color="#FDD800" stop-opacity="0.6"/>
</linearGradient>
<linearGradient id="paint26_linear_121_2201" x1="187.2" y1="91.6611" x2="187.2" y2="307.805" gradientUnits="userSpaceOnUse">
<stop stop-color="#FE8900"/>
<stop offset="1" stop-color="#FDD800" stop-opacity="0.6"/>
</linearGradient>
<linearGradient id="paint27_linear_121_2201" x1="187.2" y1="88.377" x2="187.2" y2="311.089" gradientUnits="userSpaceOnUse">
<stop stop-color="#FE8900"/>
<stop offset="1" stop-color="#FDD800" stop-opacity="0.6"/>
</linearGradient>
<linearGradient id="paint28_linear_121_2201" x1="187.2" y1="84.9946" x2="187.2" y2="314.374" gradientUnits="userSpaceOnUse">
<stop stop-color="#FE8900"/>
<stop offset="1" stop-color="#FDD800" stop-opacity="0.6"/>
</linearGradient>
<linearGradient id="paint29_linear_121_2201" x1="187.2" y1="81.7104" x2="187.2" y2="317.757" gradientUnits="userSpaceOnUse">
<stop stop-color="#FE8900"/>
<stop offset="1" stop-color="#FDD800" stop-opacity="0.6"/>
</linearGradient>
<linearGradient id="paint30_linear_121_2201" x1="187.2" y1="78.3262" x2="187.2" y2="321.14" gradientUnits="userSpaceOnUse">
<stop stop-color="#FE8900"/>
<stop offset="1" stop-color="#FDD800" stop-opacity="0.6"/>
</linearGradient>
<linearGradient id="paint31_linear_121_2201" x1="187.2" y1="74.8433" x2="187.2" y2="324.523" gradientUnits="userSpaceOnUse">
<stop stop-color="#FE8900"/>
<stop offset="1" stop-color="#FDD800" stop-opacity="0.6"/>
</linearGradient>
<linearGradient id="paint32_linear_121_2201" x1="187.2" y1="71.4604" x2="187.2" y2="328.007" gradientUnits="userSpaceOnUse">
<stop stop-color="#FE8900"/>
<stop offset="1" stop-color="#FDD800" stop-opacity="0.6"/>
</linearGradient>
<linearGradient id="paint33_linear_121_2201" x1="187.2" y1="67.9771" x2="187.2" y2="331.39" gradientUnits="userSpaceOnUse">
<stop stop-color="#FE8900"/>
<stop offset="1" stop-color="#FDD800" stop-opacity="0.6"/>
</linearGradient>
<linearGradient id="paint34_linear_121_2201" x1="187.2" y1="64.5947" x2="187.2" y2="334.874" gradientUnits="userSpaceOnUse">
<stop stop-color="#FE8900"/>
<stop offset="1" stop-color="#FDD800" stop-opacity="0.6"/>
</linearGradient>
<linearGradient id="paint35_linear_121_2201" x1="187.15" y1="61.1108" x2="187.15" y2="338.257" gradientUnits="userSpaceOnUse">
<stop stop-color="#FE8900"/>
<stop offset="1" stop-color="#FDD800" stop-opacity="0.6"/>
</linearGradient>
<linearGradient id="paint36_linear_121_2201" x1="187.2" y1="57.7285" x2="187.2" y2="341.741" gradientUnits="userSpaceOnUse">
<stop stop-color="#FE8900"/>
<stop offset="1" stop-color="#FDD800" stop-opacity="0.6"/>
</linearGradient>
<linearGradient id="paint37_linear_121_2201" x1="187.15" y1="54.3428" x2="187.15" y2="345.122" gradientUnits="userSpaceOnUse">
<stop stop-color="#FE8900"/>
<stop offset="1" stop-color="#FDD800" stop-opacity="0.6"/>
</linearGradient>
<linearGradient id="paint38_linear_121_2201" x1="187.15" y1="50.9604" x2="187.15" y2="348.407" gradientUnits="userSpaceOnUse">
<stop stop-color="#FE8900"/>
<stop offset="1" stop-color="#FDD800" stop-opacity="0.6"/>
</linearGradient>
<linearGradient id="paint39_linear_121_2201" x1="187.2" y1="47.6768" x2="187.2" y2="351.692" gradientUnits="userSpaceOnUse">
<stop stop-color="#FE8900"/>
<stop offset="1" stop-color="#FDD800" stop-opacity="0.6"/>
</linearGradient>
<linearGradient id="paint40_linear_121_2201" x1="187.2" y1="44.4917" x2="187.2" y2="354.975" gradientUnits="userSpaceOnUse">
<stop stop-color="#FE8900"/>
<stop offset="1" stop-color="#FDD800" stop-opacity="0.6"/>
</linearGradient>
<linearGradient id="paint41_linear_121_2201" x1="187.2" y1="41.3081" x2="187.2" y2="358.061" gradientUnits="userSpaceOnUse">
<stop stop-color="#FE8900"/>
<stop offset="1" stop-color="#FDD800" stop-opacity="0.6"/>
</linearGradient>
<linearGradient id="paint42_linear_121_2201" x1="187.15" y1="38.3223" x2="187.15" y2="361.046" gradientUnits="userSpaceOnUse">
<stop stop-color="#FE8900"/>
<stop offset="1" stop-color="#FDD800" stop-opacity="0.6"/>
</linearGradient>
<linearGradient id="paint43_linear_121_2201" x1="187.2" y1="35.436" x2="187.2" y2="363.931" gradientUnits="userSpaceOnUse">
<stop stop-color="#FE8900"/>
<stop offset="1" stop-color="#FDD800" stop-opacity="0.6"/>
</linearGradient>
<linearGradient id="paint44_linear_121_2201" x1="187.2" y1="32.75" x2="187.2" y2="366.619" gradientUnits="userSpaceOnUse">
<stop stop-color="#FE8900"/>
<stop offset="1" stop-color="#FDD800" stop-opacity="0.6"/>
</linearGradient>
<linearGradient id="paint45_linear_121_2201" x1="187.2" y1="30.2607" x2="187.2" y2="369.205" gradientUnits="userSpaceOnUse">
<stop stop-color="#FE8900"/>
<stop offset="1" stop-color="#FDD800" stop-opacity="0.6"/>
</linearGradient>
<linearGradient id="paint46_linear_121_2201" x1="187.15" y1="27.873" x2="187.15" y2="371.494" gradientUnits="userSpaceOnUse">
<stop stop-color="#FE8900"/>
<stop offset="1" stop-color="#FDD800" stop-opacity="0.6"/>
</linearGradient>
<linearGradient id="paint47_linear_121_2201" x1="187.15" y1="25.7837" x2="187.15" y2="373.585" gradientUnits="userSpaceOnUse">
<stop stop-color="#FE8900"/>
<stop offset="1" stop-color="#FDD800" stop-opacity="0.6"/>
</linearGradient>
<linearGradient id="paint48_linear_121_2201" x1="187.15" y1="23.9927" x2="187.15" y2="375.376" gradientUnits="userSpaceOnUse">
<stop stop-color="#FE8900"/>
<stop offset="1" stop-color="#FDD800" stop-opacity="0.6"/>
</linearGradient>
<linearGradient id="paint49_linear_121_2201" x1="187.199" y1="22.5" x2="187.199" y2="376.968" gradientUnits="userSpaceOnUse">
<stop stop-color="#FE8900"/>
<stop offset="1" stop-color="#FDD800" stop-opacity="0.6"/>
</linearGradient>
<linearGradient id="paint50_linear_121_2201" x1="187.2" y1="21.3057" x2="187.2" y2="378.063" gradientUnits="userSpaceOnUse">
<stop stop-color="#FE8900"/>
<stop offset="1" stop-color="#FDD800" stop-opacity="0.6"/>
</linearGradient>
<linearGradient id="paint51_linear_121_2201" x1="187.199" y1="18.2207" x2="187.199" y2="381.148" gradientUnits="userSpaceOnUse">
<stop stop-color="#FE8900"/>
<stop offset="1" stop-color="#FDD800" stop-opacity="0.6"/>
</linearGradient>
<linearGradient id="paint52_linear_121_2201" x1="187.15" y1="15.2349" x2="187.15" y2="384.133" gradientUnits="userSpaceOnUse">
<stop stop-color="#FE8900"/>
<stop offset="1" stop-color="#FDD800" stop-opacity="0.6"/>
</linearGradient>
<linearGradient id="paint53_linear_121_2201" x1="187.2" y1="12.5469" x2="187.2" y2="386.918" gradientUnits="userSpaceOnUse">
<stop stop-color="#FE8900"/>
<stop offset="1" stop-color="#FDD800" stop-opacity="0.6"/>
</linearGradient>
<linearGradient id="paint54_linear_121_2201" x1="187.2" y1="9.96191" x2="187.2" y2="389.408" gradientUnits="userSpaceOnUse">
<stop stop-color="#FE8900"/>
<stop offset="1" stop-color="#FDD800" stop-opacity="0.6"/>
</linearGradient>
<linearGradient id="paint55_linear_121_2201" x1="187.2" y1="7.77246" x2="187.2" y2="391.597" gradientUnits="userSpaceOnUse">
<stop stop-color="#FE8900"/>
<stop offset="1" stop-color="#FDD800" stop-opacity="0.6"/>
</linearGradient>
<linearGradient id="paint56_linear_121_2201" x1="187.2" y1="5.88135" x2="187.2" y2="393.587" gradientUnits="userSpaceOnUse">
<stop stop-color="#FE8900"/>
<stop offset="1" stop-color="#FDD800" stop-opacity="0.6"/>
</linearGradient>
<linearGradient id="paint57_linear_121_2201" x1="187.2" y1="4.28955" x2="187.2" y2="395.18" gradientUnits="userSpaceOnUse">
<stop stop-color="#FE8900"/>
<stop offset="1" stop-color="#FDD800" stop-opacity="0.6"/>
</linearGradient>
<linearGradient id="paint58_linear_121_2201" x1="187.2" y1="3.09521" x2="187.2" y2="396.374" gradientUnits="userSpaceOnUse">
<stop stop-color="#FE8900"/>
<stop offset="1" stop-color="#FDD800" stop-opacity="0.6"/>
</linearGradient>
<linearGradient id="paint59_linear_121_2201" x1="187.2" y1="2.29785" x2="187.2" y2="397.069" gradientUnits="userSpaceOnUse">
<stop stop-color="#FE8900"/>
<stop offset="1" stop-color="#FDD800" stop-opacity="0.6"/>
</linearGradient>
<linearGradient id="paint60_linear_121_2201" x1="187.2" y1="2" x2="187.2" y2="397.369" gradientUnits="userSpaceOnUse">
<stop stop-color="#FE8900"/>
<stop offset="1" stop-color="#FDD800" stop-opacity="0.6"/>
</linearGradient>
</defs>
</svg>
