<svg width="345" height="397" viewBox="0 0 345 397" fill="none" xmlns="http://www.w3.org/2000/svg">
<path d="M173.183 193.707L176.799 198.658C176.936 198.816 176.936 199.051 176.731 199.209L172.432 203.374C172.295 203.531 172.091 203.531 171.954 203.295L168.337 198.344C168.201 198.187 168.201 197.951 168.405 197.794L172.705 193.629C172.841 193.471 173.046 193.55 173.183 193.707Z" stroke="url(#paint0_linear_121_1657)" stroke-miterlimit="10"/>
<path d="M173.66 193.235L177.209 199.05C177.345 199.286 177.277 199.522 177.141 199.679L172.09 203.766C171.886 203.923 171.681 203.844 171.545 203.687L167.996 197.871C167.859 197.636 167.928 197.4 168.064 197.243L173.114 193.156C173.251 192.999 173.524 193.077 173.66 193.235Z" stroke="url(#paint1_linear_121_1657)" stroke-miterlimit="10"/>
<path d="M174.206 192.841L177.618 199.679C177.755 199.915 177.687 200.229 177.482 200.386L171.545 204.316C171.34 204.473 171.067 204.394 170.93 204.159L167.518 197.321C167.382 197.085 167.45 196.771 167.654 196.614L173.592 192.684C173.797 192.527 174.07 192.606 174.206 192.841Z" stroke="url(#paint2_linear_121_1657)" stroke-miterlimit="10"/>
<path d="M174.82 192.369L178.028 200.386C178.164 200.7 178.028 201.014 177.823 201.093L170.862 204.787C170.589 204.944 170.316 204.787 170.248 204.551L167.041 196.535C166.904 196.22 167.04 195.906 167.245 195.827L174.206 192.134C174.479 191.976 174.752 192.134 174.82 192.369Z" stroke="url(#paint3_linear_121_1657)" stroke-miterlimit="10"/>
<path d="M175.571 191.977L178.505 201.173C178.574 201.487 178.437 201.88 178.164 201.959L170.18 205.338C169.907 205.417 169.565 205.259 169.497 204.945L166.563 195.75C166.494 195.435 166.631 195.043 166.904 194.964L174.889 191.584C175.161 191.506 175.503 191.663 175.571 191.977Z" stroke="url(#paint4_linear_121_1657)" stroke-miterlimit="10"/>
<path d="M176.458 191.662L178.915 202.194C178.983 202.587 178.779 202.901 178.506 203.058L169.361 205.887C169.02 205.966 168.747 205.73 168.61 205.416L166.153 194.885C166.085 194.492 166.29 194.177 166.563 194.02L175.708 191.191C176.049 191.034 176.39 191.269 176.458 191.662Z" stroke="url(#paint5_linear_121_1657)" stroke-miterlimit="10"/>
<path d="M177.482 191.349L179.324 203.216C179.393 203.609 179.12 204.002 178.779 204.081L168.474 206.203C168.132 206.281 167.791 205.967 167.723 205.574L165.88 193.707C165.812 193.314 166.085 192.921 166.426 192.842L176.731 190.72C177.072 190.642 177.414 190.956 177.482 191.349Z" stroke="url(#paint6_linear_121_1657)" stroke-miterlimit="10"/>
<path d="M178.574 191.113L179.597 204.474C179.666 204.945 179.324 205.338 178.915 205.417L167.313 206.596C166.904 206.674 166.563 206.281 166.494 205.81L165.471 192.449C165.402 191.978 165.744 191.585 166.153 191.506L177.755 190.327C178.164 190.327 178.574 190.642 178.574 191.113Z" stroke="url(#paint7_linear_121_1657)" stroke-miterlimit="10"/>
<path d="M179.871 191.034V205.966C179.871 206.516 179.529 206.909 179.052 206.909H166.085C165.607 206.909 165.266 206.516 165.266 205.966V191.034C165.266 190.484 165.607 190.091 166.085 190.091H179.052C179.461 190.091 179.871 190.484 179.871 191.034Z" stroke="url(#paint8_linear_121_1657)" stroke-miterlimit="10"/>
<path d="M181.235 191.033L180.007 207.537C179.939 208.088 179.529 208.559 179.051 208.481L164.72 207.066C164.242 206.987 163.833 206.516 163.901 205.966L165.129 189.461C165.198 188.911 165.607 188.44 166.085 188.518L180.416 189.933C180.962 189.933 181.304 190.483 181.235 191.033Z" stroke="url(#paint9_linear_121_1657)" stroke-miterlimit="10"/>
<path d="M182.805 191.191L180.007 209.346C179.939 209.975 179.393 210.368 178.847 210.289L163.082 207.067C162.536 206.988 162.195 206.359 162.263 205.731L165.061 187.576C165.13 186.947 165.675 186.554 166.221 186.633L181.986 189.855C182.532 190.012 182.942 190.563 182.805 191.191Z" stroke="url(#paint10_linear_121_1657)" stroke-miterlimit="10"/>
<path d="M184.511 191.585L179.939 211.39C179.802 212.097 179.188 212.49 178.574 212.333L161.376 207.067C160.762 206.91 160.42 206.203 160.557 205.495L165.129 185.69C165.266 184.983 165.88 184.59 166.494 184.747L183.692 190.013C184.306 190.17 184.647 190.877 184.511 191.585Z" stroke="url(#paint11_linear_121_1657)" stroke-miterlimit="10"/>
<path d="M186.354 192.133L179.597 213.51C179.393 214.217 178.642 214.61 178.028 214.375L159.465 206.594C158.851 206.358 158.51 205.494 158.714 204.786L165.471 183.41C165.675 182.702 166.426 182.309 167.04 182.545L185.603 190.326C186.285 190.64 186.627 191.426 186.354 192.133Z" stroke="url(#paint12_linear_121_1657)" stroke-miterlimit="10"/>
<path d="M188.401 192.998L179.12 215.868C178.779 216.654 177.96 216.969 177.277 216.654L157.418 205.966C156.735 205.573 156.462 204.63 156.735 203.844L166.017 180.974C166.358 180.188 167.177 179.873 167.859 180.188L187.719 190.876C188.401 191.269 188.674 192.212 188.401 192.998Z" stroke="url(#paint13_linear_121_1657)" stroke-miterlimit="10"/>
<path d="M190.517 194.255L178.301 218.54C177.892 219.404 176.936 219.64 176.185 219.169L155.098 205.101C154.347 204.629 154.142 203.529 154.552 202.664L166.768 178.38C167.177 177.515 168.133 177.279 168.883 177.751L189.971 191.819C190.722 192.29 190.926 193.391 190.517 194.255Z" stroke="url(#paint14_linear_121_1657)" stroke-miterlimit="10"/>
<path d="M192.837 195.749L177.277 221.291C176.731 222.156 175.708 222.391 174.889 221.763L152.709 203.844C151.958 203.215 151.754 202.036 152.3 201.093L167.86 175.551C168.406 174.686 169.429 174.451 170.248 175.079L192.428 192.998C193.179 193.627 193.383 194.884 192.837 195.749Z" stroke="url(#paint15_linear_121_1657)" stroke-miterlimit="10"/>
<path d="M195.225 197.714L175.912 224.278C175.23 225.221 174.07 225.299 173.251 224.513L150.184 202.272C149.365 201.486 149.297 200.15 149.979 199.207L169.292 172.643C169.975 171.7 171.135 171.622 171.954 172.407L195.021 194.649C195.771 195.435 195.908 196.849 195.225 197.714Z" stroke="url(#paint16_linear_121_1657)" stroke-miterlimit="10"/>
<path d="M197.682 200.15L174.07 227.343C173.251 228.286 171.886 228.286 171.067 227.343L147.454 200.15C146.635 199.207 146.635 197.635 147.454 196.692L171.067 169.499C171.886 168.556 173.251 168.556 174.07 169.499L197.682 196.692C198.501 197.714 198.501 199.207 197.682 200.15Z" stroke="url(#paint17_linear_121_1657)" stroke-miterlimit="10"/>
<path d="M200.208 203.136L171.749 230.643C170.794 231.586 169.293 231.429 168.474 230.329L144.588 197.556C143.769 196.456 143.905 194.727 144.861 193.784L173.319 166.277C174.274 165.334 175.776 165.491 176.595 166.591L200.481 199.364C201.368 200.543 201.231 202.193 200.208 203.136Z" stroke="url(#paint18_linear_121_1657)" stroke-miterlimit="10"/>
<path d="M202.801 206.752L168.951 234.023C167.791 234.966 166.153 234.651 165.334 233.315L141.653 194.334C140.834 192.998 141.107 191.112 142.267 190.169L176.117 162.898C177.277 161.955 178.915 162.269 179.734 163.605L203.415 202.586C204.234 203.922 203.961 205.808 202.801 206.752Z" stroke="url(#paint19_linear_121_1657)" stroke-miterlimit="10"/>
<path d="M205.326 210.996L165.607 237.402C164.242 238.346 162.468 237.795 161.649 236.224L138.719 190.483C137.9 188.912 138.377 186.868 139.742 185.925L179.461 159.518C180.826 158.575 182.6 159.126 183.419 160.697L206.349 206.438C207.168 208.088 206.691 210.131 205.326 210.996Z" stroke="url(#paint20_linear_121_1657)" stroke-miterlimit="10"/>
<path d="M207.783 216.025L161.581 240.86C159.943 241.725 158.1 240.939 157.35 239.053L135.784 185.846C135.034 183.96 135.716 181.838 137.354 180.974L183.556 156.139C185.194 155.274 187.036 156.06 187.787 157.946L209.353 211.153C210.103 212.96 209.353 215.161 207.783 216.025Z" stroke="url(#paint21_linear_121_1657)" stroke-miterlimit="10"/>
<path d="M210.035 221.842L156.804 244.162C154.961 244.948 152.914 243.847 152.231 241.725L132.849 180.424C132.167 178.302 133.123 175.944 134.965 175.158L188.196 152.839C190.039 152.053 192.086 153.153 192.769 155.275L212.15 216.576C212.901 218.698 211.946 221.056 210.035 221.842Z" stroke="url(#paint22_linear_121_1657)" stroke-miterlimit="10"/>
<path d="M212.082 228.522L151.276 247.305C149.16 247.934 146.976 246.519 146.43 244.083L130.12 174.058C129.574 171.621 130.802 169.107 132.918 168.478L193.724 149.694C195.84 149.066 198.024 150.48 198.57 152.917L214.88 222.942C215.494 225.378 214.198 227.814 212.082 228.522Z" stroke="url(#paint23_linear_121_1657)" stroke-miterlimit="10"/>
<path d="M213.788 236.145L144.997 250.056C142.609 250.527 140.357 248.72 139.879 245.969L127.731 166.67C127.322 163.92 128.891 161.326 131.28 160.776L200.139 146.787C202.528 146.315 204.78 148.123 205.258 150.873L217.405 230.172C217.815 233.001 216.177 235.595 213.788 236.145Z" stroke="url(#paint24_linear_121_1657)" stroke-miterlimit="10"/>
<path d="M215.085 244.711L137.695 252.491C135.033 252.727 132.645 250.448 132.372 247.383L125.615 158.26C125.411 155.195 127.39 152.445 130.051 152.13L207.441 144.35C210.103 144.114 212.491 146.393 212.764 149.458L219.521 238.581C219.725 241.724 217.746 244.475 215.085 244.711Z" stroke="url(#paint25_linear_121_1657)" stroke-miterlimit="10"/>
<path d="M215.699 254.457H129.369C126.366 254.457 123.909 251.628 123.909 248.17V148.752C123.909 145.294 126.366 142.464 129.369 142.464H215.699C218.702 142.464 221.159 145.294 221.159 148.752V248.17C221.159 251.628 218.702 254.457 215.699 254.457Z" stroke="url(#paint26_linear_121_1657)" stroke-miterlimit="10"/>
<path d="M215.631 265.224L120.088 255.636C116.744 255.322 114.287 251.942 114.628 248.091L122.954 138.064C123.227 134.213 126.162 131.383 129.506 131.776L225.049 141.364C228.393 141.679 230.85 145.058 230.509 148.909L222.183 258.937C221.841 262.709 218.907 265.539 215.631 265.224Z" stroke="url(#paint27_linear_121_1657)" stroke-miterlimit="10"/>
<path d="M214.607 277.169L109.646 255.871C106.029 255.164 103.572 251.156 104.186 246.912L122.681 126.038C123.295 121.873 126.776 119.044 130.461 119.751L235.422 141.049C239.039 141.757 241.496 145.765 240.881 150.009L222.387 270.882C221.705 275.126 218.224 277.877 214.607 277.169Z" stroke="url(#paint28_linear_121_1657)" stroke-miterlimit="10"/>
<path d="M212.492 290.216L98.113 254.928C94.1548 253.671 91.7662 249.034 92.8581 244.397L123.5 112.678C124.592 108.119 128.619 105.369 132.645 106.626L247.024 141.914C250.982 143.171 253.371 147.808 252.279 152.445L221.637 284.164C220.545 288.722 216.45 291.473 212.492 290.216Z" stroke="url(#paint29_linear_121_1657)" stroke-miterlimit="10"/>
<path d="M209.011 304.519L85.4191 252.728C81.1196 250.92 78.9358 245.497 80.5055 240.546L125.479 98.2172C127.049 93.2659 131.758 90.751 136.057 92.5586L259.649 144.35C263.948 146.158 266.132 151.581 264.563 156.532L219.589 298.861C218.088 303.734 213.311 306.327 209.011 304.519Z" stroke="url(#paint30_linear_121_1657)" stroke-miterlimit="10"/>
<path d="M204.029 319.923L71.5654 248.798C66.9929 246.361 64.9456 239.995 67.1294 234.73L128.891 82.1841C131.007 76.9185 136.535 74.5607 141.107 77.0757L273.571 148.201C278.143 150.637 280.191 157.003 278.007 162.269L216.245 314.814C214.061 320.08 208.602 322.359 204.029 319.923Z" stroke="url(#paint31_linear_121_1657)" stroke-miterlimit="10"/>
<path d="M197.205 336.428L56.5516 242.904C51.6379 239.682 50 232.451 52.7981 226.871L134.01 64.8946C136.808 59.236 143.086 57.3498 147.932 60.572L288.585 154.096C293.499 157.318 295.137 164.548 292.339 170.128L211.127 332.105C208.329 337.764 202.05 339.65 197.205 336.428Z" stroke="url(#paint32_linear_121_1657)" stroke-miterlimit="10"/>
<path d="M188.196 353.875L40.3774 234.652C35.259 230.486 33.9624 222.392 37.5794 216.419L141.107 46.1898C144.724 40.2955 151.754 38.8022 156.94 42.9676L304.759 162.191C309.877 166.356 311.174 174.451 307.557 180.424L204.029 350.653C200.412 356.626 193.315 358.04 188.196 353.875Z" stroke="url(#paint33_linear_121_1657)" stroke-miterlimit="10"/>
<path d="M176.8 372.266L23.1799 223.886C17.8568 218.699 17.1743 209.582 21.6102 203.452L150.457 26.5429C154.961 20.4128 162.878 19.6269 168.201 24.7353L321.821 173.116C327.144 178.303 327.826 187.419 323.39 193.549L194.543 370.459C190.107 376.589 182.123 377.375 176.8 372.266Z" stroke="url(#paint34_linear_121_1657)" stroke-miterlimit="10"/>
<path d="M162.673 391.285L5.09471 209.896C-0.364903 203.608 -0.364903 193.392 5.09471 187.104L162.605 5.71548C168.064 -0.571826 176.936 -0.571826 182.396 5.71548L339.905 187.104C345.365 193.392 345.365 203.608 339.905 209.896L182.396 391.285C177.004 397.572 168.132 397.572 162.673 391.285Z" stroke="url(#paint35_linear_121_1657)" stroke-miterlimit="10"/>
<defs>
<linearGradient id="paint0_linear_121_1657" x1="172.568" y1="193.543" x2="172.568" y2="203.484" gradientUnits="userSpaceOnUse">
<stop stop-color="#FE8900"/>
<stop offset="1" stop-color="#FDD800" stop-opacity="0.6"/>
</linearGradient>
<linearGradient id="paint1_linear_121_1657" x1="172.602" y1="193.07" x2="172.602" y2="203.851" gradientUnits="userSpaceOnUse">
<stop stop-color="#FE8900"/>
<stop offset="1" stop-color="#FDD800" stop-opacity="0.6"/>
</linearGradient>
<linearGradient id="paint2_linear_121_1657" x1="172.568" y1="192.603" x2="172.568" y2="204.398" gradientUnits="userSpaceOnUse">
<stop stop-color="#FE8900"/>
<stop offset="1" stop-color="#FDD800" stop-opacity="0.6"/>
</linearGradient>
<linearGradient id="paint3_linear_121_1657" x1="172.534" y1="192.07" x2="172.534" y2="204.85" gradientUnits="userSpaceOnUse">
<stop stop-color="#FE8900"/>
<stop offset="1" stop-color="#FDD800" stop-opacity="0.6"/>
</linearGradient>
<linearGradient id="paint4_linear_121_1657" x1="172.534" y1="191.564" x2="172.534" y2="205.358" gradientUnits="userSpaceOnUse">
<stop stop-color="#FE8900"/>
<stop offset="1" stop-color="#FDD800" stop-opacity="0.6"/>
</linearGradient>
<linearGradient id="paint5_linear_121_1657" x1="172.534" y1="191.142" x2="172.534" y2="205.903" gradientUnits="userSpaceOnUse">
<stop stop-color="#FE8900"/>
<stop offset="1" stop-color="#FDD800" stop-opacity="0.6"/>
</linearGradient>
<linearGradient id="paint6_linear_121_1657" x1="172.602" y1="190.708" x2="172.602" y2="206.215" gradientUnits="userSpaceOnUse">
<stop stop-color="#FE8900"/>
<stop offset="1" stop-color="#FDD800" stop-opacity="0.6"/>
</linearGradient>
<linearGradient id="paint7_linear_121_1657" x1="172.534" y1="190.327" x2="172.534" y2="206.606" gradientUnits="userSpaceOnUse">
<stop stop-color="#FE8900"/>
<stop offset="1" stop-color="#FDD800" stop-opacity="0.6"/>
</linearGradient>
<linearGradient id="paint8_linear_121_1657" x1="172.568" y1="190.091" x2="172.568" y2="206.909" gradientUnits="userSpaceOnUse">
<stop stop-color="#FE8900"/>
<stop offset="1" stop-color="#FDD800" stop-opacity="0.6"/>
</linearGradient>
<linearGradient id="paint9_linear_121_1657" x1="172.569" y1="188.51" x2="172.569" y2="208.489" gradientUnits="userSpaceOnUse">
<stop stop-color="#FE8900"/>
<stop offset="1" stop-color="#FDD800" stop-opacity="0.6"/>
</linearGradient>
<linearGradient id="paint10_linear_121_1657" x1="172.543" y1="186.623" x2="172.543" y2="210.299" gradientUnits="userSpaceOnUse">
<stop stop-color="#FE8900"/>
<stop offset="1" stop-color="#FDD800" stop-opacity="0.6"/>
</linearGradient>
<linearGradient id="paint11_linear_121_1657" x1="172.534" y1="184.713" x2="172.534" y2="212.367" gradientUnits="userSpaceOnUse">
<stop stop-color="#FE8900"/>
<stop offset="1" stop-color="#FDD800" stop-opacity="0.6"/>
</linearGradient>
<linearGradient id="paint12_linear_121_1657" x1="172.551" y1="182.477" x2="172.551" y2="214.443" gradientUnits="userSpaceOnUse">
<stop stop-color="#FE8900"/>
<stop offset="1" stop-color="#FDD800" stop-opacity="0.6"/>
</linearGradient>
<linearGradient id="paint13_linear_121_1657" x1="172.568" y1="180.067" x2="172.568" y2="216.775" gradientUnits="userSpaceOnUse">
<stop stop-color="#FE8900"/>
<stop offset="1" stop-color="#FDD800" stop-opacity="0.6"/>
</linearGradient>
<linearGradient id="paint14_linear_121_1657" x1="172.534" y1="177.512" x2="172.534" y2="219.407" gradientUnits="userSpaceOnUse">
<stop stop-color="#FE8900"/>
<stop offset="1" stop-color="#FDD800" stop-opacity="0.6"/>
</linearGradient>
<linearGradient id="paint15_linear_121_1657" x1="172.568" y1="174.724" x2="172.568" y2="222.118" gradientUnits="userSpaceOnUse">
<stop stop-color="#FE8900"/>
<stop offset="1" stop-color="#FDD800" stop-opacity="0.6"/>
</linearGradient>
<linearGradient id="paint16_linear_121_1657" x1="172.591" y1="171.872" x2="172.591" y2="225.049" gradientUnits="userSpaceOnUse">
<stop stop-color="#FE8900"/>
<stop offset="1" stop-color="#FDD800" stop-opacity="0.6"/>
</linearGradient>
<linearGradient id="paint17_linear_121_1657" x1="172.568" y1="168.792" x2="172.568" y2="228.05" gradientUnits="userSpaceOnUse">
<stop stop-color="#FE8900"/>
<stop offset="1" stop-color="#FDD800" stop-opacity="0.6"/>
</linearGradient>
<linearGradient id="paint18_linear_121_1657" x1="172.559" y1="165.658" x2="172.559" y2="231.263" gradientUnits="userSpaceOnUse">
<stop stop-color="#FE8900"/>
<stop offset="1" stop-color="#FDD800" stop-opacity="0.6"/>
</linearGradient>
<linearGradient id="paint19_linear_121_1657" x1="172.534" y1="162.354" x2="172.534" y2="234.566" gradientUnits="userSpaceOnUse">
<stop stop-color="#FE8900"/>
<stop offset="1" stop-color="#FDD800" stop-opacity="0.6"/>
</linearGradient>
<linearGradient id="paint20_linear_121_1657" x1="172.534" y1="159.056" x2="172.534" y2="237.865" gradientUnits="userSpaceOnUse">
<stop stop-color="#FE8900"/>
<stop offset="1" stop-color="#FDD800" stop-opacity="0.6"/>
</linearGradient>
<linearGradient id="paint21_linear_121_1657" x1="172.563" y1="155.789" x2="172.563" y2="241.21" gradientUnits="userSpaceOnUse">
<stop stop-color="#FE8900"/>
<stop offset="1" stop-color="#FDD800" stop-opacity="0.6"/>
</linearGradient>
<linearGradient id="paint22_linear_121_1657" x1="172.518" y1="152.584" x2="172.518" y2="244.416" gradientUnits="userSpaceOnUse">
<stop stop-color="#FE8900"/>
<stop offset="1" stop-color="#FDD800" stop-opacity="0.6"/>
</linearGradient>
<linearGradient id="paint23_linear_121_1657" x1="172.512" y1="149.545" x2="172.512" y2="247.454" gradientUnits="userSpaceOnUse">
<stop stop-color="#FE8900"/>
<stop offset="1" stop-color="#FDD800" stop-opacity="0.6"/>
</linearGradient>
<linearGradient id="paint24_linear_121_1657" x1="172.567" y1="146.712" x2="172.567" y2="250.13" gradientUnits="userSpaceOnUse">
<stop stop-color="#FE8900"/>
<stop offset="1" stop-color="#FDD800" stop-opacity="0.6"/>
</linearGradient>
<linearGradient id="paint25_linear_121_1657" x1="172.568" y1="144.333" x2="172.568" y2="252.508" gradientUnits="userSpaceOnUse">
<stop stop-color="#FE8900"/>
<stop offset="1" stop-color="#FDD800" stop-opacity="0.6"/>
</linearGradient>
<linearGradient id="paint26_linear_121_1657" x1="172.534" y1="142.464" x2="172.534" y2="254.457" gradientUnits="userSpaceOnUse">
<stop stop-color="#FE8900"/>
<stop offset="1" stop-color="#FDD800" stop-opacity="0.6"/>
</linearGradient>
<linearGradient id="paint27_linear_121_1657" x1="172.568" y1="131.74" x2="172.568" y2="265.248" gradientUnits="userSpaceOnUse">
<stop stop-color="#FE8900"/>
<stop offset="1" stop-color="#FDD800" stop-opacity="0.6"/>
</linearGradient>
<linearGradient id="paint28_linear_121_1657" x1="172.534" y1="119.643" x2="172.534" y2="277.28" gradientUnits="userSpaceOnUse">
<stop stop-color="#FE8900"/>
<stop offset="1" stop-color="#FDD800" stop-opacity="0.6"/>
</linearGradient>
<linearGradient id="paint29_linear_121_1657" x1="172.568" y1="106.321" x2="172.568" y2="290.521" gradientUnits="userSpaceOnUse">
<stop stop-color="#FE8900"/>
<stop offset="1" stop-color="#FDD800" stop-opacity="0.6"/>
</linearGradient>
<linearGradient id="paint30_linear_121_1657" x1="172.534" y1="91.9731" x2="172.534" y2="305.096" gradientUnits="userSpaceOnUse">
<stop stop-color="#FE8900"/>
<stop offset="1" stop-color="#FDD800" stop-opacity="0.6"/>
</linearGradient>
<linearGradient id="paint31_linear_121_1657" x1="172.568" y1="76.0654" x2="172.568" y2="320.899" gradientUnits="userSpaceOnUse">
<stop stop-color="#FE8900"/>
<stop offset="1" stop-color="#FDD800" stop-opacity="0.6"/>
</linearGradient>
<linearGradient id="paint32_linear_121_1657" x1="172.568" y1="59.0029" x2="172.568" y2="337.997" gradientUnits="userSpaceOnUse">
<stop stop-color="#FE8900"/>
<stop offset="1" stop-color="#FDD800" stop-opacity="0.6"/>
</linearGradient>
<linearGradient id="paint33_linear_121_1657" x1="172.568" y1="40.6011" x2="172.568" y2="356.263" gradientUnits="userSpaceOnUse">
<stop stop-color="#FE8900"/>
<stop offset="1" stop-color="#FDD800" stop-opacity="0.6"/>
</linearGradient>
<linearGradient id="paint34_linear_121_1657" x1="172.5" y1="21.3687" x2="172.5" y2="375.633" gradientUnits="userSpaceOnUse">
<stop stop-color="#FE8900"/>
<stop offset="1" stop-color="#FDD800" stop-opacity="0.6"/>
</linearGradient>
<linearGradient id="paint35_linear_121_1657" x1="172.5" y1="1" x2="172.5" y2="396" gradientUnits="userSpaceOnUse">
<stop stop-color="#FE8900"/>
<stop offset="1" stop-color="#FDD800" stop-opacity="0.6"/>
</linearGradient>
</defs>
</svg>
