<svg width="345" height="399" viewBox="0 0 345 399" fill="none" xmlns="http://www.w3.org/2000/svg">
<path d="M170.194 193.452L154.792 181.134L157.173 187.145L174.807 205.473L190.208 217.792L187.827 211.781L170.194 193.452Z" stroke="url(#paint0_linear_121_1526)" stroke-opacity="0.6" stroke-width="2" stroke-miterlimit="10"/>
<path d="M170.268 193.23L153.974 179.873L156.206 186.106L174.732 205.771L191.027 219.128L188.794 212.82L170.268 193.23Z" stroke="url(#paint1_linear_121_1526)" stroke-opacity="0.6" stroke-width="2" stroke-miterlimit="10"/>
<path d="M170.342 193.007L153.081 178.537L155.164 184.993L174.658 205.993L191.919 220.463L189.836 214.007L170.342 193.007Z" stroke="url(#paint2_linear_121_1526)" stroke-opacity="0.6" stroke-width="2" stroke-miterlimit="10"/>
<path d="M170.491 192.784L152.114 177.053L154.123 183.806L174.509 206.216L192.887 221.873L190.878 215.195L170.491 192.784Z" stroke="url(#paint3_linear_121_1526)" stroke-opacity="0.6" stroke-width="2" stroke-miterlimit="10"/>
<path d="M170.714 192.562L151.22 175.568L153.006 182.544L174.286 206.438L193.779 223.431L191.994 216.456L170.714 192.562Z" stroke="url(#paint4_linear_121_1526)" stroke-opacity="0.6" stroke-width="2" stroke-miterlimit="10"/>
<path d="M170.938 192.265L150.254 174.011L151.891 181.135L174.063 206.661L194.747 224.99L193.11 217.792L170.938 192.265Z" stroke="url(#paint5_linear_121_1526)" stroke-opacity="0.6" stroke-width="2" stroke-miterlimit="10"/>
<path d="M171.161 192.042L149.36 172.303L150.7 179.723L173.839 206.883L195.639 226.696L194.3 219.275L171.161 192.042Z" stroke="url(#paint6_linear_121_1526)" stroke-opacity="0.6" stroke-width="2" stroke-miterlimit="10"/>
<path d="M171.458 191.894L148.393 170.522L149.435 178.166L173.542 207.106L196.607 228.403L195.565 220.76L171.458 191.894Z" stroke="url(#paint7_linear_121_1526)" stroke-opacity="0.6" stroke-width="2" stroke-miterlimit="10"/>
<path d="M171.756 191.671L147.426 168.741L148.17 176.533L173.244 207.328L197.574 230.258L196.83 222.392L171.756 191.671Z" stroke="url(#paint8_linear_121_1526)" stroke-opacity="0.6" stroke-width="2" stroke-miterlimit="10"/>
<path d="M172.128 191.448L146.459 166.812L146.831 174.826L172.872 207.477L198.541 232.187L198.169 224.173L172.128 191.448Z" stroke="url(#paint9_linear_121_1526)" stroke-opacity="0.6" stroke-width="2" stroke-miterlimit="10"/>
<path d="M172.574 191.3L145.566 164.809L145.491 172.971L172.426 207.7L199.434 234.191L199.508 226.029L172.574 191.3Z" stroke="url(#paint10_linear_121_1526)" stroke-opacity="0.6" stroke-width="2" stroke-miterlimit="10"/>
<path d="M173.021 191.152L144.599 162.731L144.078 171.042L171.979 207.848L200.402 236.269L200.922 227.958L173.021 191.152Z" stroke="url(#paint11_linear_121_1526)" stroke-opacity="0.6" stroke-width="2" stroke-miterlimit="10"/>
<path d="M173.616 191.003L143.706 160.504L142.59 168.964L171.384 207.996L201.294 238.495L202.41 229.961L173.616 191.003Z" stroke="url(#paint12_linear_121_1526)" stroke-opacity="0.6" stroke-width="2" stroke-miterlimit="10"/>
<path d="M174.212 190.929L142.813 158.204L141.102 166.812L170.789 208.071L202.187 240.721L203.899 232.188L174.212 190.929Z" stroke="url(#paint13_linear_121_1526)" stroke-opacity="0.6" stroke-width="2" stroke-miterlimit="10"/>
<path d="M174.881 190.854L141.994 155.903L139.539 164.511L170.119 208.144L203.08 243.095L205.461 234.487L174.881 190.854Z" stroke="url(#paint14_linear_121_1526)" stroke-opacity="0.6" stroke-width="2" stroke-miterlimit="10"/>
<path d="M175.699 190.78L141.176 153.38L137.977 162.063L169.301 208.145L203.824 245.545L207.023 236.862L175.699 190.78Z" stroke="url(#paint15_linear_121_1526)" stroke-opacity="0.6" stroke-width="2" stroke-miterlimit="10"/>
<path d="M176.518 190.779L140.432 150.856L136.414 159.539L168.482 208.144L204.568 248.141L208.586 239.459L176.518 190.779Z" stroke="url(#paint16_linear_121_1526)" stroke-opacity="0.6" stroke-width="2" stroke-miterlimit="10"/>
<path d="M177.485 190.855L139.688 148.26L134.778 156.868L167.515 208.145L205.312 250.739L210.223 242.131L177.485 190.855Z" stroke="url(#paint17_linear_121_1526)" stroke-opacity="0.6" stroke-width="2" stroke-miterlimit="10"/>
<path d="M178.527 190.929L139.093 145.515L133.141 154.049L166.473 207.997L205.907 253.485L211.934 244.952L178.527 190.929Z" stroke="url(#paint18_linear_121_1526)" stroke-opacity="0.6" stroke-width="2" stroke-miterlimit="10"/>
<path d="M179.643 191.152L138.572 142.695L131.429 151.08L165.357 207.848L206.428 256.23L213.571 247.919L179.643 191.152Z" stroke="url(#paint19_linear_121_1526)" stroke-opacity="0.6" stroke-width="2" stroke-miterlimit="10"/>
<path d="M180.982 191.375L138.2 139.801L129.792 147.964L164.018 207.626L206.8 259.125L215.208 251.036L180.982 191.375Z" stroke="url(#paint20_linear_121_1526)" stroke-opacity="0.6" stroke-width="2" stroke-miterlimit="10"/>
<path d="M182.321 191.672L137.902 136.833L128.081 144.699L162.679 207.329L207.098 262.094L216.919 254.228L182.321 191.672Z" stroke="url(#paint21_linear_121_1526)" stroke-opacity="0.6" stroke-width="2" stroke-miterlimit="10"/>
<path d="M183.884 192.043L137.754 133.866L126.37 141.286L161.117 206.959L207.247 265.137L218.63 257.642L183.884 192.043Z" stroke="url(#paint22_linear_121_1526)" stroke-opacity="0.6" stroke-width="2" stroke-miterlimit="10"/>
<path d="M185.595 192.488L137.828 130.749L124.733 137.724L159.405 206.513L207.172 268.253L220.267 261.203L185.595 192.488Z" stroke="url(#paint23_linear_121_1526)" stroke-opacity="0.6" stroke-width="2" stroke-miterlimit="10"/>
<path d="M187.381 193.007L138.051 127.557L123.096 134.013L157.619 205.919L206.949 271.369L221.904 264.913L187.381 193.007Z" stroke="url(#paint24_linear_121_1526)" stroke-opacity="0.6" stroke-width="2" stroke-miterlimit="10"/>
<path d="M189.389 193.675L138.423 124.367L121.533 130.155L155.61 205.252L206.577 274.634L223.466 268.846L189.389 193.675Z" stroke="url(#paint25_linear_121_1526)" stroke-opacity="0.6" stroke-width="2" stroke-miterlimit="10"/>
<path d="M191.621 194.491L139.093 121.101L119.971 126.147L153.378 204.508L205.907 277.824L225.029 272.852L191.621 194.491Z" stroke="url(#paint26_linear_121_1526)" stroke-opacity="0.6" stroke-width="2" stroke-miterlimit="10"/>
<path d="M194.002 195.456L139.986 117.836L118.483 121.918L150.997 203.545L205.014 281.09L226.517 277.083L194.002 195.456Z" stroke="url(#paint27_linear_121_1526)" stroke-opacity="0.6" stroke-width="2" stroke-miterlimit="10"/>
<path d="M196.607 196.495L141.176 114.571L117.07 117.614L148.393 202.506L203.824 284.429L227.931 281.387L196.607 196.495Z" stroke="url(#paint28_linear_121_1526)" stroke-opacity="0.6" stroke-width="2" stroke-miterlimit="10"/>
<path d="M199.434 197.682L142.664 111.306L115.804 113.087L145.566 201.244L202.335 287.694L229.195 285.913L199.434 197.682Z" stroke="url(#paint29_linear_121_1526)" stroke-opacity="0.6" stroke-width="2" stroke-miterlimit="10"/>
<path d="M202.485 199.092L144.599 108.041L114.614 108.412L142.515 199.834L200.401 290.959L230.386 290.588L202.485 199.092Z" stroke="url(#paint30_linear_121_1526)" stroke-opacity="0.6" stroke-width="2" stroke-miterlimit="10"/>
<path d="M205.758 200.724L146.831 104.776L113.572 103.588L139.241 198.276L198.169 294.15L231.427 295.412L205.758 200.724Z" stroke="url(#paint31_linear_121_1526)" stroke-opacity="0.6" stroke-width="2" stroke-miterlimit="10"/>
<path d="M209.33 202.505L149.584 101.659L112.754 98.6162L135.67 196.494L195.416 297.341L232.246 300.309L209.33 202.505Z" stroke="url(#paint32_linear_121_1526)" stroke-opacity="0.6" stroke-width="2" stroke-miterlimit="10"/>
<path d="M213.199 204.51L152.709 98.5431L112.084 93.5713L131.801 194.492L192.291 300.384L232.916 305.43L213.199 204.51Z" stroke="url(#paint33_linear_121_1526)" stroke-opacity="0.6" stroke-width="2" stroke-miterlimit="10"/>
<path d="M217.366 206.809L156.429 95.574L111.638 88.3018L127.635 192.191L188.571 303.351L233.362 310.698L217.366 206.809Z" stroke="url(#paint34_linear_121_1526)" stroke-opacity="0.6" stroke-width="2" stroke-miterlimit="10"/>
<path d="M221.829 209.333L160.744 92.7547L111.415 82.9595L123.17 189.668L184.256 306.246L233.585 316.041L221.829 209.333Z" stroke="url(#paint35_linear_121_1526)" stroke-opacity="0.6" stroke-width="2" stroke-miterlimit="10"/>
<path d="M226.666 212.151L165.655 90.0819L111.489 77.4668L118.334 186.847L179.345 308.842L233.511 321.531L226.666 212.151Z" stroke="url(#paint36_linear_121_1526)" stroke-opacity="0.6" stroke-width="2" stroke-miterlimit="10"/>
<path d="M231.874 215.269L171.31 87.6346L111.936 71.9028L113.126 183.732L173.69 311.292L233.064 327.098L231.874 215.269Z" stroke="url(#paint37_linear_121_1526)" stroke-opacity="0.6" stroke-width="2" stroke-miterlimit="10"/>
<path d="M237.455 218.682L177.709 85.4821L112.754 66.2627L107.546 180.244L167.292 313.518L232.246 332.737L237.455 218.682Z" stroke="url(#paint38_linear_121_1526)" stroke-opacity="0.6" stroke-width="2" stroke-miterlimit="10"/>
<path d="M243.481 222.541L184.925 83.5528L113.944 60.5488L101.519 176.459L160.075 315.373L231.055 338.451L243.481 222.541Z" stroke="url(#paint39_linear_121_1526)" stroke-opacity="0.6" stroke-width="2" stroke-miterlimit="10"/>
<path d="M249.879 226.771L193.035 82.0686L115.655 54.7607L95.1201 172.229L151.964 316.931L229.344 344.165L249.879 226.771Z" stroke="url(#paint40_linear_121_1526)" stroke-opacity="0.6" stroke-width="2" stroke-miterlimit="10"/>
<path d="M256.799 231.372L202.187 80.8814L117.888 48.9727L88.2009 167.554L142.813 318.045L227.112 349.953L256.799 231.372Z" stroke="url(#paint41_linear_121_1526)" stroke-opacity="0.6" stroke-width="2" stroke-miterlimit="10"/>
<path d="M264.165 236.491L212.306 80.213L120.641 43.2583L80.8347 162.508L132.694 318.712L224.359 355.741L264.165 236.491Z" stroke="url(#paint42_linear_121_1526)" stroke-opacity="0.6" stroke-width="2" stroke-miterlimit="10"/>
<path d="M272.052 242.057L223.616 80.0651L124.064 37.4707L72.9485 156.869L121.385 318.861L220.937 361.455L272.052 242.057Z" stroke="url(#paint43_linear_121_1526)" stroke-opacity="0.6" stroke-width="2" stroke-miterlimit="10"/>
<path d="M280.459 248.217L236.189 80.5104L128.23 31.8311L64.5405 150.784L108.811 318.416L216.77 367.169L280.459 248.217Z" stroke="url(#paint44_linear_121_1526)" stroke-opacity="0.6" stroke-width="2" stroke-miterlimit="10"/>
<path d="M289.462 254.895L250.103 81.6977L133.141 26.2656L55.5378 144.105L94.8973 317.303L211.86 372.661L289.462 254.895Z" stroke="url(#paint45_linear_121_1526)" stroke-opacity="0.6" stroke-width="2" stroke-miterlimit="10"/>
<path d="M299.06 262.167L265.504 83.5529L138.944 20.9229L45.9395 136.833L79.4954 315.448L206.056 378.078L299.06 262.167Z" stroke="url(#paint46_linear_121_1526)" stroke-opacity="0.6" stroke-width="2" stroke-miterlimit="10"/>
<path d="M309.254 270.107L282.468 86.2982L145.641 15.728L35.7466 128.893L62.5318 312.627L199.36 383.272L309.254 270.107Z" stroke="url(#paint47_linear_121_1526)" stroke-opacity="0.6" stroke-width="2" stroke-miterlimit="10"/>
<path d="M320.191 278.715L301.069 90.0087L153.453 10.8306L24.8091 120.285L43.9308 308.991L191.547 388.169L320.191 278.715Z" stroke="url(#paint48_linear_121_1526)" stroke-opacity="0.6" stroke-width="2" stroke-miterlimit="10"/>
<path d="M331.723 288.066L321.53 94.7585L162.306 6.23047L13.2764 110.935L23.4696 304.169L182.693 392.771L331.723 288.066Z" stroke="url(#paint49_linear_121_1526)" stroke-opacity="0.6" stroke-width="2" stroke-miterlimit="10"/>
<path d="M344 298.231V100.769L172.5 2L1 100.769V298.231L172.5 397L344 298.231Z" stroke="url(#paint50_linear_121_1526)" stroke-opacity="0.6" stroke-width="2" stroke-miterlimit="10"/>
<defs>
<linearGradient id="paint0_linear_121_1526" x1="172.5" y1="181.134" x2="172.5" y2="217.792" gradientUnits="userSpaceOnUse">
<stop stop-color="#FE8900"/>
<stop offset="1" stop-color="#FDD800" stop-opacity="0.6"/>
</linearGradient>
<linearGradient id="paint1_linear_121_1526" x1="172.5" y1="179.873" x2="172.5" y2="219.128" gradientUnits="userSpaceOnUse">
<stop stop-color="#FE8900"/>
<stop offset="1" stop-color="#FDD800" stop-opacity="0.6"/>
</linearGradient>
<linearGradient id="paint2_linear_121_1526" x1="172.5" y1="178.537" x2="172.5" y2="220.463" gradientUnits="userSpaceOnUse">
<stop stop-color="#FE8900"/>
<stop offset="1" stop-color="#FDD800" stop-opacity="0.6"/>
</linearGradient>
<linearGradient id="paint3_linear_121_1526" x1="172.5" y1="177.053" x2="172.5" y2="221.873" gradientUnits="userSpaceOnUse">
<stop stop-color="#FE8900"/>
<stop offset="1" stop-color="#FDD800" stop-opacity="0.6"/>
</linearGradient>
<linearGradient id="paint4_linear_121_1526" x1="172.5" y1="175.568" x2="172.5" y2="223.431" gradientUnits="userSpaceOnUse">
<stop stop-color="#FE8900"/>
<stop offset="1" stop-color="#FDD800" stop-opacity="0.6"/>
</linearGradient>
<linearGradient id="paint5_linear_121_1526" x1="172.5" y1="174.011" x2="172.5" y2="224.99" gradientUnits="userSpaceOnUse">
<stop stop-color="#FE8900"/>
<stop offset="1" stop-color="#FDD800" stop-opacity="0.6"/>
</linearGradient>
<linearGradient id="paint6_linear_121_1526" x1="172.5" y1="172.303" x2="172.5" y2="226.696" gradientUnits="userSpaceOnUse">
<stop stop-color="#FE8900"/>
<stop offset="1" stop-color="#FDD800" stop-opacity="0.6"/>
</linearGradient>
<linearGradient id="paint7_linear_121_1526" x1="172.5" y1="170.522" x2="172.5" y2="228.403" gradientUnits="userSpaceOnUse">
<stop stop-color="#FE8900"/>
<stop offset="1" stop-color="#FDD800" stop-opacity="0.6"/>
</linearGradient>
<linearGradient id="paint8_linear_121_1526" x1="172.5" y1="168.741" x2="172.5" y2="230.258" gradientUnits="userSpaceOnUse">
<stop stop-color="#FE8900"/>
<stop offset="1" stop-color="#FDD800" stop-opacity="0.6"/>
</linearGradient>
<linearGradient id="paint9_linear_121_1526" x1="172.5" y1="166.812" x2="172.5" y2="232.187" gradientUnits="userSpaceOnUse">
<stop stop-color="#FE8900"/>
<stop offset="1" stop-color="#FDD800" stop-opacity="0.6"/>
</linearGradient>
<linearGradient id="paint10_linear_121_1526" x1="172.5" y1="164.809" x2="172.5" y2="234.191" gradientUnits="userSpaceOnUse">
<stop stop-color="#FE8900"/>
<stop offset="1" stop-color="#FDD800" stop-opacity="0.6"/>
</linearGradient>
<linearGradient id="paint11_linear_121_1526" x1="172.5" y1="162.731" x2="172.5" y2="236.269" gradientUnits="userSpaceOnUse">
<stop stop-color="#FE8900"/>
<stop offset="1" stop-color="#FDD800" stop-opacity="0.6"/>
</linearGradient>
<linearGradient id="paint12_linear_121_1526" x1="172.5" y1="160.504" x2="172.5" y2="238.495" gradientUnits="userSpaceOnUse">
<stop stop-color="#FE8900"/>
<stop offset="1" stop-color="#FDD800" stop-opacity="0.6"/>
</linearGradient>
<linearGradient id="paint13_linear_121_1526" x1="172.5" y1="158.204" x2="172.5" y2="240.721" gradientUnits="userSpaceOnUse">
<stop stop-color="#FE8900"/>
<stop offset="1" stop-color="#FDD800" stop-opacity="0.6"/>
</linearGradient>
<linearGradient id="paint14_linear_121_1526" x1="172.5" y1="155.903" x2="172.5" y2="243.095" gradientUnits="userSpaceOnUse">
<stop stop-color="#FE8900"/>
<stop offset="1" stop-color="#FDD800" stop-opacity="0.6"/>
</linearGradient>
<linearGradient id="paint15_linear_121_1526" x1="172.5" y1="153.38" x2="172.5" y2="245.545" gradientUnits="userSpaceOnUse">
<stop stop-color="#FE8900"/>
<stop offset="1" stop-color="#FDD800" stop-opacity="0.6"/>
</linearGradient>
<linearGradient id="paint16_linear_121_1526" x1="172.5" y1="150.856" x2="172.5" y2="248.141" gradientUnits="userSpaceOnUse">
<stop stop-color="#FE8900"/>
<stop offset="1" stop-color="#FDD800" stop-opacity="0.6"/>
</linearGradient>
<linearGradient id="paint17_linear_121_1526" x1="172.5" y1="148.26" x2="172.5" y2="250.739" gradientUnits="userSpaceOnUse">
<stop stop-color="#FE8900"/>
<stop offset="1" stop-color="#FDD800" stop-opacity="0.6"/>
</linearGradient>
<linearGradient id="paint18_linear_121_1526" x1="172.537" y1="145.515" x2="172.537" y2="253.485" gradientUnits="userSpaceOnUse">
<stop stop-color="#FE8900"/>
<stop offset="1" stop-color="#FDD800" stop-opacity="0.6"/>
</linearGradient>
<linearGradient id="paint19_linear_121_1526" x1="172.5" y1="142.695" x2="172.5" y2="256.23" gradientUnits="userSpaceOnUse">
<stop stop-color="#FE8900"/>
<stop offset="1" stop-color="#FDD800" stop-opacity="0.6"/>
</linearGradient>
<linearGradient id="paint20_linear_121_1526" x1="172.5" y1="139.801" x2="172.5" y2="259.125" gradientUnits="userSpaceOnUse">
<stop stop-color="#FE8900"/>
<stop offset="1" stop-color="#FDD800" stop-opacity="0.6"/>
</linearGradient>
<linearGradient id="paint21_linear_121_1526" x1="172.5" y1="136.833" x2="172.5" y2="262.094" gradientUnits="userSpaceOnUse">
<stop stop-color="#FE8900"/>
<stop offset="1" stop-color="#FDD800" stop-opacity="0.6"/>
</linearGradient>
<linearGradient id="paint22_linear_121_1526" x1="172.5" y1="133.866" x2="172.5" y2="265.137" gradientUnits="userSpaceOnUse">
<stop stop-color="#FE8900"/>
<stop offset="1" stop-color="#FDD800" stop-opacity="0.6"/>
</linearGradient>
<linearGradient id="paint23_linear_121_1526" x1="172.5" y1="130.749" x2="172.5" y2="268.253" gradientUnits="userSpaceOnUse">
<stop stop-color="#FE8900"/>
<stop offset="1" stop-color="#FDD800" stop-opacity="0.6"/>
</linearGradient>
<linearGradient id="paint24_linear_121_1526" x1="172.5" y1="127.557" x2="172.5" y2="271.369" gradientUnits="userSpaceOnUse">
<stop stop-color="#FE8900"/>
<stop offset="1" stop-color="#FDD800" stop-opacity="0.6"/>
</linearGradient>
<linearGradient id="paint25_linear_121_1526" x1="172.5" y1="124.367" x2="172.5" y2="274.634" gradientUnits="userSpaceOnUse">
<stop stop-color="#FE8900"/>
<stop offset="1" stop-color="#FDD800" stop-opacity="0.6"/>
</linearGradient>
<linearGradient id="paint26_linear_121_1526" x1="172.5" y1="121.101" x2="172.5" y2="277.824" gradientUnits="userSpaceOnUse">
<stop stop-color="#FE8900"/>
<stop offset="1" stop-color="#FDD800" stop-opacity="0.6"/>
</linearGradient>
<linearGradient id="paint27_linear_121_1526" x1="172.5" y1="117.836" x2="172.5" y2="281.09" gradientUnits="userSpaceOnUse">
<stop stop-color="#FE8900"/>
<stop offset="1" stop-color="#FDD800" stop-opacity="0.6"/>
</linearGradient>
<linearGradient id="paint28_linear_121_1526" x1="172.5" y1="114.571" x2="172.5" y2="284.429" gradientUnits="userSpaceOnUse">
<stop stop-color="#FE8900"/>
<stop offset="1" stop-color="#FDD800" stop-opacity="0.6"/>
</linearGradient>
<linearGradient id="paint29_linear_121_1526" x1="172.5" y1="111.306" x2="172.5" y2="287.694" gradientUnits="userSpaceOnUse">
<stop stop-color="#FE8900"/>
<stop offset="1" stop-color="#FDD800" stop-opacity="0.6"/>
</linearGradient>
<linearGradient id="paint30_linear_121_1526" x1="172.5" y1="108.041" x2="172.5" y2="290.959" gradientUnits="userSpaceOnUse">
<stop stop-color="#FE8900"/>
<stop offset="1" stop-color="#FDD800" stop-opacity="0.6"/>
</linearGradient>
<linearGradient id="paint31_linear_121_1526" x1="172.5" y1="103.588" x2="172.5" y2="295.412" gradientUnits="userSpaceOnUse">
<stop stop-color="#FE8900"/>
<stop offset="1" stop-color="#FDD800" stop-opacity="0.6"/>
</linearGradient>
<linearGradient id="paint32_linear_121_1526" x1="172.5" y1="98.6162" x2="172.5" y2="300.309" gradientUnits="userSpaceOnUse">
<stop stop-color="#FE8900"/>
<stop offset="1" stop-color="#FDD800" stop-opacity="0.6"/>
</linearGradient>
<linearGradient id="paint33_linear_121_1526" x1="172.5" y1="93.5713" x2="172.5" y2="305.43" gradientUnits="userSpaceOnUse">
<stop stop-color="#FE8900"/>
<stop offset="1" stop-color="#FDD800" stop-opacity="0.6"/>
</linearGradient>
<linearGradient id="paint34_linear_121_1526" x1="172.5" y1="88.3018" x2="172.5" y2="310.698" gradientUnits="userSpaceOnUse">
<stop stop-color="#FE8900"/>
<stop offset="1" stop-color="#FDD800" stop-opacity="0.6"/>
</linearGradient>
<linearGradient id="paint35_linear_121_1526" x1="172.5" y1="82.9595" x2="172.5" y2="316.041" gradientUnits="userSpaceOnUse">
<stop stop-color="#FE8900"/>
<stop offset="1" stop-color="#FDD800" stop-opacity="0.6"/>
</linearGradient>
<linearGradient id="paint36_linear_121_1526" x1="172.5" y1="77.4668" x2="172.5" y2="321.531" gradientUnits="userSpaceOnUse">
<stop stop-color="#FE8900"/>
<stop offset="1" stop-color="#FDD800" stop-opacity="0.6"/>
</linearGradient>
<linearGradient id="paint37_linear_121_1526" x1="172.5" y1="71.9028" x2="172.5" y2="327.098" gradientUnits="userSpaceOnUse">
<stop stop-color="#FE8900"/>
<stop offset="1" stop-color="#FDD800" stop-opacity="0.6"/>
</linearGradient>
<linearGradient id="paint38_linear_121_1526" x1="172.5" y1="66.2627" x2="172.5" y2="332.737" gradientUnits="userSpaceOnUse">
<stop stop-color="#FE8900"/>
<stop offset="1" stop-color="#FDD800" stop-opacity="0.6"/>
</linearGradient>
<linearGradient id="paint39_linear_121_1526" x1="172.5" y1="60.5488" x2="172.5" y2="338.451" gradientUnits="userSpaceOnUse">
<stop stop-color="#FE8900"/>
<stop offset="1" stop-color="#FDD800" stop-opacity="0.6"/>
</linearGradient>
<linearGradient id="paint40_linear_121_1526" x1="172.5" y1="54.7607" x2="172.5" y2="344.165" gradientUnits="userSpaceOnUse">
<stop stop-color="#FE8900"/>
<stop offset="1" stop-color="#FDD800" stop-opacity="0.6"/>
</linearGradient>
<linearGradient id="paint41_linear_121_1526" x1="172.5" y1="48.9727" x2="172.5" y2="349.953" gradientUnits="userSpaceOnUse">
<stop stop-color="#FE8900"/>
<stop offset="1" stop-color="#FDD800" stop-opacity="0.6"/>
</linearGradient>
<linearGradient id="paint42_linear_121_1526" x1="172.5" y1="43.2583" x2="172.5" y2="355.741" gradientUnits="userSpaceOnUse">
<stop stop-color="#FE8900"/>
<stop offset="1" stop-color="#FDD800" stop-opacity="0.6"/>
</linearGradient>
<linearGradient id="paint43_linear_121_1526" x1="172.5" y1="37.4707" x2="172.5" y2="361.455" gradientUnits="userSpaceOnUse">
<stop stop-color="#FE8900"/>
<stop offset="1" stop-color="#FDD800" stop-opacity="0.6"/>
</linearGradient>
<linearGradient id="paint44_linear_121_1526" x1="172.5" y1="31.8311" x2="172.5" y2="367.169" gradientUnits="userSpaceOnUse">
<stop stop-color="#FE8900"/>
<stop offset="1" stop-color="#FDD800" stop-opacity="0.6"/>
</linearGradient>
<linearGradient id="paint45_linear_121_1526" x1="172.5" y1="26.2656" x2="172.5" y2="372.661" gradientUnits="userSpaceOnUse">
<stop stop-color="#FE8900"/>
<stop offset="1" stop-color="#FDD800" stop-opacity="0.6"/>
</linearGradient>
<linearGradient id="paint46_linear_121_1526" x1="172.5" y1="20.9229" x2="172.5" y2="378.078" gradientUnits="userSpaceOnUse">
<stop stop-color="#FE8900"/>
<stop offset="1" stop-color="#FDD800" stop-opacity="0.6"/>
</linearGradient>
<linearGradient id="paint47_linear_121_1526" x1="172.5" y1="15.728" x2="172.5" y2="383.272" gradientUnits="userSpaceOnUse">
<stop stop-color="#FE8900"/>
<stop offset="1" stop-color="#FDD800" stop-opacity="0.6"/>
</linearGradient>
<linearGradient id="paint48_linear_121_1526" x1="172.5" y1="10.8306" x2="172.5" y2="388.169" gradientUnits="userSpaceOnUse">
<stop stop-color="#FE8900"/>
<stop offset="1" stop-color="#FDD800" stop-opacity="0.6"/>
</linearGradient>
<linearGradient id="paint49_linear_121_1526" x1="172.5" y1="6.23047" x2="172.5" y2="392.771" gradientUnits="userSpaceOnUse">
<stop stop-color="#FE8900"/>
<stop offset="1" stop-color="#FDD800" stop-opacity="0.6"/>
</linearGradient>
<linearGradient id="paint50_linear_121_1526" x1="172.5" y1="2" x2="172.5" y2="397" gradientUnits="userSpaceOnUse">
<stop stop-color="#FE8900"/>
<stop offset="1" stop-color="#FDD800" stop-opacity="0.6"/>
</linearGradient>
</defs>
</svg>
